<svg width="33" height="32" viewBox="0 0 33 32" fill="none" xmlns="http://www.w3.org/2000/svg">
<path d="M9.05102 12.0226H12.1271V21.7988H9.05102V12.0226ZM10.5891 7.13452C11.5717 7.13452 12.3407 7.94212 12.3407 8.87723C12.3407 9.85485 11.529 10.6624 10.5891 10.6624C9.60643 10.6624 8.79468 9.85485 8.79468 8.87723C8.79468 7.94212 9.60643 7.13452 10.5891 7.13452ZM14.007 21.7988H17.0831V16.9532C17.0831 15.678 17.3394 14.4454 18.9202 14.4454C20.501 14.4454 20.501 15.8906 20.501 17.0382V21.7988H23.5771V16.4431C23.5771 13.8078 23.0216 11.7676 19.9028 11.7676C18.4075 11.7676 17.4249 12.5752 16.9976 13.3403H16.9549V12.0226H14.007V21.7988V21.7988Z" fill="#727272"/>
</svg>
