<svg width="106" height="165" viewBox="0 0 106 165" fill="none" xmlns="http://www.w3.org/2000/svg">
<path d="M48.5809 47.614C45.8211 46.2335 43.7513 43.2423 43.9813 40.7113C44.2113 36.5697 46.5111 33.3484 48.5809 29.8971C49.7309 27.8263 51.1108 25.7555 50.8808 23.2245C50.6508 20.2333 49.2709 18.1625 46.5111 17.2421C42.1414 15.6315 37.5417 14.9412 32.9421 16.3217C32.0221 16.5518 31.1022 16.5518 29.9523 16.7819C28.3424 16.7819 26.5025 16.5518 24.8926 16.5518C29.2623 14.7111 33.402 12.4102 38.4617 13.1005C40.0715 13.3306 40.9915 12.6403 42.1414 11.0297C45.5911 5.04733 56.4004 -2.31558 66.0597 1.59595C67.4396 2.28623 69.0495 2.28623 70.6594 2.28623C77.5589 2.05614 83.0785 6.88803 85.3783 13.1005C85.8383 14.2509 85.3783 15.4014 85.3783 16.3217C84.6884 20.0032 86.0683 22.5342 89.748 23.2245C92.2778 23.6846 94.8076 23.9147 97.3375 24.3749C100.787 24.8351 103.317 26.6758 104.927 29.8971C107.687 35.4193 104.697 39.3308 100.787 41.1715C99.6373 41.6317 98.2574 42.0919 97.3375 42.5521C94.1177 44.3928 93.6577 45.083 94.1177 48.7645C94.5777 52.4459 94.1177 53.8265 90.208 55.207C88.1381 55.8973 86.9882 56.8177 86.2982 59.3487C85.1483 63.4903 83.0785 67.862 79.6287 70.8532C79.6287 68.5523 78.0188 69.7027 76.8689 69.7027C76.6389 68.3222 77.5589 67.6319 78.2488 66.7116C79.1688 65.7912 79.8587 64.8708 80.5487 63.7204C84.6884 56.1274 85.8383 47.8441 85.8383 39.3308C85.8383 35.1892 80.7786 30.5874 76.6389 30.3573C71.5793 30.1272 68.3595 32.8883 65.5997 36.3396C64.9098 36.1095 64.4498 35.6494 63.7599 35.4193C65.3697 30.5874 69.2795 28.7466 73.6491 27.5962C81.6986 25.5254 84.4584 29.8971 88.5981 35.6493C89.518 36.7998 89.288 38.4104 89.0581 39.791C88.8281 44.3928 89.288 48.7645 87.9081 53.3663C91.5879 51.9858 91.5879 51.9858 91.3579 48.7645C90.6679 43.2423 91.3579 42.0919 96.6475 39.791C97.1075 39.5609 97.5674 39.3308 98.2574 39.1007C103.777 36.7998 104.467 34.4989 101.017 29.4369C100.787 28.7466 100.327 28.5165 99.6373 28.5165C98.2574 26.6758 96.4175 27.3661 94.5777 27.136C96.4175 27.136 97.5674 28.2864 99.1773 28.9767C99.4073 29.4369 99.4073 29.667 99.6373 30.1272C99.1773 31.2776 98.2574 30.5874 97.3375 30.5874C92.5078 30.5874 89.058 27.3661 85.6083 24.605C84.2284 23.4545 83.5384 22.074 83.7684 20.2333C81.9286 20.0032 81.0086 20.9236 79.8587 21.6138C75.489 24.3749 70.8893 24.1448 66.2897 23.2245C64.4498 22.9944 63.0699 22.074 61.92 20.9236C56.8604 16.0917 57.7803 12.8704 63.7599 10.1093C65.8297 9.18895 68.1295 9.41904 70.4294 9.87922C72.4992 10.1093 73.1892 11.95 73.6491 13.5607C74.1091 14.9412 70.4294 17.4722 69.0495 17.012C68.3595 16.7819 68.3595 16.3218 68.5895 15.6315C68.8195 14.9412 69.5094 14.481 69.5094 13.3306C68.1295 13.3306 66.5197 13.1005 65.1398 13.3306C62.6099 13.7908 61.92 15.6315 63.5299 17.7023C65.5997 20.2333 70.4294 21.8439 74.1091 20.6935C75.949 20.0032 77.7889 19.0828 79.6287 18.3926C82.6185 17.012 83.0785 14.9412 81.2386 12.1801C78.4788 7.57832 73.6492 5.7376 68.1295 6.42787C62.15 7.11814 58.0103 9.87922 54.5605 14.9412C53.1806 16.7819 52.9506 18.6227 53.4106 20.4634C54.7905 25.2953 54.1005 29.667 50.6508 33.5785C50.4208 33.8086 50.4208 34.2688 50.1908 34.729C46.0511 40.9414 46.0511 40.9414 51.1108 46.2335C51.3407 46.4636 51.3407 46.6937 51.5707 46.9238C50.4208 47.384 49.5009 47.384 48.5809 47.614ZM63.5299 3.2066C61.92 2.74642 60.5401 1.82605 58.9302 2.28623C52.9506 3.43668 47.891 6.65795 43.9813 11.2598C43.2913 12.1801 42.8314 13.5607 44.6712 14.2509C46.7411 14.9412 48.5809 15.6315 50.6508 16.3217C52.7206 9.87921 57.5503 5.27741 63.5299 3.2066Z" fill="#EE0000"/>
<path d="M37.7717 160.588C36.1618 163.35 33.402 163.81 29.4923 164.5C34.322 159.208 34.092 153.686 32.2521 148.394C30.6422 143.562 28.1124 139.19 22.8228 136.889C17.7631 134.818 14.5434 130.677 10.8636 126.995C10.4037 126.535 9.9437 125.845 9.9437 125.155C9.9437 124.924 10.1737 124.694 10.4037 124.004C14.0834 127.455 18.2231 129.986 21.4429 133.898C22.8228 132.517 21.6729 131.827 21.4429 130.907C20.9829 128.836 19.833 126.995 19.603 125.155C19.603 123.314 18.9131 121.933 18.6831 120.323C19.603 120.323 20.293 120.783 20.9829 121.243C20.7529 121.703 20.5229 122.163 20.5229 122.393C21.9028 126.765 23.5127 131.367 26.7325 134.818C29.2623 137.579 31.1022 140.571 33.402 143.332C35.2419 145.633 35.0119 148.624 36.6218 151.385C38.4617 146.783 38.9216 142.181 37.3117 137.809C36.6218 135.969 36.3918 134.128 36.3918 132.057C37.5417 132.517 38.9216 132.978 39.1516 134.588C39.8416 137.119 40.3015 139.42 40.5315 142.181C40.7615 146.783 39.1516 150.925 38.4617 155.066C37.7717 155.526 37.0818 156.217 38.0017 156.907C38.2317 157.137 38.9216 156.447 39.1516 155.757C44.9012 148.394 46.7411 140.341 43.0613 131.367C41.9114 128.606 40.5315 126.305 39.1516 123.774C35.7019 117.331 34.5519 110.889 37.7717 104.216C40.0716 99.8446 43.2913 95.933 46.7411 92.2516C47.201 91.7914 47.891 91.3312 48.5809 91.3312C49.7309 91.7914 49.7309 92.9419 49.7309 93.8622C45.8211 97.3136 42.8314 101.455 40.5315 105.827C38.4617 109.738 37.5417 114.34 40.0716 118.942C40.9915 117.792 40.9915 116.641 41.2215 115.721C43.0613 109.508 46.2811 103.986 51.3407 99.8446C56.1704 95.933 61.46 92.4817 65.5997 87.6498C66.2897 87.8799 66.9796 88.11 67.6696 88.11C64.9098 93.6321 59.8501 96.6233 55.4805 100.305C50.4208 104.676 46.5111 109.738 44.6712 116.181C43.2913 120.783 43.2913 125.385 45.5912 129.756C48.5809 135.509 48.121 141.721 46.2811 147.013C44.6712 152.535 42.6014 157.827 37.7717 160.588C37.5417 159.898 38.4617 158.518 36.6218 158.748C35.9318 158.748 35.0119 159.208 35.4719 160.128C35.9318 161.049 37.0818 160.358 37.7717 160.588Z" fill="#EE0000"/>
<path d="M20.5229 49.2247C22.8228 54.2867 24.2027 59.5788 27.8824 64.1806C31.1022 68.0921 34.5519 72.4638 33.632 78.4462C32.7121 78.6763 32.0221 78.9064 31.1022 79.3665C31.1022 74.7647 28.8024 71.3134 26.2725 67.862C22.8228 63.4903 20.293 58.6584 18.6831 53.3663C18.4531 52.4459 18.4531 50.8353 17.0732 50.6052C15.4633 50.3751 13.8534 51.0654 12.9335 52.446C11.5536 54.9769 10.4037 57.5079 10.8636 60.4991C11.0936 61.1894 11.0936 61.8797 11.3236 62.8C14.7734 62.1098 17.5332 63.4903 20.063 65.331C23.0528 67.862 24.2027 71.3134 24.8926 74.9948C25.1226 76.8355 25.1226 78.6763 26.5025 80.0568C25.8126 80.9772 24.6627 80.7471 23.7427 80.9772C21.4429 78.9063 22.1328 75.9152 21.6729 73.3842C20.293 66.4815 15.2333 63.7204 8.79379 66.7116C7.87385 67.1717 6.95392 67.6319 6.03398 68.0921C3.04419 69.7027 2.35425 73.1541 4.19411 75.9152C5.804 78.2161 6.95392 80.517 8.79379 82.3577C13.6234 87.4197 12.7035 92.7118 10.1737 98.4641C8.79379 101.455 7.41388 104.676 7.41388 108.128C7.41388 109.738 7.64387 111.119 8.10383 112.73C5.57401 112.96 4.88406 111.809 4.65408 109.969C3.96413 105.597 5.11405 101.455 6.95392 97.7738C7.64387 96.1631 8.33382 94.7826 8.79379 93.172C9.48374 90.4109 9.25375 88.11 7.1839 85.8091C5.11405 83.5082 3.50416 80.7471 1.66429 78.2161C-1.09551 73.6143 -0.635542 68.0921 4.65408 65.5611C5.57401 65.1009 6.03398 64.8708 6.26397 63.7204C7.1839 63.7204 8.10384 63.7204 9.02377 63.7204C8.79379 61.4195 8.5638 59.1186 8.5638 56.8177C8.5638 52.2158 11.3236 49.2247 15.6933 48.3043C17.5332 49.6849 19.143 48.9946 20.5229 49.2247Z" fill="#EE0000"/>
<path d="M9.71372 63.7204C8.79378 63.7204 7.87385 63.7204 6.95391 63.7204C5.57401 62.3398 4.65408 60.4991 3.73414 58.6584C0.744357 52.2159 4.4241 45.3131 11.3236 44.6229C14.3134 44.1627 14.7734 43.9326 14.3134 40.9414C14.0834 38.8706 13.6234 36.7998 13.3935 34.729C13.1635 26.6758 17.7631 19.0828 24.6627 16.3217C26.2725 16.3217 28.1124 16.5518 29.7223 16.5518C27.6524 18.3925 24.8926 18.8527 22.8228 20.6935C18.2231 24.605 15.9233 29.667 16.8432 35.6493C17.5332 40.2511 18.4531 44.6229 20.293 48.9946C18.9131 48.7645 17.5332 49.4548 16.3832 48.3043C16.1533 47.1539 16.3832 45.5432 14.3134 46.2335C13.1635 46.4636 12.0136 46.2335 10.8636 46.4636C6.95391 47.3839 3.96413 52.4459 5.57401 55.8973C7.1839 58.6584 7.87385 61.4195 9.71372 63.7204Z" fill="#EE0000"/>
<path d="M48.5809 47.614C49.5009 47.384 50.4208 47.1539 50.8808 46.2335C52.0307 48.5344 53.1806 50.6052 53.1806 53.3663C53.1806 59.3486 52.0307 60.0389 46.7411 62.3398C41.6814 64.6407 37.7717 61.8797 34.5519 58.4283C33.172 57.0478 31.7921 55.4371 30.8722 53.8265C28.1124 49.4548 27.1925 45.083 29.7223 40.2511C29.9523 39.5609 30.4122 38.8706 30.8722 38.4104C32.0221 37.7201 33.172 36.3396 34.322 37.0299C35.7019 37.9502 34.5519 39.3308 33.862 40.2511C31.1022 43.9326 32.4821 47.8441 34.322 51.0654C35.7019 53.5964 37.3117 56.1274 40.0715 57.738C42.6014 59.3487 47.201 59.3487 49.2709 57.5079C50.4208 56.3575 50.6508 54.9769 50.6508 53.5964C49.9608 51.7557 49.2709 49.6849 48.5809 47.614Z" fill="#EE0000"/>
<path d="M49.9608 94.5525C49.9608 93.6321 49.9608 92.4817 48.8109 92.0215C50.1908 89.7206 52.2607 87.8799 54.7905 86.7294C58.9302 84.8887 62.15 81.6674 65.8297 79.1364C69.5095 76.3754 73.4192 73.3842 76.409 69.9328C77.5589 69.9328 79.1688 68.7824 79.1688 71.0833C77.7889 73.6143 75.719 75.6851 73.4192 77.5258C71.5793 78.9063 70.4294 80.2869 70.4294 82.5878C70.4294 85.1188 69.5095 87.1896 67.6696 88.8002C66.9796 88.5701 66.2897 88.3401 65.5997 88.3401C66.0597 86.2693 68.1296 84.6586 67.6696 82.3577C61.23 85.579 55.7104 90.4109 49.9608 94.5525Z" fill="#EE0000"/>
<path d="M36.6218 132.287C34.322 132.287 34.092 130.217 33.402 129.066C30.1823 124.004 27.1925 118.942 27.8824 112.5C28.3424 107.898 29.7223 103.526 32.2521 99.8446C35.2419 95.4728 38.4617 91.1011 43.2913 88.3401C43.2913 89.0303 43.2913 89.4905 43.2913 90.1808C41.2215 92.2516 39.1516 94.3224 37.3117 96.6233C34.322 100.075 31.7921 103.756 30.6422 108.128C29.0323 115.261 30.6422 121.703 35.2419 127.455C36.1618 128.836 37.7717 130.217 36.6218 132.287Z" fill="#EE0000"/>
<path d="M16.8432 80.9772C16.1533 85.1188 19.373 86.4993 21.9028 88.5701C20.7529 88.5701 19.603 88.8002 18.4531 88.8002C15.9233 88.5701 15.0033 86.4993 14.5434 84.4285C13.8534 81.6674 12.7035 79.1364 10.4037 77.2957C9.02377 76.3754 7.87385 74.5346 8.79379 72.924C9.48374 71.5434 9.71372 69.4726 12.0136 69.4726C14.0834 69.4726 15.9233 70.1629 16.6132 72.4638C17.5332 74.9948 18.4531 77.5258 19.143 80.0568C19.603 81.6674 21.4429 83.048 20.7529 85.1188C18.6831 84.4285 18.6831 82.1276 17.5332 80.9772C17.5332 80.517 17.7631 79.3665 16.8432 79.5966C15.9233 79.8267 16.6132 80.517 16.8432 80.9772ZM15.4633 77.5258C15.6933 77.7559 15.9233 77.986 15.9233 78.2161C16.3832 77.7559 16.1533 77.2957 15.6933 77.0656C15.4633 75.455 15.0033 74.0744 14.0834 72.6939C13.6234 72.0036 12.9335 71.3134 12.0136 72.0036C11.0936 72.6939 10.6337 73.3842 11.3236 74.5346C11.7836 75.2249 12.2435 75.6851 12.9335 75.6851C14.3134 75.9152 14.5434 77.2957 15.4633 77.5258Z" fill="#EE0000"/>
<path d="M21.4429 121.243C20.7529 120.783 20.063 120.323 19.143 120.323C17.5332 118.712 18.6831 116.411 18.6831 114.8C18.6831 111.579 17.5332 107.898 19.833 104.907C22.5928 101.225 25.1226 97.3136 28.1124 93.8622C29.0323 92.9419 29.9523 92.7118 31.3322 93.402C30.6422 95.4729 29.2623 97.0835 28.1124 98.6941C26.7325 100.535 25.3526 102.145 23.9727 103.986C21.6729 107.207 20.5229 110.659 20.9829 114.8C20.9829 116.641 21.2129 118.942 21.4429 121.243Z" fill="#EE0000"/>
<path d="M43.0613 90.1808C43.0613 89.4905 43.0613 89.0303 43.0613 88.3401C46.2811 84.1984 50.4208 80.9772 54.3305 77.7559C56.8604 75.6851 58.9302 73.1541 61.23 70.6231C59.8501 69.4726 58.0103 69.0125 57.7803 67.1717C58.7002 66.2514 59.3902 65.1009 60.7701 65.5611C61.46 66.7116 62.6099 67.1717 63.7599 67.4018C63.7599 68.0921 63.2999 68.5523 62.6099 69.0125C61.92 69.7027 62.38 70.1629 63.0699 70.6231C58.4702 77.2957 52.0307 82.3577 46.2811 88.11C45.3612 89.0303 44.4412 90.4109 43.0613 90.1808Z" fill="#EE0000"/>
<path d="M21.9028 32.198C21.6729 26.2156 25.3526 22.3041 32.0221 19.7731C34.7819 18.8527 37.3117 19.0828 40.0716 19.7731C41.4515 20.0032 42.3714 20.9235 42.8314 22.3041C33.862 20.4634 27.1925 23.6846 21.9028 32.198Z" fill="#EE0000"/>
<path d="M60.7701 65.5611C59.1602 65.331 58.7002 66.4815 57.7803 67.1717C56.4004 63.7204 57.0903 60.9593 59.3902 58.1982C61.23 55.8973 63.0699 53.3663 66.2897 52.676C67.4396 53.3663 68.5895 53.5964 69.9694 53.5964C69.0495 55.207 67.4396 55.6672 66.2897 56.8177C63.2999 59.1186 61.0001 61.6496 60.7701 65.5611Z" fill="#EE0000"/>
<path d="M18.4531 88.8002C19.603 88.8002 20.7529 88.5701 21.9028 88.5701C23.7427 88.8002 25.8126 89.4905 26.7325 87.1896C27.6524 85.1188 26.7325 83.2781 24.8926 82.1276C24.6626 81.8975 24.2027 81.4373 23.9727 81.2073C24.8926 80.9772 26.0426 81.2072 26.7325 80.2869C30.4122 83.2781 30.6422 87.1896 27.6524 90.4109C26.5025 91.5613 23.2827 92.0215 21.2129 90.871C20.293 90.1808 19.373 89.4905 18.4531 88.8002Z" fill="#EE0000"/>
<path d="M31.3322 79.1364C32.2521 78.9063 32.9421 78.6763 33.862 78.2161C35.0119 82.3577 35.7019 86.4993 33.402 90.4109C32.9421 91.1011 32.7121 92.2516 31.5622 91.5613C30.6422 91.1011 29.7223 90.4109 30.4122 89.2604C31.7921 86.0392 31.3322 82.5878 31.3322 79.1364Z" fill="#EE0000"/>
<path d="M63.2999 35.4193C63.9898 35.6493 64.4498 36.1095 65.1398 36.3396C64.9098 38.4104 65.5997 40.0211 67.4396 41.4016C69.2795 42.7821 71.1193 44.1627 71.3493 46.6937C70.4294 46.6937 69.2795 46.6937 68.3595 46.6937C66.0597 44.3928 63.2999 42.7821 62.8399 39.3308C62.6099 37.7202 61.92 36.3396 63.2999 35.4193Z" fill="#EE0000"/>
<path d="M96.6475 30.3573C97.3374 30.3573 98.2574 31.0475 98.9473 29.8971C99.1773 30.1272 99.4073 30.1272 99.6373 30.3573C99.6373 33.8086 97.3375 35.8794 94.5777 37.26C92.5078 38.1803 91.1279 37.4901 89.058 34.729C91.5879 35.6493 93.6577 35.8794 95.4976 34.4989C96.6475 33.3484 97.5674 32.198 96.6475 30.3573Z" fill="#EE0000"/>
<path d="M8.5638 123.544C9.02377 121.243 8.10383 119.632 6.49395 118.022C6.03398 117.562 5.804 116.871 5.57402 116.181C5.11405 115.261 5.57401 114.57 6.72393 114.34C7.41388 114.34 8.79378 114.11 8.5638 115.261C8.10383 116.871 9.71372 117.331 9.9437 118.712C10.1737 119.862 12.0136 120.323 11.3236 121.473C10.6337 122.163 9.48373 122.393 8.5638 123.544Z" fill="#EE0000"/>
<path d="M68.3595 46.4636C69.2795 46.4636 70.4294 46.4636 71.3493 46.4636C71.5793 48.0742 71.8093 49.915 71.3493 51.5256C70.1994 51.5256 69.5094 50.8353 68.3595 50.6052C68.3595 49.4548 68.3595 48.0742 68.3595 46.4636Z" fill="#EE0000"/>
<path d="M68.3595 50.8353C69.2795 51.0654 70.1994 51.9858 71.3493 51.7557C71.1193 52.676 70.6594 53.1362 69.9694 53.5964C68.5895 53.5964 67.4396 53.3663 66.2897 52.676C66.5197 51.5256 67.8996 51.5256 68.3595 50.8353Z" fill="#EE0000"/>
<path d="M63.5299 67.4018C67.4396 66.2514 70.6594 64.1806 72.0393 59.8088C72.2692 58.8885 72.9592 57.9681 72.0393 57.0478C71.3493 56.5876 71.1193 55.8973 71.8093 55.207C72.2692 54.9769 72.9592 54.9769 73.4192 54.9769C75.489 55.207 75.719 57.0478 75.719 58.4283C75.259 63.2602 69.2795 70.8532 62.8399 70.393C62.15 69.9328 61.69 69.4726 62.38 68.7824C63.0699 68.5523 63.5299 68.0921 63.5299 67.4018Z" fill="#EE0000"/>
<path d="M73.8791 34.729C77.0989 33.5785 80.5487 34.9591 81.9286 37.9502C83.5384 40.9414 83.7684 44.1627 83.3085 47.384C83.3085 48.0742 83.0785 48.5344 82.3885 48.5344C81.4686 48.5344 81.2386 48.0742 81.2386 47.1539C81.2386 46.2335 81.0086 45.083 81.0086 44.1627C80.5487 39.791 78.4788 36.1095 73.8791 34.729Z" fill="#EE0000"/>
</svg>
