<svg width="81" height="151" viewBox="0 0 81 151" fill="none" xmlns="http://www.w3.org/2000/svg">
<path d="M25.4778 14.4881C25.7985 15.7744 26.7604 17.0606 25.6381 18.3469C25.4778 18.5077 25.3175 18.8293 25.4778 18.8293C27.7223 20.5979 25.6382 23.6528 27.8827 25.7429C28.8446 26.5468 29.1652 28.637 29.6462 30.0841C30.7684 33.139 32.6923 35.7115 34.6161 38.1232C35.4177 39.0879 36.54 40.3742 37.6622 40.8565C38.9448 41.6604 40.7083 42.1428 42.3115 42.4644C43.4338 42.6251 44.3957 42.9467 45.1973 44.0722C41.1893 45.5192 37.6622 47.4487 34.7764 50.3428C32.2113 52.7545 29.8065 55.1662 28.3636 58.5427C27.4017 60.6328 26.4398 62.7231 25.4778 64.8132C24.9969 65.6172 25.4778 66.7426 25.3175 67.8681C25.1572 69.1544 24.8365 69.9583 23.7143 70.7622C23.2333 71.0838 22.592 71.4053 21.9508 71.4053C20.6682 68.9936 21.4698 66.2603 21.1492 63.6877C22.4317 63.2054 22.5921 62.2407 22.5921 61.1152C23.073 61.4368 23.3937 61.5975 23.7143 60.9544C24.6762 59.1858 25.6381 57.4172 26.4398 55.6486C29.0049 50.0212 33.4939 46.4839 39.1051 44.0722C38.7845 43.9114 38.3035 43.5899 37.9829 43.4291C36.3796 42.1428 34.2955 41.6605 32.6923 40.2134C29.0049 36.837 27.4017 32.335 25.4778 27.9939C24.9969 27.0292 24.9969 25.5822 23.8746 25.4214C22.5921 25.2606 22.1111 26.7077 21.7905 27.8331C21.7905 27.9939 21.7904 27.9939 21.6301 28.1547C19.546 31.8527 17.4618 35.5507 13.9347 38.1232C12.4918 39.0879 11.2093 40.2134 9.76638 41.1781C10.568 42.3036 11.8506 41.8212 12.6522 42.4644C15.5379 44.7153 18.584 46.8055 19.8666 50.5035C20.3476 51.629 21.1492 52.4329 20.8285 54.0408C20.6682 55.0055 22.1111 56.2917 22.4317 57.7388C21.6301 58.0603 20.8285 58.5427 19.8666 58.3819C18.7444 56.2917 18.584 53.88 17.4618 51.7898C14.576 46.0016 9.28542 43.9114 3.67418 42.1428C2.71226 41.8213 1.75034 42.1428 0.94873 41.1781C1.42969 39.8919 2.71225 40.3742 3.51385 40.3742C5.4377 40.3742 7.04092 39.5703 8.48381 38.4448C9.9267 37.1585 11.2093 35.5507 13.2934 34.9076C13.7744 34.7468 14.2554 33.4606 14.8966 32.6566C16.6602 30.0841 18.584 27.5115 20.1872 24.7782C21.6301 22.0449 23.073 19.1509 22.9127 15.7744C23.7143 15.6136 24.1953 14.0058 25.4778 14.4881Z" fill="#EE0000"/>
<path d="M25.4778 14.4881C24.1953 14.1666 23.7143 15.6136 22.5921 15.6136C22.5921 13.2019 23.2333 10.9509 23.2333 8.53915C23.2333 5.96662 23.7143 3.3941 23.2333 0.5C26.2794 1.78626 26.2794 1.94703 25.9588 4.19799C25.3175 7.73522 25.9588 11.1117 25.4778 14.4881Z" fill="#EE0000"/>
<path d="M21.9508 71.4053C22.592 71.4053 23.073 71.0838 23.7143 70.7622C25.3175 73.1739 24.5159 75.9073 24.3556 78.4798C23.7143 78.4798 23.073 78.4798 22.4317 78.4798C21.6301 76.2288 22.1111 73.8171 21.9508 71.4053Z" fill="#EE0000"/>
<path d="M22.5921 61.1152C22.5921 62.2407 22.4317 63.3662 21.1492 63.6877C19.7063 62.0799 20.1872 59.9897 19.7063 58.2211C20.6682 58.3819 21.4698 57.8996 22.2714 57.578C22.9127 58.5427 22.2714 59.8289 22.5921 61.1152Z" fill="#EE0000"/>
<path d="M22.4317 78.4798C23.073 78.4798 23.7143 78.4798 24.3556 78.4798C24.5159 79.2837 24.6762 80.0876 24.8365 80.8915C23.8746 81.0523 23.2333 80.4091 22.4317 80.2484C22.5921 79.766 21.9508 79.1229 22.4317 78.4798Z" fill="#EE0000"/>
<path d="M24.6762 82.1778C24.5159 82.9817 24.5159 83.7856 24.3556 84.5895C23.7143 84.5895 23.8746 82.4993 22.7524 84.2679C22.592 84.4287 21.9508 83.464 21.9508 82.8209C23.073 82.9817 23.8746 82.3386 24.6762 82.1778Z" fill="#EE0000"/>
<path d="M24.6762 82.1778C23.7143 82.3386 23.073 82.9817 22.1111 82.8209C21.9508 82.017 21.7905 81.2131 22.2714 80.4091C23.073 80.5699 23.8746 81.2131 24.6762 81.0523C24.9969 81.3738 24.8366 81.6954 24.6762 82.1778Z" fill="#EE0000"/>
<path d="M51.9307 116.103C51.2894 116.103 50.8085 115.62 50.4878 115.138C49.6862 114.495 49.8465 113.852 50.9688 113.369C52.572 112.726 54.1752 112.083 55.7784 111.118C60.4277 108.224 62.6722 103.883 63.1532 98.4166C63.1532 97.6127 63.1532 96.8088 63.4738 96.0049C64.2754 96.0049 64.9167 96.0049 65.7183 96.0049C65.7183 97.7735 65.8786 99.7029 66.3596 101.15C67.6422 104.687 68.1231 108.707 71.0089 111.601C73.0931 113.691 75.8185 114.656 78.544 115.46C78.8646 115.62 79.3456 115.62 79.6662 115.62C80.3075 115.781 80.9488 115.942 80.9488 116.585C80.9488 117.228 80.4678 117.389 79.9869 117.55C76.6201 118.675 74.6963 121.569 72.2915 123.82C71.1692 124.785 70.6883 126.875 69.8867 128.322C69.2454 129.287 69.2454 130.412 68.2835 131.056C67.6422 130.734 67.4818 129.769 66.6802 129.609C67.4818 128.644 66.8406 127.197 67.4818 126.071C67.9628 126.071 68.7644 126.232 68.9247 125.911C69.2454 125.428 68.4438 125.267 68.2835 124.785C69.566 121.569 71.9708 119.318 74.8566 117.389C69.085 115.299 65.8786 111.279 64.4357 105.491C64.4357 105.491 64.2754 105.491 64.2754 105.652C64.1151 105.973 63.7945 106.295 63.6341 106.617C62.1912 109.993 59.7864 112.405 56.4197 113.691C55.1371 114.173 56.58 114.656 56.58 115.138C55.7784 115.299 54.6562 115.138 54.4958 116.424L54.3355 116.585C53.8546 116.424 53.5339 116.103 53.3736 115.781C53.3736 115.62 53.3736 115.62 53.3736 115.46C53.3736 115.299 53.3736 115.299 53.3736 115.138C53.2133 114.656 53.5339 113.691 52.7323 113.691C51.6101 114.816 51.9307 115.62 51.9307 116.103ZM66.1993 108.385C66.3596 108.224 66.5199 108.064 66.1993 108.064C66.1993 108.064 66.039 108.064 65.8786 108.064C66.039 108.064 66.1993 108.224 66.1993 108.385C66.1993 108.707 66.3596 108.868 66.6802 108.868C66.8406 108.868 67.0009 108.707 67.0009 108.546C66.8406 108.385 66.5199 107.903 66.1993 108.385Z" fill="#EE0000"/>
<path d="M66.3596 130.412C67.1612 130.573 67.3215 131.377 67.9628 131.859C67.9628 132.503 67.9628 133.146 67.8025 133.628C66.039 138.452 65.8786 143.436 66.0389 148.42C66.0389 149.224 66.5199 150.028 65.077 150.35C63.9548 150.671 63.4738 150.51 62.9929 149.546C62.8325 149.063 62.5119 148.42 62.5119 147.777C62.8325 144.561 61.7103 141.506 61.7103 138.291C61.7103 135.236 61.3896 132.181 60.9087 129.287C60.588 127.197 58.8245 125.589 58.6642 123.338C59.3055 123.016 59.9468 122.534 60.7484 123.338C61.3897 123.981 62.0309 123.82 62.8325 123.66C62.5119 124.303 62.5119 124.785 63.3135 124.946C63.9548 126.714 64.4358 128.483 65.077 130.252C65.558 131.056 66.039 130.573 66.3596 130.412Z" fill="#EE0000"/>
<path d="M65.558 96.3264C64.7564 96.3264 64.1151 96.3264 63.3135 96.3264C63.3135 95.3617 63.3135 94.5578 63.1532 93.5931C63.1532 93.1108 63.3135 92.6284 63.9548 92.6284C64.5961 92.6284 65.2374 92.6284 65.3977 93.4323C65.8786 94.397 65.8786 95.3617 65.558 96.3264Z" fill="#EE0000"/>
<path d="M58.0229 122.534C57.5419 121.73 57.061 120.926 56.58 120.122C56.7403 119.962 56.9007 119.801 57.061 119.801C58.0229 119.801 58.9848 119.64 59.9468 119.64C60.4277 120.122 60.9087 120.444 61.069 121.248C60.9087 121.409 60.7484 121.569 60.588 121.73C59.7864 122.052 58.6642 120.122 58.3436 122.212C58.3436 122.212 58.1832 122.373 58.0229 122.534Z" fill="#EE0000"/>
<path d="M62.9929 123.66C62.1913 123.82 61.55 124.142 60.9087 123.338C60.2674 122.534 59.6261 123.177 58.8245 123.338C58.3435 123.338 58.1832 122.856 58.0229 122.534C58.1832 122.373 58.3435 122.212 58.5039 122.052C59.3055 122.052 60.2674 122.373 60.7484 121.569C60.9087 121.409 61.069 121.248 61.2293 121.087C61.8706 121.891 62.6722 122.695 62.9929 123.66Z" fill="#EE0000"/>
<path d="M56.7404 120.122C55.9387 119.318 54.9768 118.354 54.1752 117.55L54.3355 117.389C56.9007 117.55 56.9007 117.55 57.3816 119.801C57.061 119.801 56.9007 119.962 56.7404 120.122Z" fill="#EE0000"/>
<path d="M51.9307 116.103C52.091 115.62 51.7704 114.656 52.4117 114.656C53.2133 114.656 52.8926 115.46 53.053 116.103C53.053 116.264 53.053 116.264 53.053 116.424C53.053 116.585 53.053 116.585 53.053 116.746C52.7323 116.585 52.2514 116.264 51.9307 116.103Z" fill="#EE0000"/>
<path d="M56.4197 116.103C58.0229 116.907 59.6261 117.711 60.1071 119.64C59.1452 119.64 58.1832 119.801 57.2213 119.801C56.9007 117.55 56.9007 117.55 54.1752 117.389C54.3355 115.942 55.4578 116.264 56.4197 116.103Z" fill="#EE0000"/>
<path d="M67.1612 126.875C67.1612 126.393 67.3215 125.911 67.9628 125.589C68.1231 126.071 68.9247 126.232 68.6041 126.714C68.4438 127.036 67.6422 126.875 67.1612 126.875Z" fill="#EE0000"/>
<path d="M62.9929 123.66C63.4738 123.981 63.4738 124.463 63.4738 124.946C62.6722 124.785 62.6722 124.303 62.9929 123.66Z" fill="#EE0000"/>
<path d="M60.7484 121.569C60.1071 122.373 59.3055 122.052 58.5039 122.052C58.8245 119.962 60.1071 121.891 60.7484 121.569Z" fill="#EE0000"/>
</svg>
