<svg width="213" height="67" viewBox="0 0 213 67" fill="none" xmlns="http://www.w3.org/2000/svg">
<g clip-path="url(#clip0_1845_1726)">
<path d="M164.814 54.3196C165.164 57.9138 165.513 61.5079 165.863 65.102C165.906 65.5564 166.209 66.0994 165.665 66.4229C165.23 66.677 164.837 66.3151 164.452 66.1418C160.998 64.6088 157.378 63.4706 153.664 62.7492C152.953 62.6028 152.471 62.4449 152.696 61.5554C154.818 53.1913 154.111 44.731 153.532 36.2783C153.287 32.7278 152.863 29.1927 152.366 25.6653C152.203 24.5101 151.977 24.2405 150.885 25.0107C147.099 27.659 143.714 30.8295 140.831 34.426C139.712 35.8432 139.751 35.9433 141.201 37.0177C142.328 37.8433 143.398 38.7439 144.403 39.7133C145.398 40.6837 145.837 41.7196 145.18 43.2599C143.715 46.6487 142.495 50.1453 141.247 53.6226C140.859 54.7394 140.497 54.7278 139.736 53.9191C137.309 51.286 135.13 48.4386 133.226 45.4126C132.067 47.0378 131.132 48.8095 130.447 50.6805C130.175 51.3968 129.759 52.0361 128.893 51.9475C128.026 51.8589 127.727 51.2505 127.878 50.3763C128.378 47.145 129.069 43.9457 129.95 40.7954C130.126 40.2609 130.109 39.6825 129.903 39.1587C128.553 35.4502 127.501 31.6413 126.759 27.7679C126.083 24.3021 126.553 20.7632 126.623 17.2589C126.644 16.767 126.854 16.3017 127.211 15.9586C127.567 15.6155 128.042 15.4208 128.539 15.4143C129.53 15.4143 129.977 16.2461 130.133 17.1857C130.661 20.4166 131.271 23.6282 132.523 26.6742C132.931 27.6716 133.156 29.1426 134.24 29.2967C135.488 29.4777 135.841 27.9335 136.37 27.0362C139.338 21.8558 143.232 17.2535 147.862 13.4542C151.643 10.4082 156.081 8.44809 160.725 6.95395C161.693 6.64588 161.996 6.98476 161.67 7.95133C161.072 9.73178 160.638 11.5619 160.372 13.4196C160.115 15.1756 160.216 16.8853 161.044 18.4834C161.475 19.3114 161.39 19.7042 160.442 20.0739C157.853 21.0751 157.815 21.1367 158.623 23.8708C161.471 33.3167 163.481 42.9908 164.631 52.7831C165.187 53.2375 164.518 53.8344 164.814 54.3196Z" fill="#EE0000"/>
<path d="M16.8937 15.6223C23.4188 19.916 27.7015 26.1043 31.5878 32.4891C35.6295 39.1279 36.0803 46.2366 32.777 53.4493C31.7393 55.7175 31.8482 55.7598 34.246 56.3683C35.2836 56.6263 36.3213 56.8804 37.355 57.0961C37.7953 57.1354 38.2078 57.3261 38.5209 57.6352C38.859 58.0203 39.372 58.4708 39.1816 58.9792C38.9912 59.4875 38.3305 59.2757 37.8719 59.2564C35.5401 59.1524 33.2084 59.0831 30.8766 58.8713C30.4812 58.7929 30.0706 58.8486 29.7111 59.0295C29.3515 59.2105 29.0639 59.5061 28.8946 59.8687C28.3155 60.8661 27.6704 61.8249 27.0136 62.7723C26.8154 63.0572 26.625 63.5424 26.1392 63.3499C25.9452 63.2453 25.7912 63.0806 25.7006 62.881C25.6101 62.6814 25.5881 62.4579 25.6379 62.2447C25.7397 61.4819 25.881 60.7249 26.0615 59.9765C26.3296 58.9098 26.042 58.4708 24.8451 58.3784C20.3899 58.0508 15.9591 57.4541 11.5773 56.5916C7.82698 55.8446 4.41093 54.2503 1.08426 52.4365C0.272026 51.9937 -0.03111 51.3775 -0.00779225 50.3263C0.0893651 45.9209 2.09081 42.3203 4.5314 38.8545C5.05994 38.1036 5.45245 37.9303 5.93435 38.8892C8.3594 43.7528 12.3545 47.0492 17.0064 49.6716C19.5714 51.1157 22.1324 52.5675 24.9189 53.5725C26.5978 54.1771 26.5356 54.1771 26.5162 52.4596C26.4695 47.5267 24.437 43.1328 22.797 38.6273C20.0066 30.9564 15.2537 24.4022 10.7184 17.721C10.1626 16.8969 9.59913 16.7082 8.66642 16.92C7.20128 17.2512 5.70506 17.4476 4.22438 17.6902C3.89405 17.7479 3.52485 17.9174 3.2839 17.5785C2.99243 17.1742 3.34997 16.8661 3.53651 16.5465C4.25159 15.3296 5.56127 14.9407 6.73105 14.4246C7.54717 14.0627 7.80366 13.8085 7.18574 13.0499C6.7232 12.4341 6.29881 11.7911 5.91492 11.1244C5.48743 10.4505 5.79445 10.2618 6.46677 10.3543C7.7648 10.5199 8.82187 11.2361 9.87894 11.8946C10.2158 12.1185 10.6076 12.2478 11.0127 12.2688C11.4177 12.2898 11.821 12.2018 12.1796 12.014C19.7074 8.9333 27.4061 6.53806 35.68 6.62278C39.6149 6.71396 43.5412 7.02768 47.44 7.56239C47.8947 7.6163 48.5126 7.53159 48.7186 8.07071C48.9245 8.60983 48.3299 8.77156 48.0734 9.09503C47.8169 9.41851 47.4944 9.86521 47.1874 10.2272C45.7611 11.9408 45.1393 13.8278 46.0215 15.9765C46.4101 16.9662 46.1381 17.2627 45.1743 16.9624C42.1041 15.9996 38.9329 15.5221 35.7617 15.1332C29.6745 14.4481 23.5235 14.5439 17.4611 15.4182C17.2665 15.4702 17.0767 15.5385 16.8937 15.6223Z" fill="#EE0000"/>
<path d="M75.091 48.2352C77.4227 50.5458 79.9605 52.2979 82.4749 54.0886C83.1006 54.5391 83.7613 54.9435 84.3947 55.3825C85.0282 55.8214 85.2303 56.2181 84.3248 56.5839C80.3996 58.1628 78.0134 61.2396 76.1908 64.8479C75.7672 65.6797 75.3513 65.8568 74.5158 65.2676C68.5425 61.0317 63.879 55.8407 60.735 49.1556C57.9874 43.3061 56.942 37.2179 56.4328 30.8909C55.7916 22.9967 56.0947 15.1216 56.565 7.23892C56.5883 6.89234 56.565 6.46875 57.0313 6.51111C57.4977 6.55347 57.5443 6.98861 57.5949 7.38525C58.2515 13.072 59.4539 18.6837 61.1858 24.1442C63.7158 31.846 66.8326 39.2627 72.285 45.4896C72.8952 46.1827 73.2799 46.1981 73.894 45.5974C79.5174 40.0791 85.273 34.6455 89.7345 28.1299C93.6597 22.3998 96.1547 16.0613 95.9215 8.9564C95.8865 7.91667 96.4656 8.0322 97.0874 8.01294C100.585 7.92437 104.059 7.52773 107.359 6.23769C107.988 5.98739 108.61 5.71398 109.216 5.40976C109.823 5.10554 110.487 4.54717 111.16 5.25958C111.832 5.97199 112.085 6.66514 111.723 7.62786C110.441 11.0513 109.026 14.4169 107.448 17.7094C103.649 25.6153 98.1919 32.6271 91.4406 38.2769C86.5477 42.3781 81.4917 46.252 75.091 48.2352Z" fill="#EE0000"/>
<path d="M212.984 53.2529C213.066 55.3632 212.697 57.4889 212.596 59.6646C212.561 60.4579 212.207 60.7621 211.473 60.8545C204.827 61.6517 198.178 62.4449 191.497 62.9032C191.109 62.934 190.545 63.1651 190.331 62.6298C190.118 62.0945 190.72 61.9174 190.972 61.617C193.6 58.5132 196.732 55.7021 197.742 51.5816C199.208 45.609 198.866 39.8211 195.939 34.2104C193.013 28.5997 189.639 23.3509 185.147 18.8493C184.968 18.6879 184.799 18.5155 184.642 18.3333C183.95 17.4476 183.425 16.3809 184.187 15.4374C184.949 14.494 186.052 14.44 187.234 14.9599C194.272 18.0406 200.105 22.8041 205.056 28.4726C207.719 31.5186 209.141 35.5274 210.606 39.3513C211.37 41.1723 211.937 43.0686 212.297 45.0082C212.777 47.7302 213.007 50.4897 212.984 53.2529Z" fill="#EE0000"/>
<path d="M165.101 51.3544C165.517 46.6102 166.17 41.8698 166.291 37.1062C166.458 30.5598 168.914 24.899 172.307 19.4577C175.342 14.5941 179.15 10.5622 184.129 7.6394C184.568 7.37754 184.995 6.84613 185.543 7.31593C186.002 7.70102 185.858 8.27095 185.695 8.79852C184.7 12.0101 183.169 15.0408 182.376 18.3179C180.111 27.4378 178.961 36.7946 178.952 46.1866C178.975 51.8628 179.092 57.5428 179.146 63.219C179.146 63.7658 179.477 64.5475 178.948 64.8171C178.42 65.0866 178 64.3704 177.584 64.0122C173.507 60.4887 169.555 56.8227 165.148 53.6881C164.732 52.9179 165.063 52.1323 165.101 51.3544Z" fill="#EE0000"/>
<path d="M110.106 29.47C110.53 25.931 111.097 22.5153 111.785 19.1188C112.687 14.6865 113.592 10.2618 115.551 6.12602C116.399 4.34797 117.399 2.64485 118.54 1.03517C119.068 0.288103 119.453 0.365119 119.978 1.00436C122.621 4.29666 126.297 6.62082 130.424 7.6086C130.921 7.73182 132.021 7.93207 130.964 8.71765C127.121 11.5865 125.473 15.7686 123.79 19.9853C121.505 25.7038 120.918 31.7304 120.292 37.757C119.415 46.4772 119.234 55.2524 119.752 64.0007C119.772 64.3588 120.005 64.8209 119.535 65.0404C118.909 65.3369 118.816 64.6784 118.606 64.3858C116.082 60.8547 114.258 56.8808 113.231 52.6753C111.292 45.0159 111.226 37.137 110.106 29.47Z" fill="#EE0000"/>
</g>
<defs>
<clipPath id="clip0_1845_1726">
<rect width="213" height="66" fill="white" transform="translate(0 0.5)"/>
</clipPath>
</defs>
</svg>
