<svg width="75" height="75" viewBox="0 0 75 75" fill="none" xmlns="http://www.w3.org/2000/svg">
<path fill-rule="evenodd" clip-rule="evenodd" d="M57.4 37.2C57.4 48.3562 48.3562 57.4 37.2 57.4C26.0438 57.4 17 48.3562 17 37.2C17 26.0438 26.0438 17 37.2 17C48.3562 17 57.4 26.0438 57.4 37.2ZM39.0838 34.052C38.9765 34.1823 38.8674 34.3147 38.7502 34.4468C38.7502 33.8333 38.7502 33.2228 38.7412 32.6273C38.7591 32.3879 38.6933 32.3071 38.4419 32.3071H34.3152C34.0758 32.3071 33.9949 32.355 33.9949 32.6064V47.9434C33.9949 48.1828 34.0608 48.2426 34.2942 48.2426H38.6365C38.8998 48.2456 38.9656 48.1708 38.9656 47.9135V40.1656C38.9646 39.7494 38.9906 39.3336 39.0434 38.9207C39.2589 37.188 40.1477 36.3441 41.8505 36.2543C43.0984 36.1915 43.9513 36.79 44.2955 37.987C44.4654 38.6312 44.544 39.2961 44.5289 39.9621V47.9284C44.5289 48.1678 44.5738 48.2426 44.8282 48.2426C46.2646 48.2307 47.702 48.2307 49.1405 48.2426C49.3978 48.2456 49.4696 48.1768 49.4696 47.9165V39.5372C49.505 38.2148 49.359 36.8937 49.0357 35.6109C48.5479 33.8992 47.5304 32.6931 45.7768 32.1844C45.0105 31.9821 44.22 31.8864 43.4276 31.9001C42.739 31.8856 42.0544 32.0083 41.4137 32.2611C40.773 32.5138 40.189 32.8917 39.6959 33.3725C39.4713 33.5815 39.2805 33.8132 39.0838 34.052ZM30.8856 40.2883V47.8745C30.8856 48.1558 30.8168 48.2426 30.5265 48.2396C29.5668 48.2276 28.6084 48.2316 27.6504 48.2356C27.1716 48.2376 26.6929 48.2396 26.2142 48.2396C25.9838 48.2396 25.9149 48.1827 25.9149 47.9403V32.5764C25.9149 32.3639 25.9688 32.2771 26.1933 32.2921H30.5654C30.8467 32.2921 30.8826 32.3968 30.8826 32.6392C30.8806 35.1889 30.8816 37.7386 30.8856 40.2883ZM30.7919 28.8188C31.1057 28.3447 31.2717 27.7882 31.2687 27.2197C31.2624 26.4629 30.9584 25.739 30.4224 25.2047C29.8864 24.6704 29.1616 24.3686 28.4048 24.3647C27.8363 24.3636 27.2802 24.5313 26.8072 24.8465C26.3341 25.1618 25.9653 25.6105 25.7477 26.1357C25.53 26.6609 25.4732 27.2389 25.5844 27.7964C25.6957 28.3539 25.9701 28.8658 26.3727 29.2671C26.7753 29.6685 27.2881 29.9412 27.8459 30.0508C28.4038 30.1603 28.9816 30.1017 29.5061 29.8823C30.0306 29.663 30.4781 29.2928 30.7919 28.8188Z" fill="#727272"/>
</svg>
