<svg width="75" height="75" viewBox="0 0 75 75" fill="none" xmlns="http://www.w3.org/2000/svg">
<path fill-rule="evenodd" clip-rule="evenodd" d="M57.4 37.2C57.4 48.3562 48.3562 57.4 37.2 57.4C26.0438 57.4 17 48.3562 17 37.2C17 26.0438 26.0438 17 37.2 17C48.3562 17 57.4 26.0438 57.4 37.2ZM42.3383 26.8456C40.9976 26.7708 40.5966 26.7708 37.2 26.7708C33.8034 26.7708 33.4024 26.7858 32.0617 26.8456C31.2541 26.8544 30.4542 27.0033 29.6976 27.2855C29.1488 27.4959 28.6505 27.8194 28.235 28.235C27.8194 28.6505 27.4959 29.1488 27.2855 29.6976C27.0049 30.4536 26.8571 31.2524 26.8486 32.0587C26.7738 33.3994 26.7738 33.8064 26.7738 37.2C26.7738 40.5936 26.7858 40.9976 26.8486 42.3383C26.8571 43.1446 27.0049 43.9434 27.2855 44.6994C27.497 45.2479 27.8209 45.746 28.2363 46.1619C28.6516 46.5778 29.1494 46.9023 29.6976 47.1145C30.4549 47.3938 31.2545 47.5416 32.0617 47.5514C33.4024 47.6262 33.8034 47.6262 37.2 47.6262C40.5966 47.6262 40.9976 47.6142 42.3383 47.5514C43.1455 47.5416 43.945 47.3938 44.7024 47.1145C45.2506 46.9023 45.7483 46.5778 46.1637 46.1619C46.5791 45.746 46.903 45.2479 47.1145 44.6994C47.3951 43.9434 47.5429 43.1446 47.5514 42.3383C47.6262 40.9976 47.6262 40.5966 47.6262 37.2C47.6262 33.8034 47.6142 33.3994 47.5514 32.0587C47.5429 31.2524 47.3951 30.4536 47.1145 29.6976C46.9041 29.1488 46.5806 28.6505 46.165 28.235C45.7495 27.8194 45.2511 27.4959 44.7024 27.2855C43.9457 27.0033 43.1458 26.8544 42.3383 26.8456ZM31.957 24.5563C33.3096 24.4815 33.7465 24.4815 37.2 24.4815C40.6475 24.4815 41.0874 24.4964 42.443 24.5563C43.4989 24.58 44.5431 24.7824 45.5314 25.1548C46.3766 25.4811 47.1442 25.9806 47.7848 26.6212C48.4254 27.2618 48.9249 28.0294 49.2512 28.8746C49.6247 29.8615 49.8271 30.905 49.8497 31.96C49.9125 33.3156 49.9275 33.7585 49.9275 37.206C49.9275 40.6535 49.9125 41.0934 49.8497 42.449C49.8266 43.5049 49.6243 44.5493 49.2512 45.5374C48.9236 46.3818 48.4237 47.1487 47.7832 47.7892C47.1428 48.4297 46.3758 48.9296 45.5314 49.2572C44.543 49.6294 43.4989 49.8318 42.443 49.8557C41.0904 49.9185 40.6475 49.9335 37.2 49.9335C33.7525 49.9335 33.3126 49.9185 31.957 49.8557C30.9011 49.8318 29.857 49.6294 28.8686 49.2572C28.0242 48.9296 27.2572 48.4297 26.6168 47.7892C25.9763 47.1487 25.4764 46.3818 25.1488 45.5374C24.7757 44.5493 24.5734 43.5049 24.5503 42.449C24.4725 41.0964 24.4725 40.6564 24.4725 37.206C24.4725 33.7555 24.4875 33.3186 24.5503 31.96C24.5729 30.905 24.7753 29.8615 25.1488 28.8746C25.4751 28.0294 25.9746 27.2618 26.6152 26.6212C27.2558 25.9806 28.0234 25.4811 28.8686 25.1548C29.8569 24.7824 30.9011 24.58 31.957 24.5563ZM37.2 30.6671C35.9078 30.6666 34.6445 31.0492 33.5697 31.7667C32.495 32.4842 31.6572 33.5042 31.1623 34.6979C30.6674 35.8916 30.5376 37.2052 30.7894 38.4726C31.0411 39.7401 31.663 40.9044 32.5765 41.8183C33.4901 42.7323 34.6541 43.3547 35.9214 43.6071C37.1887 43.8594 38.5024 43.7302 39.6963 43.2358C40.8902 42.7414 41.9107 41.9041 42.6287 40.8297C43.3466 39.7554 43.7298 38.4922 43.7298 37.2C43.7302 36.3422 43.5616 35.4928 43.2336 34.7002C42.9057 33.9076 42.4248 33.1874 41.8184 32.5808C41.212 31.9741 40.492 31.4928 39.6996 31.1645C38.9071 30.8361 38.0578 30.6671 37.2 30.6671ZM37.2 41.4405C36.3612 41.4405 35.5412 41.1917 34.8438 40.7256C34.1464 40.2595 33.6029 39.5971 33.282 38.8221C32.9611 38.047 32.8774 37.1943 33.0412 36.3716C33.2051 35.5489 33.6092 34.7934 34.2026 34.2004C34.7959 33.6075 35.5518 33.2039 36.3746 33.0406C37.1973 32.8773 38.0501 32.9617 38.8249 33.2831C39.5997 33.6045 40.2617 34.1485 40.7273 34.8463C41.1929 35.544 41.4411 36.3641 41.4405 37.203C41.4389 38.3266 40.9914 39.4036 40.1964 40.1976C39.4013 40.9915 38.3236 41.4375 37.2 41.4375V41.4405ZM45.5164 30.4098C45.5164 31.2527 44.8331 31.936 43.9902 31.936C43.1473 31.936 42.464 31.2527 42.464 30.4098C42.464 29.5669 43.1473 28.8836 43.9902 28.8836C44.8331 28.8836 45.5164 29.5669 45.5164 30.4098Z" fill="#727272"/>
</svg>
