<svg width="105" height="157" viewBox="0 0 105 157" fill="none" xmlns="http://www.w3.org/2000/svg">
<path d="M104.719 77.839C105.16 81.3671 105.05 84.8953 104.609 88.4235C103.838 93.826 102.406 99.1182 100.203 104.08C98.1102 108.821 95.2461 113.121 91.9414 117.2C87.2047 123.154 81.5868 128.005 75.1978 131.974C72.9947 133.297 70.9017 134.841 68.4783 135.723C67.7072 135.944 66.8259 135.833 66.0548 136.495C66.4955 138.038 68.1478 139.472 66.4955 141.236C66.0548 141.126 65.7244 141.015 65.2838 140.795C66.2752 139.361 65.1736 138.259 64.733 137.046C64.6228 136.715 64.1822 136.605 63.8517 136.826C62.7502 137.377 61.5385 137.046 60.4369 137.156C60.4369 136.495 61.0979 136.385 61.3182 135.833C62.1994 135.392 63.0807 135.613 64.0721 135.392C66.0549 135.061 66.0548 134.951 64.9533 133.408C64.8431 133.187 64.9533 133.077 64.9533 132.856L64.8431 132.746C65.0634 132.195 64.6228 131.974 64.4025 131.533C64.733 131.533 65.1736 131.423 65.5041 131.423C66.7158 131.533 66.3853 130.431 66.4955 129.879C66.8259 127.454 67.597 125.138 69.2494 123.154C70.6814 121.39 72.3337 119.846 73.8759 118.303C74.3165 117.862 74.8673 117.862 75.3079 117.862C74.3165 119.295 73.1048 120.508 71.8931 121.721C70.9017 122.713 69.9103 123.485 69.4697 124.918C68.8087 125.58 68.4783 126.351 68.5885 127.454C69.0291 126.682 69.4697 126.021 69.8001 125.249C70.6814 124.697 71.0119 123.374 72.6642 123.374C70.6814 125.91 69.1392 128.336 68.3681 131.203C68.258 131.313 68.258 131.423 68.1478 131.423C68.258 131.423 68.258 131.423 68.3681 131.423C68.4783 131.313 68.4783 131.203 68.3681 131.092C69.3595 131.313 69.5798 130.32 70.2408 129.879C72.0033 128.777 73.215 127.123 73.9861 125.249C74.9775 122.713 75.4181 120.067 76.4095 117.641C75.8587 117.31 75.6384 117.751 75.3079 117.751C75.6384 116.208 76.8501 114.664 78.6126 114.003C77.8415 116.208 76.8501 118.192 77.1806 120.508C77.9517 119.405 78.3923 118.082 79.1634 116.98C80.8157 114.554 83.0188 112.79 84.8915 110.695C86.1032 109.372 86.7641 107.939 87.3149 106.395C87.8657 104.852 87.9758 103.198 89.2977 102.095C89.8485 102.426 89.7383 101.323 90.2891 101.654C91.1703 102.977 91.1703 103.087 90.1789 104.3C89.7383 104.852 89.2977 105.403 89.0774 106.175C88.8571 106.175 88.6368 106.285 88.6368 106.505C88.3063 106.505 88.1961 106.836 88.086 107.167C87.9758 107.277 87.7555 107.498 87.9758 107.608C88.1961 107.718 88.3063 107.608 88.3063 107.387C88.6368 107.277 88.7469 107.057 88.8571 106.726C89.0774 106.505 89.4078 106.395 89.0774 106.064C89.518 106.505 89.7383 106.064 89.9586 105.734C91.8313 103.749 93.7039 101.764 94.475 99.008C95.2461 99.2285 95.0258 99.89 95.0258 100.331C94.475 105.844 91.7211 110.364 88.3063 114.444C86.7641 116.318 84.7813 118.082 82.7985 119.515C79.604 121.721 78.2822 124.918 76.8501 128.226C76.74 128.446 76.8501 128.777 76.8501 128.997C77.5111 128.887 77.9517 128.556 78.2821 128.226C79.8243 127.013 81.4766 125.69 83.0188 124.367C87.9758 120.398 91.9414 115.657 95.3563 110.364C98.2203 105.844 100.423 100.882 101.745 95.7003C102.516 92.7234 103.177 89.6363 103.398 86.4389C103.618 83.5722 103.508 80.8158 103.508 77.9492C103.838 77.8389 104.279 77.839 104.719 77.839ZM80.9259 116.318C80.7056 116.539 80.4852 116.649 80.8157 116.869C80.9259 116.98 81.036 116.649 81.1462 116.428C81.3665 116.428 81.4767 116.208 81.5868 115.987C81.9173 115.767 82.4681 115.326 82.2477 115.216C81.697 114.774 81.5868 115.436 81.2564 115.767C81.1462 115.987 81.036 116.208 80.9259 116.318ZM84.0102 113.231C84.1204 113.121 84.2305 112.9 84.4509 112.79C84.6712 112.79 84.8915 112.9 85.1118 112.9C84.2306 114.554 82.7985 115.767 82.1376 117.531C81.9173 117.751 81.3665 118.082 81.697 118.413C82.0274 118.744 82.3579 118.192 82.5782 117.862C83.9001 116.759 85.2219 115.657 86.4337 114.554C87.2047 113.892 87.9759 113.231 88.4165 112.239C88.9673 111.136 89.7383 110.034 90.3993 108.931C91.0602 107.718 92.1618 106.505 92.0516 104.41C89.7383 107.167 87.3149 109.372 85.0016 111.798C84.8915 111.908 84.7813 112.018 84.7813 112.128C84.6712 112.239 84.561 112.459 84.3407 112.569C84.2305 112.68 84.0102 112.79 83.9001 113.01C83.9001 113.121 83.7899 113.231 83.7899 113.231C83.7899 113.341 83.9001 113.231 84.0102 113.231ZM79.4939 118.964C79.7142 118.744 79.9345 118.413 79.8243 117.972C80.2649 117.972 80.3751 117.751 80.3751 117.421L80.2649 117.31C79.8243 117.31 79.9345 117.751 79.8243 117.972C79.4938 118.303 79.1634 118.523 79.4939 118.964C79.0532 118.633 79.0532 119.185 78.8329 119.295C78.7228 119.515 78.5025 119.736 78.3923 119.956C78.2821 120.177 78.0618 120.508 78.3923 120.618C78.8329 120.728 78.8329 120.287 78.9431 119.956C78.9431 119.736 78.9431 119.515 78.9431 119.295C79.1634 119.295 79.2735 119.185 79.4939 118.964ZM76.8501 121.39C76.9603 121.059 77.1806 120.618 76.8501 120.618C76.5197 120.618 76.5197 121.059 76.6298 121.39C75.8587 123.154 75.1978 125.028 74.3165 126.792C73.8759 127.674 73.4353 128.667 72.6642 129.328C71.7829 130.1 70.7915 130.651 69.9103 131.423C69.0291 132.195 68.0376 132.856 67.597 134.069C68.1478 134.29 68.4783 134.179 68.8087 133.959C70.1306 132.856 71.6728 132.085 73.1048 131.313C74.647 130.541 75.7486 129.659 75.7486 127.564C75.7486 125.469 76.5197 123.374 76.8501 121.39ZM82.468 114.554C82.3579 114.664 82.3579 114.664 82.3579 114.664L82.468 114.775L82.5782 114.664C82.5782 114.664 82.5782 114.554 82.468 114.554ZM92.382 104.19L92.2719 104.3L92.382 104.41L92.4922 104.3C92.4922 104.3 92.382 104.3 92.382 104.19Z" fill="#EE0000"/>
<path d="M39.287 32.1932C37.0839 28.4445 36.423 24.4754 37.4144 20.2857C38.6261 14.8832 43.9136 11.2447 49.201 11.2447C50.1924 11.2447 51.0737 11.355 51.9549 10.914C51.9549 10.1422 51.5143 9.48064 51.8448 8.70885C52.2854 8.70885 52.726 8.70885 53.2768 8.70885C53.2768 10.0319 53.9377 10.4729 55.2596 10.1422C55.3698 10.8037 54.5987 10.8037 54.4885 11.2447C54.3783 13.4498 55.7002 14.8832 57.9033 14.9934C58.4541 14.9934 59.1151 14.8832 59.776 14.7729C60.4369 14.6626 61.0978 14.7729 61.6486 15.5447C59.2252 15.4344 57.0221 16.096 54.9291 14.8832C54.158 17.0883 54.7088 18.3011 56.8018 18.6318C57.7932 18.8523 58.8947 18.7421 59.8861 18.5216C61.208 18.1908 62.5299 18.3011 63.8517 18.4113C63.7416 19.2934 64.733 19.4036 65.0634 19.9549C62.9705 20.1754 60.8775 20.1754 58.7846 20.3959C55.4799 20.7267 54.0479 20.0652 52.726 17.0883C49.7518 17.9703 47.2182 20.8369 46.0065 23.4831C45.2354 25.2471 45.2354 27.2318 45.5659 29.1061C45.7862 30.3189 46.1167 30.3189 47.3284 30.0984C49.7518 29.6574 52.2854 29.1061 54.7088 28.9958C55.9205 28.9958 56.8018 28.6651 57.9033 27.8933C60.9877 25.7984 64.8431 26.46 66.7158 29.7676C66.165 29.7676 65.8345 30.0984 65.8345 30.6497C65.1736 30.4291 64.8431 29.7676 64.2923 29.3266C62.1994 27.8933 60.5471 27.8933 58.3439 29.5471C58.7846 30.6497 59.9963 30.6497 60.6572 31.4215C62.5299 33.0753 62.64 34.5086 60.6572 35.8317C58.3439 37.3752 55.7002 37.265 53.0565 37.0445C51.0737 36.824 49.3112 35.8317 47.6589 34.6189C44.4643 32.3035 43.2526 29.2164 43.9135 25.3574C44.6846 20.7267 47.769 17.9703 51.6244 15.8755C52.726 15.2139 53.2768 14.3319 53.1666 13.0088C53.0565 12.4575 52.8362 12.3473 52.3955 12.3473C50.1924 12.237 47.9893 12.237 45.8964 12.8985C40.3886 14.5524 37.1941 20.7267 38.7362 26.2394C39.287 28.5548 40.2784 30.6497 41.1597 32.8548C40.4987 33.0753 40.1683 31.9727 39.287 32.1932ZM46.7776 32.083C47.6588 32.7445 48.0995 33.0753 48.5401 33.5163C51.8448 36.3829 55.5901 36.3829 59.4455 35.1701C60.7674 34.7291 60.8775 33.7368 59.6658 32.965C58.6744 32.3035 57.5729 31.9727 56.8018 30.9804C56.6916 30.8702 56.4713 30.7599 56.251 30.7599C53.2768 30.6497 50.1924 30.9804 46.7776 32.083Z" fill="#EE0000"/>
<path d="M20.3402 127.123C18.7981 126.241 17.8067 124.918 16.595 123.705C11.4176 118.523 7.45203 112.459 4.47783 105.734C2.27472 100.552 0.622389 95.149 0.181766 89.526C-0.258857 83.6825 0.0715904 77.839 1.50361 72.1057C1.94424 70.2313 2.16455 68.357 3.15595 66.7032C3.59657 66.7032 4.14737 66.7032 4.58799 66.7032C4.36768 67.916 3.70676 69.0185 4.69816 70.1211C5.68956 71.2236 6.90126 72.2159 8.44344 72.3262C8.77391 72.3262 9.32468 72.1057 9.43484 72.8775C7.01141 74.0903 5.13877 72.8775 3.37627 71.1134C2.60518 72.9877 2.49502 74.9723 2.05439 76.8466C1.94424 77.6184 2.27472 77.8389 2.8255 78.0595C4.25752 78.8312 5.68954 79.162 7.67234 78.9415C5.57938 81.0364 3.70675 79.8235 1.8341 79.2723C1.50363 80.0441 1.61378 80.7056 1.61378 81.3671C1.61378 83.903 2.2747 84.8953 4.80829 85.4466C5.57938 85.6671 6.35048 85.8876 7.23172 85.6671C7.67235 85.5568 8.22311 85.5568 8.66373 86.2183C6.24031 87.8722 4.03722 86.8799 1.8341 85.8876C1.50363 87.8722 1.94424 89.6363 2.16456 91.2901C2.27471 92.2824 2.82548 92.2824 3.70673 92.5029C5.24891 92.7234 6.7911 92.8337 8.33328 93.0542C8.66375 93.0542 8.88405 93.385 8.66373 93.6055C8.55358 93.826 8.11298 94.1567 8.00283 93.9362C7.34189 92.9439 6.68095 93.6055 6.13017 93.9362C5.57939 94.267 5.02862 94.0465 4.58799 93.826C4.03722 93.6055 3.48643 93.1644 2.8255 93.3849C2.8255 93.4952 2.60518 93.6055 2.71533 93.7157C3.48642 98.2362 4.91846 102.426 6.79111 106.616C7.12157 107.277 7.7825 107.828 8.7739 107.939C10.2059 108.049 11.6379 108.269 13.07 108.38C13.6207 108.38 14.502 108.049 14.6122 108.821C14.7223 109.592 13.7309 109.482 13.1801 109.703C12.7395 109.813 12.409 109.813 11.9684 109.923C10.8668 110.144 9.87545 109.593 8.7739 109.813C9.10436 111.246 10.0958 112.459 10.7567 113.672C11.8583 115.657 13.1801 117.09 15.6036 117.31C16.4848 117.421 17.2559 117.972 18.2473 117.531C18.5778 117.421 19.1285 117.31 19.6793 117.751C18.4676 119.295 16.595 118.523 14.9426 118.854C15.4934 120.508 16.9254 121.39 17.9168 122.492C19.6793 124.587 21.9926 125.359 24.7465 124.587C25.2972 124.367 26.0684 124.256 26.7293 124.918C25.1871 126.021 23.6449 126.131 21.9926 126.131C21.2215 126.462 20.6707 126.572 20.3402 127.123Z" fill="#EE0000"/>
<path d="M60.1064 156.23C56.0307 156.782 51.9549 156.451 47.8792 155.569C43.2526 154.577 38.5159 153.805 33.9995 152.702C30.1441 151.71 26.2886 150.828 22.5433 149.505C20.6707 148.843 18.9082 147.851 17.6965 146.528C15.7137 144.213 15.4934 142.559 17.6965 140.464C17.9168 140.243 18.027 140.023 18.1371 139.802C18.7981 139.913 19.459 139.692 20.0098 139.361C21.7723 140.023 23.5347 140.795 25.2972 141.456C28.2714 142.449 31.2456 143.22 34.2199 144.323C37.855 145.646 41.6003 146.308 45.4557 146.969C46.4471 147.19 47.4385 147.3 48.3198 147.631C48.3198 148.072 48.3198 148.513 48.3198 148.954C46.337 148.623 44.244 148.402 42.3714 147.961C38.8464 147.19 35.2113 146.418 31.6863 145.425C27.8308 144.323 23.9754 143 20.3402 141.126C19.3488 140.574 18.9082 141.236 18.5777 141.787C18.1371 142.559 18.6879 143.11 19.459 143.331C22.984 144.323 26.1785 146.308 29.5933 147.3C30.4745 147.52 31.3558 147.851 32.0167 148.733C31.2456 149.064 30.6949 148.843 30.1441 148.623C26.9496 147.52 23.7551 146.418 20.5606 145.315C20.2301 145.205 19.7895 144.984 19.459 145.425C19.6793 146.308 20.4504 146.638 21.1113 147.079C22.984 148.182 25.1871 148.733 27.2801 149.284C31.0254 150.277 34.7706 151.269 38.5159 151.931C42.1511 152.592 45.676 153.474 49.201 154.136C52.5057 154.797 55.7002 155.018 59.115 154.797C58.6744 155.9 59.776 155.789 60.1064 156.23ZM18.3574 144.213C18.3574 144.323 18.027 143.992 18.1371 144.323C18.1371 144.433 18.3574 144.323 18.3574 144.213C18.027 144.433 18.1371 144.654 18.3574 144.984C18.5778 145.205 18.7981 145.536 19.0184 145.205C19.2387 144.984 18.9082 144.764 18.6879 144.764C18.5777 144.543 18.4676 144.433 18.3574 144.213Z" fill="#EE0000"/>
<path d="M85.1118 12.4575C85.3321 13.4498 84.4509 14.1114 84.3407 15.1037C85.5524 15.3242 86.654 15.4344 87.8657 15.6549C89.7383 15.9857 91.1704 16.978 92.1618 18.4113C93.4836 20.1754 93.4836 21.1677 92.1618 22.9318C91.611 23.5933 91.611 23.9241 92.2719 24.5856C93.2633 25.4677 94.3649 26.3497 95.0258 27.5625C96.8985 30.6497 97.5594 33.6265 96.1274 37.1547C95.3563 38.9188 94.6953 40.5726 93.4836 42.1162C92.9328 42.7777 92.1618 43.2188 91.5008 43.8803C91.8313 44.3213 92.1617 44.8726 92.4922 45.3136C91.8313 45.3136 91.2805 45.3136 90.6196 45.3136C90.3993 45.0931 90.1789 44.7624 89.8485 45.0931C89.1875 45.7546 88.6368 46.4162 87.9758 47.0777C87.425 47.0777 86.9844 46.9675 86.4336 46.9675C86.4336 46.747 86.4336 46.4162 86.4336 46.1957C86.8743 46.0854 87.6454 46.4162 87.7555 45.7547C87.8657 45.0931 87.2047 44.8726 86.5438 44.7624C86.9844 44.4316 86.7641 43.5496 87.6454 43.6598C87.9758 43.6598 87.6454 44.6521 88.4165 44.1008C89.1876 43.5495 89.8485 42.888 90.6196 42.3367C93.9243 40.3521 95.136 37.1547 95.3563 33.6266C95.5766 29.7676 93.2633 27.2317 90.2891 25.1369C89.4078 26.7907 89.4079 26.7907 90.6196 27.8933C91.0602 28.3343 91.5008 28.7753 91.9414 29.2164C93.8141 31.5317 94.2547 35.1701 92.7125 37.1547C91.2805 39.0291 89.7383 40.9034 88.6368 42.9983C88.4164 43.329 88.4165 43.8803 87.7555 43.6598C87.4251 43.1085 87.8657 42.6675 88.086 42.2265C89.4079 40.1316 90.7297 38.147 92.1618 36.1624C92.4922 35.7214 92.8227 35.2804 92.7125 34.7291C92.4922 32.7445 92.0516 30.9804 90.6196 29.5471C89.8485 28.7753 89.0774 28.5548 88.086 28.9958C87.8657 28.5548 87.2048 28.3343 87.2048 27.6728C87.5352 27.2318 87.8657 26.6805 87.7555 25.9087C84.4509 25.4677 81.9173 23.4831 79.2735 21.4985C80.4852 21.3882 81.3665 21.9395 82.1376 22.4908C83.3493 23.4831 84.7813 24.0343 86.2134 24.6959C86.8743 25.0266 87.6454 25.2471 88.3063 24.5856C88.9672 23.8138 89.7383 23.1523 90.3993 22.3805C90.7297 22.0497 90.7297 21.6087 90.2891 21.3882H90.1789C90.0688 21.719 90.179 22.0498 90.5094 21.9395C90.95 21.9395 91.1703 21.4985 91.2805 21.0575C91.611 19.9549 91.0602 18.9626 89.7383 18.0806C88.3063 17.0883 86.7641 16.8677 85.1118 16.8677C83.7899 16.7575 82.4681 16.978 81.2563 16.7575C77.8415 16.2062 74.7571 14.5524 71.5626 13.4498C71.122 13.3396 70.7915 13.1191 71.0118 12.5678C71.122 12.1268 71.5626 11.9063 72.0032 12.0165C72.554 12.1268 73.1048 12.237 73.5455 12.4575C74.9775 13.0088 76.4095 13.5601 77.9517 14.1114C79.7142 14.9934 80.0446 14.8832 81.036 13.6703C81.3665 13.2293 81.3665 12.678 81.9173 12.3473C82.0274 12.4575 82.2478 12.5678 82.3579 12.6781C82.1376 13.2293 81.8071 13.7806 81.5868 14.3319C81.4766 14.5524 81.2563 14.7729 81.5868 14.9934C81.9173 15.2139 82.1376 14.9934 82.3579 14.7729C83.0188 14.0011 83.3493 13.1191 83.6798 12.1268C84.1204 12.237 84.561 12.3473 85.1118 12.4575Z" fill="#EE0000"/>
<path d="M4.69816 66.7032C4.25753 66.7032 3.70673 66.7032 3.26611 66.7032C4.14736 63.3955 5.68956 60.3084 7.45205 57.4417C9.54501 54.1341 11.7481 50.8264 14.6122 48.07C17.8067 45.0931 20.891 41.8957 24.7465 39.6906C27.2801 38.2573 29.7035 36.7137 32.2371 35.3907C33.2285 34.8394 34.33 34.3984 35.4316 34.1778C35.6519 34.6189 35.8722 35.0599 35.8722 35.6112C34.4402 35.8317 33.3386 36.9342 31.7964 37.3752C33.0081 38.8086 34.7707 38.3675 36.0925 39.3598C34.1097 40.1316 33.3386 40.1316 31.6863 38.8085C30.6949 38.0368 30.0339 38.2573 29.2629 38.6983C28.3816 39.1393 27.6105 39.8008 26.6191 40.4624C28.0512 41.3444 29.373 42.006 30.9152 41.6752C31.2457 41.5649 31.6863 41.565 31.6863 42.006C31.7965 42.3367 31.466 42.447 31.2456 42.5573C29.8136 43.4393 28.1613 43.329 26.8394 42.3367C25.2972 41.1239 25.1871 41.1239 23.6449 42.2265C22.984 42.6675 22.2129 43.2188 21.7723 43.8803C22.984 45.4239 24.6363 45.5341 26.2886 45.7547C25.9582 46.747 25.1871 46.5264 24.5262 46.6367C22.8738 46.8572 21.6621 45.7546 20.5606 44.5418C20.2301 44.9829 20.0098 45.2034 19.7895 45.4239C18.2473 46.7469 18.3575 47.5187 20.0098 48.6213C20.4504 48.9521 21.0012 49.0623 21.552 49.1726C22.1027 49.2828 22.7637 49.2828 23.5347 49.3931C22.5433 50.7161 21.3316 50.3854 20.3402 50.2751C18.9082 50.1649 18.027 49.1726 17.4762 47.7392C16.5949 48.07 16.2645 48.8418 15.7137 49.2828C14.502 50.4956 14.502 50.8264 15.4934 52.1495C16.1543 52.9212 16.9254 53.5828 18.027 53.5828C18.3574 53.5828 18.7981 53.4725 19.2387 53.9135C18.7981 54.7956 18.027 54.7956 17.1457 54.5751C15.8239 54.2443 14.8325 53.4725 14.1715 52.37C13.9512 51.929 13.6207 51.7084 13.1801 52.0392C11.5278 53.1417 11.3075 54.4648 12.4091 56.1186C12.5192 56.3392 12.7395 56.5597 12.8497 56.7802C12.6294 57.2212 12.2989 57.552 11.8583 57.6622C11.1973 57.2212 10.8669 56.4494 10.4262 55.6776C8.88405 57.8827 7.56218 60.0879 6.57078 62.4032C8.33327 63.3955 9.65515 64.9391 11.7481 65.0493C11.8583 65.0493 12.0786 65.3801 12.0786 65.4904C12.0786 65.6006 11.9684 65.9314 11.7481 65.9314C10.7567 66.1519 9.87546 66.3724 8.88406 65.8211C7.7825 65.2698 7.01141 64.4981 6.13017 63.5058C5.46923 64.7186 5.46925 65.9314 4.69816 66.7032Z" fill="#EE0000"/>
<path d="M35.8722 35.7214C35.8722 35.1701 35.6519 34.7291 35.4316 34.2881C36.2027 33.6266 37.1941 33.5163 38.1855 33.1856C38.7363 32.9651 39.287 32.965 39.287 32.1932C40.1683 31.9727 40.4987 32.965 41.2698 32.965C42.0409 33.8471 42.0409 34.8394 42.0409 35.8317C42.0409 36.824 42.0409 37.706 42.4815 38.5881C43.2526 40.3522 44.905 41.1239 46.4472 41.7855C49.4214 43.1085 52.6159 43.1085 55.8104 43.2188C61.0979 43.329 65.7244 45.2034 69.9103 48.2905C72.4439 50.1649 75.1978 51.3777 78.0618 52.37C80.1548 53.0315 81.9173 52.7007 83.4595 50.9366C84.3407 49.8341 85.1118 48.6213 85.6626 47.2982C85.8829 47.2982 85.993 47.0777 85.993 46.8572C86.1032 46.8572 86.2133 46.8572 86.3235 46.8572C86.8743 46.8572 87.3149 46.9675 87.8657 46.9675C87.2048 48.2905 86.4337 49.6136 85.5524 50.8264C84.2306 52.5905 82.7985 54.1341 80.4853 54.1341C76.9603 54.1341 73.7657 52.9212 70.9017 51.0469C69.3595 50.0546 67.9275 48.7316 66.2752 47.8495C62.7502 45.9752 59.115 44.6521 55.0393 44.6521C51.8448 44.6521 48.6503 44.4316 45.676 43.1085C42.9222 41.7855 40.7191 40.1316 40.4988 36.7137C40.2784 33.9573 40.9393 33.5163 37.3042 34.8394C37.0839 34.9496 36.9738 34.9496 36.9738 35.2804C37.0839 36.0522 38.4058 36.2727 38.4058 37.265C37.1941 37.265 36.5331 36.4932 35.8722 35.7214Z" fill="#EE0000"/>
<path d="M65.3939 140.685C65.8345 140.795 66.165 140.905 66.6056 141.126C66.4955 141.677 66.7158 142.008 66.9361 142.449C67.7072 143.331 67.9275 144.323 68.0377 145.646C68.1478 147.741 67.2666 148.954 65.5041 149.725C65.1736 149.836 64.9533 150.056 64.6228 150.277C63.9619 149.946 63.301 149.505 62.5299 150.166C61.9791 150.166 61.4283 150.166 60.8776 150.166C60.8776 149.725 60.8776 149.174 60.8776 148.733C62.1994 148.733 63.4111 148.623 64.733 148.182C66.0549 147.741 66.6056 146.638 66.3853 145.315C66.2752 144.433 65.9447 143.551 65.1736 143C64.2924 143.551 63.1908 143.661 62.0892 143.882C60.5471 144.213 59.0049 143.882 57.4627 143.882C53.4971 143.772 49.5315 142.89 45.676 142.228C41.6003 141.567 37.6347 140.464 33.6691 139.361C32.0168 138.92 30.1441 138.81 28.6019 137.928C28.6019 137.487 28.6019 136.936 28.6019 136.495C29.7035 137.377 31.0254 136.936 32.2371 137.267C34.5503 137.928 36.9738 138.479 39.287 139.031C43.8034 140.133 48.3198 141.015 52.8362 141.567C54.819 141.787 56.9119 142.228 58.8947 142.449C61.208 142.559 63.5213 142.338 65.3939 140.685Z" fill="#EE0000"/>
<path d="M20.3402 127.123C20.6707 126.572 21.3316 126.462 21.8824 126.241C22.1027 127.123 22.984 127.123 23.5347 127.674C23.8652 128.005 24.6363 128.005 24.7465 128.667C24.3058 128.556 23.8652 128.446 23.4246 128.446C22.7637 128.336 22.5434 128.667 22.5434 129.218C22.5434 129.659 21.552 129.549 21.9926 130.21C22.2129 130.431 22.5434 130.872 22.7637 130.651C23.0941 130.321 23.9754 130.321 23.7551 129.438C24.0855 129.218 24.416 128.887 24.8566 128.667C25.1871 128.226 25.4074 128.446 25.7379 128.667C27.5004 129.99 29.4832 130.651 31.7964 130.21C32.4574 130.1 33.2285 129.769 33.8894 130.1C34.1097 130.982 32.898 130.541 32.7879 131.313C39.3972 132.856 46.0065 133.959 52.6159 135.282C52.6159 135.833 52.6159 136.274 52.6159 136.826C52.1753 136.715 51.8448 136.605 51.4042 136.605C45.0151 135.723 38.7362 134.51 32.4574 132.967C30.6949 132.526 28.9324 132.085 27.1699 131.533C26.7293 131.423 26.2887 131.423 26.0683 131.864C25.7379 132.415 26.3988 132.526 26.7293 132.746C28.6019 133.628 30.6949 134.29 32.6777 134.841C33.1183 134.951 33.6691 135.061 33.8894 135.833C33.2285 135.833 32.6777 135.833 32.1269 135.723C31.3558 135.613 30.6949 135.282 30.034 135.061C28.8222 134.731 27.6105 134.4 26.509 133.959C25.7379 133.628 26.0684 134.731 25.6277 134.62C24.9668 134.4 25.2972 133.628 24.7465 133.297C24.0855 132.967 23.5348 132.636 22.8738 132.415C22.4332 132.305 22.7637 133.408 22.1027 133.187C21.7723 132.746 21.9926 132.305 21.8824 131.754C21.7723 130.982 21.552 130.431 20.5606 130.651C20.3403 130.321 20.1199 130.32 19.7895 130.32L19.6793 130.21C19.6793 129.769 20.0098 129.549 20.3402 129.328C21.4418 128.446 21.4418 128.446 20.3402 127.123ZM23.5347 131.313C23.5347 131.644 23.7551 131.644 23.8652 131.754C24.3059 131.974 24.6363 132.415 25.077 131.864C25.1871 131.754 25.4074 131.533 25.1871 131.313C24.8566 130.872 24.416 130.872 23.8652 130.982C23.8652 130.982 23.7551 131.203 23.5347 131.313Z" fill="#EE0000"/>
<path d="M64.5127 8.8191C64.2924 7.05502 64.6228 5.62168 65.7244 4.18836C67.9275 1.54224 70.6814 0.219185 73.9861 0.549951C75.6384 0.770462 77.5111 0.880697 79.0532 1.87299C79.1634 1.98325 79.2735 2.09353 79.4939 2.31404C78.9431 2.31404 78.2821 2.31402 78.2821 3.08581C77.4009 3.08581 76.6298 2.64478 75.7486 2.42427C71.5627 1.10121 67.8174 2.97557 66.2752 6.61399C65.8346 7.8268 65.7244 8.92934 66.2752 10.1421C66.6056 10.9139 67.0463 11.2447 67.8174 10.9139C67.9275 7.16526 68.8087 5.95246 72.0033 4.96016C72.1134 5.84221 71.4525 6.17295 70.7916 6.28321C70.0205 6.50372 70.3509 6.94474 70.5712 7.38576C70.4611 7.71653 70.3509 8.04731 70.1306 8.26782C69.1392 8.92936 68.9189 9.92164 69.4697 10.8037C69.9103 11.6857 69.3595 11.796 68.9189 12.1268C68.4783 12.4575 68.0376 12.3473 67.597 12.3473C66.0548 12.1267 64.8432 11.4652 63.6314 10.4729C60.9877 8.48834 58.344 6.28322 54.5987 7.60629C54.158 7.38577 53.6073 7.27552 53.1667 7.05501C55.0393 5.40118 57.7932 5.18067 60.3268 6.50373C61.5385 7.16526 62.7502 7.93705 63.9619 8.70884C64.0721 9.03961 64.2924 9.37037 64.6228 9.26012C64.733 9.37037 64.733 9.03961 64.5127 8.8191Z" fill="#EE0000"/>
<path d="M17.3661 139.141C14.9426 137.046 15.2731 134.951 18.2473 133.628C18.3575 134.069 18.3575 134.51 18.4676 134.951C19.3489 136.054 21.6621 137.487 22.984 137.928C25.5176 138.81 27.941 139.692 30.3644 140.685C30.4746 140.685 30.4746 140.905 30.4746 141.015C30.2543 141.346 29.9238 141.236 29.5933 141.236C27.5004 140.685 25.4074 140.243 23.3145 139.472C21.2215 138.7 18.9082 138.038 17.5864 135.833C17.1457 136.826 17.5864 137.377 18.2473 138.038C18.1371 138.479 17.9168 138.92 17.3661 139.141Z" fill="#EE0000"/>
<path d="M98.6609 55.6776C100.534 59.5366 102.186 63.3955 103.067 67.5852C102.516 67.5852 102.076 67.5852 101.525 67.5852C100.754 65.4903 100.203 63.175 99.4321 61.0801C98.7711 59.2058 97.6696 57.552 97.1188 55.6776C97.6696 55.6776 98.2203 55.6776 98.6609 55.6776Z" fill="#EE0000"/>
<path d="M62.64 150.056C63.301 149.395 63.9619 149.836 64.733 150.166C64.733 150.387 64.6228 150.718 64.6228 150.938C64.6228 154.356 63.6315 155.459 60.2166 156.23C59.8862 155.789 58.7846 155.9 59.0049 154.797C59.2252 154.687 59.3354 154.687 59.5557 154.577C62.3096 154.025 63.0807 153.033 62.7502 150.277C62.64 150.277 62.64 150.166 62.64 150.056Z" fill="#EE0000"/>
<path d="M101.635 67.5852C102.186 67.5852 102.627 67.5852 103.177 67.5852C103.948 70.3416 104.499 73.2082 104.719 76.0749C104.719 76.6262 104.94 77.2877 104.719 77.839C104.279 77.839 103.728 77.839 103.287 77.839C103.067 77.2877 103.067 76.7364 103.067 76.2954C102.847 73.3185 102.406 70.3416 101.635 67.5852Z" fill="#EE0000"/>
<path d="M90.5094 45.3136C91.1704 45.3136 91.7211 45.3136 92.382 45.3136C94.2547 47.629 95.6867 50.1649 97.2289 52.7007C96.6781 52.811 96.1273 52.7007 95.7969 53.252C94.1445 50.6059 92.4922 47.8495 90.5094 45.3136Z" fill="#EE0000"/>
<path d="M18.4676 134.951C18.3575 134.51 18.3575 134.069 18.2473 133.628C19.0184 133.408 19.1286 132.856 19.0184 132.085C19.459 132.085 19.8996 132.085 20.2301 132.085C20.6707 132.526 20.7809 133.408 21.7723 133.297C21.552 133.849 21.9926 134.069 22.3231 134.179C23.3145 134.62 24.3058 135.061 25.1871 135.503C25.2972 136.054 25.7379 136.495 25.6277 137.046C23.8652 136.826 22.3231 136.054 21.0012 135.061C20.1199 134.4 19.3489 134.29 18.4676 134.951Z" fill="#EE0000"/>
<path d="M85.1118 12.4575C84.561 12.3473 84.0102 12.237 83.5696 12.0165C84.0102 10.1422 83.3493 8.37811 82.6884 6.72428C83.0188 6.17301 83.6797 6.28324 84.1204 6.28324C85.3321 8.15758 85.7727 10.2524 85.1118 12.4575Z" fill="#EE0000"/>
<path d="M84.1204 6.28324C83.5696 6.39349 83.0188 6.28326 82.6884 6.72428C81.697 6.06275 81.3665 4.84991 80.2649 4.18838C80.4852 3.6371 81.2563 3.96789 81.4766 3.41661C82.6884 4.07814 83.4594 5.07043 84.1204 6.28324Z" fill="#EE0000"/>
<path d="M95.7969 53.252C96.1273 52.7007 96.6781 52.811 97.2289 52.7007C97.6696 53.693 98.2203 54.6853 98.6609 55.6776C98.1102 55.6776 97.6696 55.6776 97.1188 55.6776C96.4578 54.9058 96.2375 54.0238 95.7969 53.252Z" fill="#EE0000"/>
<path d="M81.4766 3.41661C81.2563 3.96789 80.4852 3.74736 80.2649 4.18838C79.4938 3.85761 78.8329 3.52684 78.172 2.97557C78.172 2.09353 78.8329 2.2038 79.3837 2.2038C80.2649 2.42431 80.8157 2.97559 81.4766 3.41661Z" fill="#EE0000"/>
<path d="M52.9463 7.05502C53.387 7.27554 53.9377 7.38579 54.3783 7.6063C54.0479 8.04732 53.8276 8.59861 53.2768 8.81912C52.8362 8.81912 52.3956 8.81912 51.8448 8.81912C52.0651 8.04733 52.2854 7.49605 52.9463 7.05502Z" fill="#EE0000"/>
<path d="M17.3661 139.141C17.9168 138.92 18.1371 138.59 18.2473 138.038C18.7981 138.59 19.3488 139.031 19.8996 139.582C19.3488 139.913 18.6879 140.133 18.027 140.023C17.8067 139.582 17.5864 139.361 17.3661 139.141Z" fill="#EE0000"/>
<path d="M20.2301 132.085C19.7895 132.085 19.3489 132.085 19.0184 132.085C19.0184 131.423 18.7981 130.762 19.3488 130.32L19.459 130.431C19.459 130.872 19.6793 131.203 20.1199 131.203C20.2301 131.533 20.2301 131.754 20.2301 132.085Z" fill="#EE0000"/>
<path d="M60.5471 136.936C57.7932 137.267 55.0393 137.267 52.2854 136.826C52.2854 136.274 52.2854 135.833 52.2854 135.282C53.3869 135.172 54.4885 135.392 55.5901 135.723C55.2596 136.385 54.3783 135.833 53.8276 136.495C54.819 136.495 55.7002 136.495 56.5815 136.495C57.1322 136.495 57.4627 136.385 57.5729 135.833C58.7846 135.392 60.1065 135.723 61.3182 135.613C61.208 136.164 60.4369 136.274 60.5471 136.936Z" fill="#EE0000"/>
<path d="M64.4025 131.313C63.8517 131.203 63.4111 130.872 62.9705 130.541C62.9705 129.549 62.3095 129.659 61.6486 129.549C61.7588 129.328 61.9791 128.997 61.6486 128.887C61.3181 128.667 60.9877 128.887 60.8775 129.218C60.5471 129.218 60.3267 129.108 60.1064 128.777C60.1064 128.446 59.4455 128.226 59.8861 127.674C62.0892 128.226 64.1822 129.108 65.5041 131.203C65.1736 131.313 64.733 131.313 64.4025 131.313Z" fill="#EE0000"/>
<path d="M60.7674 132.526C60.5471 132.526 60.2166 132.526 60.1064 132.195C60.1064 131.864 60.2166 131.754 60.5471 131.644C62.0892 131.423 63.5213 131.644 64.733 132.415C64.733 132.526 64.8431 132.526 64.8431 132.526C64.8431 132.856 64.733 133.187 64.2924 133.077C63.3009 132.746 62.1994 132.746 61.208 132.526C61.0979 132.636 60.9877 132.636 60.7674 132.526Z" fill="#EE0000"/>
<path d="M78.9431 119.515C78.9431 119.736 78.9431 119.956 78.9431 120.177C78.9431 120.508 78.9431 120.949 78.3923 120.839C78.0618 120.728 78.2821 120.398 78.3923 120.177C78.5025 119.956 78.6126 119.736 78.8329 119.515H78.9431Z" fill="#EE0000"/>
<path d="M85.0016 111.908C85.1118 112.018 85.2219 112.128 85.2219 112.349C85.1118 112.349 85.0016 112.459 84.8915 112.459C84.7813 112.459 84.7813 112.349 84.6712 112.349C84.7813 112.128 84.8915 112.018 85.0016 111.908Z" fill="#EE0000"/>
<path d="M85.1118 112.9C84.8915 112.9 84.6712 112.79 84.4509 112.79L84.3407 112.68C84.4509 112.569 84.561 112.349 84.7813 112.239C84.8915 112.239 84.8915 112.349 85.0016 112.349C84.8915 112.569 85.0016 112.68 85.1118 112.9Z" fill="#EE0000"/>
<path d="M84.3407 112.79C84.2306 112.9 84.1204 113.121 83.9001 113.231L83.7899 113.121C84.0102 113.01 84.1204 112.79 84.3407 112.79Z" fill="#EE0000"/>
<path d="M84.0102 113.231C83.9001 113.231 83.7899 113.341 83.7899 113.341C83.7899 113.231 83.9001 113.231 83.9001 113.121L84.0102 113.231Z" fill="#EE0000"/>
<path d="M89.1875 101.213C89.1875 101.323 89.1875 101.434 89.0774 101.654C88.9672 101.544 88.8571 101.434 88.8571 101.213H89.1875Z" fill="#EE0000"/>
<path d="M66.826 30.0984C67.3767 29.5471 67.9275 29.6574 68.4783 30.0984C69.5799 30.8702 70.6814 31.0907 72.0033 30.8702C73.4353 30.5394 74.7572 31.0907 75.6384 32.083C76.2994 32.8548 77.0705 33.1856 77.9517 33.6266C80.3751 34.6189 82.6884 35.8317 84.7813 37.5958C84.7813 38.0368 84.7813 38.4778 84.7813 38.9188C82.2478 37.5958 79.9345 35.8317 77.0704 35.0599C76.6298 36.4932 75.3079 36.824 73.8759 37.0445C70.7916 37.4855 70.9017 37.5958 72.554 40.0214C72.6642 40.2419 72.7744 40.3521 72.8845 40.4624C72.7744 41.0137 72.9947 41.7855 72.4439 42.2265C71.4525 41.4547 70.7916 40.4624 70.2408 39.3598C69.1392 37.3752 70.0205 35.7214 72.2236 35.6112C72.9947 35.6112 73.7658 35.2804 74.647 35.2804C75.4181 35.1701 75.4181 34.6189 75.1978 34.0676C74.7572 33.0753 73.7658 32.6343 72.7744 32.4138C71.6728 32.1932 70.6814 32.3035 69.5799 32.7445C69.3596 32.524 69.0291 32.3035 68.6986 32.4138C67.7072 32.6343 66.9361 32.1932 66.165 31.642C66.0549 31.5317 66.0549 31.4215 65.9447 31.3112C65.8345 30.4292 66.2752 30.2086 66.826 30.0984Z" fill="#EE0000"/>
<path d="M63.8517 18.7421C67.9275 18.6318 71.7829 19.5139 75.4181 21.2779C78.0618 22.601 80.7056 24.0343 82.9087 26.0189C84.1204 27.1215 85.4423 28.1138 87.2048 27.6728C87.0946 28.3343 87.7555 28.4446 88.086 28.9958C87.3149 29.8779 88.4165 30.5394 88.4165 31.4214C87.9758 31.7522 87.7555 32.3035 87.2048 32.3035C86.3235 30.4291 85.0016 29.3266 83.129 28.4445C81.5868 27.6728 80.2649 26.2394 78.7227 25.2471C75.3079 23.042 71.5626 21.3882 67.4869 20.9472C66.7158 20.8369 65.9447 20.6164 65.0634 20.3959C64.6228 19.7344 63.7416 19.6241 63.8517 18.7421Z" fill="#EE0000"/>
<path d="M60.9877 150.056C57.9033 150.387 54.9291 150.387 51.9549 149.615C50.7432 149.284 49.3112 149.836 48.2097 148.843C48.2097 148.402 48.2097 147.961 48.2097 147.52C52.3956 148.072 56.6916 148.402 60.8776 148.513C60.9877 149.064 60.9877 149.615 60.9877 150.056Z" fill="#EE0000"/>
<path d="M90.1789 21.4985C89.1875 21.3882 88.1961 21.1677 87.425 20.0651C88.6368 19.9549 89.4079 20.2857 90.1789 20.7267C90.5094 20.9472 90.7297 21.278 90.1789 21.4985Z" fill="#EE0000"/>
<path d="M86.5438 44.7624C87.0946 44.8726 87.8657 45.0931 87.7555 45.7547C87.6454 46.4162 86.8743 45.9752 86.4336 46.1957C86.4336 45.8649 86.3235 45.5341 86.3235 45.2034C86.5438 45.2034 86.654 45.0931 86.5438 44.7624Z" fill="#EE0000"/>
<path d="M12.8497 56.8904C13.8411 57.3315 14.8325 57.993 16.2645 57.6622C15.2731 58.9853 14.6121 59.2058 13.6207 58.7648C12.9598 58.5443 12.4091 58.1032 11.8583 57.7725C12.4091 57.6622 12.7395 57.3315 12.8497 56.8904Z" fill="#EE0000"/>
<path d="M28.4918 137.818C28.1613 137.818 27.8308 137.928 27.6105 137.597C27.6105 137.156 27.6105 136.715 27.6105 136.164C27.941 136.274 28.1613 136.274 28.4918 136.385C28.4918 136.826 28.4918 137.377 28.4918 137.818Z" fill="#EE0000"/>
<path d="M23.6449 129.549C23.2043 129.438 22.8738 129.108 22.4332 129.218C22.4332 128.667 22.7637 128.336 23.3145 128.446C23.7551 128.556 24.1957 128.556 24.6363 128.667C24.3058 128.997 23.9754 129.328 23.6449 129.549Z" fill="#EE0000"/>
<path d="M20.2301 130.762C20.2301 130.872 20.1199 131.092 20.1199 131.203C19.6793 131.203 19.459 130.872 19.459 130.431C19.7895 130.431 20.1199 130.541 20.2301 130.762Z" fill="#EE0000"/>
<path d="M72.0033 4.96016C73.1048 3.85761 74.5369 4.29866 75.6384 4.51917C79.4939 5.40121 81.9173 8.48835 80.1548 12.5678C79.7142 13.5601 78.7228 14.0011 77.7314 14.1114C77.6212 13.5601 78.0618 13.2293 78.2822 12.8985C79.9345 10.4729 79.2736 8.15759 76.6298 6.72428C74.4267 5.51147 72.3337 5.95249 70.4611 7.27555C70.3509 6.83453 69.9103 6.39351 70.6814 6.173C71.4525 6.06274 72.0033 5.84221 72.0033 4.96016Z" fill="#EE0000"/>
<path d="M27.7207 136.164C27.7207 136.605 27.7207 137.046 27.7207 137.597C27.0598 137.377 26.2886 137.708 25.7379 137.046C25.7379 136.495 25.4074 136.054 25.2972 135.503C25.9582 135.833 26.9496 135.723 27.7207 136.164Z" fill="#EE0000"/>
<path d="M29.5933 61.3007C32.237 58.1033 35.6519 55.8982 39.287 54.0238C43.2526 52.0392 47.5487 50.6059 51.9549 50.3854C55.9205 50.1649 59.8861 50.6059 63.7416 51.8187C67.597 53.0315 71.0119 54.7956 74.0962 57.3315C77.9517 60.3084 81.036 64.1673 83.129 68.4673C85.1118 72.3262 86.4337 76.4056 86.654 80.7056C86.1032 80.7056 85.6626 80.7056 85.1118 80.7056C84.2306 74.7518 82.2477 69.239 78.6126 64.2776C76.5196 61.5212 74.0962 59.3161 71.3423 57.2212C67.8174 54.6853 63.8517 53.252 59.5557 52.37C54.3784 51.3777 49.3112 52.0392 44.3542 53.4725C41.4902 54.3546 38.9566 55.6777 36.5331 57.3315C34.7707 58.5443 33.0081 59.7571 31.3558 61.3007C30.805 61.4109 30.2542 61.3007 29.5933 61.3007Z" fill="#EE0000"/>
<path d="M52.5057 122.713C50.3026 122.603 48.0995 122.051 45.8964 121.39C39.948 119.515 34.5503 116.539 29.8137 112.459C26.7293 109.813 24.0855 106.836 21.9926 103.418C20.4504 100.993 19.6793 98.2362 19.0184 95.4798C18.9083 95.0388 19.1286 94.5977 19.459 94.4875C20.0098 94.3772 20.6707 94.5978 20.6707 95.2593C20.6707 96.3618 21.1113 97.3541 21.4418 98.4567C22.6535 101.985 24.6363 104.962 27.1699 107.718C31.2457 112.239 36.0925 115.657 41.6003 118.192C45.0151 119.736 48.5401 120.839 52.3956 121.169C52.9463 121.169 53.4971 121.28 54.0479 121.39C54.3784 121.39 54.7088 121.61 54.7088 122.051C54.7088 122.603 54.3784 122.713 53.9377 122.823C53.4971 122.713 53.0565 122.713 52.5057 122.713Z" fill="#EE0000"/>
<path d="M85.2219 80.7056C85.7727 80.7056 86.2134 80.7056 86.7641 80.7056C87.4251 82.3594 87.2048 84.2338 87.0946 85.8876C86.9844 89.526 86.4337 93.1644 85.3321 96.6926C84.1204 100.662 82.2477 104.41 79.8243 107.828C77.2907 111.467 74.2064 114.554 70.5712 116.869C69.4697 117.641 68.3681 118.633 67.0462 118.964C67.0462 118.523 67.0462 118.082 67.0462 117.531C67.2666 117.31 67.4869 116.98 67.7072 116.759C75.0876 112.349 80.1548 106.175 83.129 98.1259C84.2305 95.149 85.1118 91.9516 85.3321 88.644C85.4423 86.1081 85.5524 83.462 85.2219 80.7056Z" fill="#EE0000"/>
<path d="M56.3612 73.4287C55.8104 75.6338 55.2596 77.9492 54.5987 80.1543C54.2682 81.1466 54.3783 81.8081 55.4799 82.2492C56.1408 82.5799 56.8018 83.2415 56.8018 83.903C56.6916 85.2261 57.5729 85.0055 58.3439 85.226C60.2166 85.6671 61.9791 86.1081 64.0721 86.6594C63.4111 85.4466 62.3095 84.8953 62.0892 83.6825C62.3095 83.5722 62.4197 83.462 62.5299 83.5722C64.5127 84.8953 66.3853 86.3286 68.3681 87.6517C68.5884 87.8722 68.9189 88.0927 68.8087 88.4234C68.6986 88.8645 68.258 88.7542 67.9275 88.7542C65.7244 88.8645 63.7416 89.526 62.1994 91.4003C61.9791 89.6363 63.3009 89.085 64.2924 88.0927C62.0892 87.4312 59.8861 86.8799 57.9033 86.1081C56.8018 85.6671 56.6916 86.4389 56.251 86.9901C56.0307 86.4389 55.5901 86.3286 55.1494 86.2183C55.3698 85.6671 55.3698 85.226 55.2596 84.6748C54.9291 83.2414 54.158 82.8004 52.8362 83.462C52.3955 83.6825 51.9549 84.0132 51.9549 84.6748C51.5143 84.6748 51.0737 84.6748 50.5229 84.6748C50.3026 83.3517 51.294 82.4697 52.2854 81.9184C53.0565 81.4774 53.2768 81.0363 53.4971 80.2645C53.8276 78.9415 54.1581 77.7287 54.2682 76.2953C54.2682 75.3031 54.9291 74.421 55.3698 73.539C55.5901 73.539 55.9205 73.3185 56.3612 73.4287Z" fill="#EE0000"/>
<path d="M44.3542 132.526C41.6003 131.974 39.6175 130.431 37.7449 128.446C36.3129 127.013 35.4316 125.138 34.1097 123.705C33.8894 123.485 33.6691 123.154 34.1097 122.823C34.33 122.603 34.6605 122.823 34.8808 123.044C35.8722 124.367 37.5246 124.697 38.7363 125.469C40.0581 126.241 41.4902 126.572 43.0323 126.682C44.5745 126.792 46.0065 127.123 47.5487 126.792C49.0909 126.462 50.6331 126.462 52.1752 126.462C54.5987 126.351 56.912 126.792 59.1151 127.454C59.0049 128.226 58.5643 128.115 58.1237 128.115C54.3784 127.344 50.6331 127.895 46.9979 128.115C44.2441 128.336 41.6003 127.785 38.9566 127.123C38.7363 126.903 38.4058 126.572 38.1855 126.792C37.855 127.123 38.4058 127.344 38.5159 127.454C40.0581 129.328 41.8206 130.872 44.2441 131.533C44.5745 131.644 45.0151 131.864 45.3456 131.974C45.1253 132.415 44.7948 132.526 44.3542 132.526Z" fill="#EE0000"/>
<path d="M16.4848 99.2285C16.9254 101.985 16.1543 103.969 14.2817 105.182C12.409 106.395 9.43483 105.403 8.44343 102.977C7.45203 100.552 8.66372 97.2439 10.8668 95.8106C11.6379 95.2593 13.6207 95.5901 14.2817 96.2516C14.7223 96.5824 14.6121 97.0234 14.2817 97.3541C13.9512 97.6849 13.5106 97.7952 13.0699 98.1259C12.1887 98.7875 11.8582 99.5592 12.1887 100.552C12.409 101.213 12.7395 101.434 13.4004 101.323C14.6121 100.882 15.6035 100.331 16.4848 99.2285ZM15.3832 102.095C14.9426 102.095 14.502 102.095 14.0614 102.316C12.1887 103.087 11.0871 102.205 10.8668 100.221C10.7567 98.8977 11.0872 97.7952 12.1887 96.9131C11.5278 96.5824 11.1973 96.8029 10.8668 97.1337C9.76528 98.3465 9.43483 99.7798 9.54498 101.323C9.65514 102.977 10.5364 103.859 12.409 104.19C13.8411 104.411 14.7223 103.859 15.3832 102.095C15.4934 102.205 15.6035 102.205 15.6035 101.985V101.764C15.4934 101.764 15.3832 101.875 15.3832 102.095Z" fill="#EE0000"/>
<path d="M79.0532 87.8722C78.5025 87.8722 78.172 87.8722 77.9517 87.762C76.74 87.3209 75.6384 87.2107 74.9775 88.8645C73.9861 86.4389 74.0962 85.5568 76.8501 86.3286C77.7314 86.5491 78.7228 86.8799 79.604 87.1004C80.4853 87.3209 80.4852 87.8722 80.0446 88.4235C79.604 88.9747 79.0532 89.3055 78.6126 89.8568C78.5024 90.6286 79.3837 90.7388 79.604 91.2901C80.4853 93.6055 78.6126 96.1414 76.079 96.0311C74.3165 95.9208 73.215 95.2593 72.9947 93.9362C72.8845 93.4952 72.8845 92.9439 73.1048 92.5029C73.3251 92.1722 73.5454 91.9516 73.8759 91.9516C74.0962 91.9516 74.3165 92.1722 74.4267 92.5029C74.647 93.385 74.8673 94.1568 75.9688 94.1568C77.0704 94.1568 77.7314 93.7157 78.3923 92.8337C78.9431 92.0619 78.5024 91.7311 77.8415 91.5106C77.2907 91.2901 76.74 91.4004 76.1892 91.4004C75.9689 91.4004 75.6384 91.4004 75.4181 91.1798C75.1978 90.8491 75.4181 90.4081 75.6384 90.2978C76.6298 89.526 77.7314 88.8645 79.0532 87.8722Z" fill="#EE0000"/>
<path d="M48.6503 113.562C47.8792 114.995 46.5573 115.877 45.4557 115.657C44.6847 115.546 44.0237 115.105 43.8034 114.333C43.1425 111.908 42.9222 109.592 44.1339 107.277C45.2354 105.182 48.2096 104.521 49.9721 106.064C50.4127 106.395 50.7432 106.836 50.3026 107.608C48.9807 107.387 47.6588 106.175 46.2268 107.167C45.2354 107.828 45.2354 109.151 44.6846 110.254C46.0065 110.254 46.8878 109.151 47.9893 109.703C47.8792 110.364 47.3284 110.585 47.1081 111.136C46.5573 111.467 45.8964 111.798 45.4557 112.239C45.1253 112.68 44.905 113.121 45.3456 113.672C45.7862 114.113 46.2268 114.113 46.7776 113.782C47.2182 113.451 47.5487 113.01 47.8792 112.68C47.9893 113.121 48.2096 113.451 48.6503 113.562Z" fill="#EE0000"/>
<path d="M23.7551 72.1057C22.2129 75.9646 20.6707 79.9338 20.2301 84.1235C20.0098 85.9978 19.8996 87.7619 20.0098 89.6363C20.0098 90.0773 20.1199 90.5183 20.0098 90.8491C19.8996 91.1798 19.8996 91.7311 19.3488 91.7311C19.0184 91.7311 18.798 91.4004 18.6879 91.0696C18.5777 89.967 18.2473 88.7542 18.3574 87.6517C18.7981 84.0133 19.0184 80.2646 20.3402 76.7364C20.891 75.1928 21.4418 73.539 22.2129 72.1057C22.6535 72.1057 23.2043 72.1057 23.7551 72.1057Z" fill="#EE0000"/>
<path d="M63.5213 106.946C62.4197 107.718 61.6486 106.946 60.8776 106.946C60.4369 106.946 59.8861 106.616 59.8861 107.387C59.8861 107.939 59.3354 108.931 60.6572 108.931C60.7674 108.931 60.7674 108.931 60.8776 108.931C63.6314 109.151 64.0721 109.923 63.0807 112.68C62.1994 114.885 60.4369 116.098 58.4541 115.657C57.2424 115.326 56.4713 114.113 57.0221 113.01C57.2424 112.569 57.4627 112.349 57.9033 112.349C58.2338 112.349 58.4541 112.569 58.6744 112.9C59.5557 114.223 59.4455 114.113 60.7674 113.341C61.4283 113.01 61.7588 112.459 62.0892 111.798C62.3095 111.246 62.5299 110.695 62.0892 110.254C61.7588 109.813 61.208 110.034 60.7674 110.144C60.6572 110.144 60.6572 110.144 60.5471 110.144C58.4541 110.475 58.344 110.364 58.6744 108.159C58.7846 107.718 58.8947 107.387 58.8947 106.946C59.0049 105.513 58.8947 105.403 60.4369 105.734C61.3181 105.954 62.4197 106.175 63.5213 106.946Z" fill="#EE0000"/>
<path d="M30.5847 76.6262C31.9066 78.721 31.6863 80.5953 30.034 82.5799C29.8136 82.9107 29.7035 83.3517 29.4832 83.5722C28.7121 84.5645 26.8394 84.8953 25.7379 84.2338C25.5175 84.1235 25.2972 83.903 25.4074 83.5722C25.4074 83.3517 25.6277 83.2415 25.848 83.2415C28.1613 83.6825 28.8222 81.8082 29.7035 80.3748C29.2628 80.0441 28.8222 80.2646 28.4917 80.3748C27.1699 80.7056 25.7379 80.1543 25.2972 79.0518C24.8566 77.9492 25.4074 76.4056 26.509 75.8544C27.1699 75.5236 27.7207 74.8621 28.6019 75.1928C28.6019 75.4133 28.6019 75.7441 28.6019 75.9646C28.3816 76.1851 28.0512 76.4056 27.8308 76.5159C27.2801 76.8467 26.6191 77.1774 26.8394 77.839C27.1699 78.5005 27.941 78.3902 28.6019 78.28C29.0425 78.1697 29.373 77.9492 29.5933 77.6184C30.3644 77.839 30.034 76.8467 30.5847 76.6262Z" fill="#EE0000"/>
<path d="M80.7056 79.2723C81.036 81.2569 80.4853 82.1389 79.0532 82.3594C78.172 82.4696 77.1806 82.4696 76.5196 81.9184C75.7486 81.2568 75.1978 80.485 73.9861 80.7056C73.6556 80.8158 73.1048 80.2645 73.215 79.7133C73.3251 79.162 73.6556 78.8312 74.2064 78.8312C75.0876 78.9415 75.9689 78.721 76.74 78.1697C77.2907 77.7287 77.8415 77.2877 77.9517 76.6261C78.0618 76.1851 78.5024 75.7441 78.0618 75.3031C77.511 74.862 76.9603 74.9723 76.4095 75.5236C76.1892 75.7441 76.1892 76.5159 75.5283 75.9646C75.1978 75.6338 75.1978 75.3031 75.4181 74.862C75.9689 73.7595 77.511 73.3185 78.6126 73.8698C79.7142 74.421 80.1548 75.8543 79.4939 76.9569C78.9431 77.8389 78.3923 78.6107 77.511 79.2723C77.2907 79.3825 76.8501 79.603 77.0704 80.0441C77.2907 80.3748 77.4009 80.8158 77.9517 80.8158C79.0532 80.9261 80.0446 80.5953 80.7056 79.2723Z" fill="#EE0000"/>
<path d="M93.4836 66.8134C93.4836 67.0339 93.5938 67.3647 93.4836 67.5852C93.1531 68.1365 94.475 68.798 93.5938 69.1288C92.8227 69.3493 93.1532 68.357 92.8227 68.0262C92.4922 67.5852 90.2891 67.6955 89.9586 68.2467C89.6282 68.798 89.2977 69.4596 88.8571 69.9006C88.1962 69.7903 88.4164 69.3493 88.5266 68.9083C89.2977 66.3724 88.7469 65.8211 86.3235 66.1519C86.1032 66.1519 85.993 66.1519 85.5524 65.8211C87.2048 65.2698 87.8657 64.057 88.086 62.5135L87.9758 62.4032C87.6454 61.8519 86.2134 62.1827 86.7641 61.3007C87.0946 60.6391 87.9758 61.5212 88.6368 61.6314C89.7383 61.7417 90.3993 60.9699 90.1789 59.8673C90.0688 59.3161 89.8485 58.875 90.2891 58.3238C90.8399 58.2135 90.8399 58.6545 90.95 58.875C91.2805 59.5366 91.1703 60.3084 92.3821 60.4186C93.7039 60.6391 93.5938 59.6468 94.0344 59.0956C94.2547 58.7648 94.3649 58.3238 94.9157 58.3238C95.0258 59.4263 94.0344 60.3083 94.2547 61.4109C94.1446 61.5212 94.0344 61.6314 93.8141 61.8519C91.8313 61.0802 90.2891 61.3007 89.2977 62.8442C88.7469 63.7263 88.5266 64.4981 89.1875 65.4904C90.2891 67.0339 91.3907 67.475 93.4836 66.5929C93.2633 66.5929 93.3735 66.7032 93.4836 66.8134Z" fill="#EE0000"/>
<path d="M93.7039 98.2362C93.1532 99.2285 92.6024 100.111 91.9414 101.103C91.2805 100.772 91.3907 100.111 91.2805 99.5592V99.6695C92.0516 99.5592 92.0516 98.7874 92.382 98.3464C92.8227 97.3541 93.1531 96.3618 93.4836 95.2593C94.8055 91.5106 94.8055 87.4311 96.1274 83.5722C96.6782 83.1312 96.8984 82.0286 97.8898 82.3594C97.8898 82.5799 98 82.8004 97.8898 83.0209C96.4578 87.2106 96.2375 91.7311 94.6953 95.9208C94.3649 96.6926 93.7039 97.3541 93.7039 98.2362Z" fill="#EE0000"/>
<path d="M30.034 92.6132C29.9238 93.4952 30.5847 94.1567 30.6949 95.149C30.805 97.9054 29.0425 99.449 26.3988 98.567C25.5175 98.2362 24.5261 98.1259 24.0855 97.1337C23.4246 95.5901 23.4246 95.4798 25.2972 93.826C25.848 94.5978 26.8394 94.1567 27.5003 94.708C27.1699 95.149 26.3988 95.0388 26.2886 95.59C26.1785 95.8106 25.9582 96.0311 26.2886 96.3619C26.7293 96.8029 27.3902 96.8029 27.941 96.8029C28.7121 96.6926 29.1527 96.0311 29.2628 95.4798C29.373 95.0388 29.373 94.0465 28.3816 94.0465C28.2715 92.1721 28.2715 92.1722 30.034 92.6132Z" fill="#EE0000"/>
<path d="M61.6486 129.549C62.3095 129.659 62.9705 129.549 62.9705 130.541C60.6572 129.99 58.4541 129.879 56.1408 129.99C54.2682 130.1 52.3955 130.651 50.5229 130.651C47.769 130.762 45.1253 130.872 42.4815 129.769C42.1511 129.659 41.6003 129.549 41.6003 128.997C41.8206 128.667 42.0409 128.777 42.2612 128.887C45.3456 129.879 48.5401 129.879 51.7346 129.328C54.4885 128.887 57.2424 128.667 60.1065 128.887C60.2166 129.218 60.5471 129.328 60.8776 129.328C61.0979 129.438 61.3181 129.549 61.6486 129.549Z" fill="#EE0000"/>
<path d="M38.0753 71.3339C37.5245 71.3339 37.0839 71.2236 36.6433 70.7826C34.5503 68.2467 35.6519 65.6006 37.6347 64.6083C38.2956 64.2776 38.9565 64.2776 39.5073 64.6083C40.6089 65.2699 41.7104 67.3647 41.38 68.357C41.0495 70.0108 39.5073 71.3339 38.0753 71.3339ZM38.2956 69.9006C38.9566 69.9006 40.0581 68.6878 40.1683 67.916C40.2784 67.0339 39.7276 65.9314 39.0667 65.7109C38.7362 65.6006 38.5159 65.7108 38.2956 65.8211C37.1941 66.4826 36.8636 68.4673 37.6347 69.4595C37.855 69.6801 37.9652 69.9006 38.2956 69.9006Z" fill="#EE0000"/>
<path d="M23.7551 72.1057C23.2043 72.1057 22.6535 71.9954 22.2129 71.9954C24.0855 68.0262 26.3988 64.2776 29.5933 61.3007C30.2542 61.3007 30.9152 61.3006 31.5761 61.4109C30.5847 62.9545 29.0425 64.057 27.941 65.4904C26.509 67.475 25.1871 69.4596 24.1957 71.6647C24.0855 71.8852 23.8652 71.9954 23.7551 72.1057Z" fill="#EE0000"/>
<path d="M97.8898 82.3594C96.7883 82.1389 96.6782 83.1312 96.1274 83.5722C94.8055 83.903 94.6953 85.2261 93.9243 86.1081C93.5938 86.1081 93.3735 86.1081 93.043 86.1081C92.9328 85.8876 92.7125 85.8876 92.7125 86.1081C92.6024 86.3286 92.6024 86.6594 92.6024 86.8799C92.4922 86.8799 92.3821 86.8799 92.2719 86.9901C92.0516 86.5491 91.7211 86.4389 91.2805 86.4389C92.9328 83.1312 95.3563 80.7056 98.3305 78.6107C98.5508 79.0518 98.8813 79.3825 99.3219 79.4928C98.9914 80.5954 98.3305 81.4774 97.8898 82.3594Z" fill="#EE0000"/>
<path d="M32.3472 69.1288C31.5761 69.0185 31.2456 69.7903 30.6949 69.4595C30.4745 69.239 30.4746 69.1288 30.5847 68.9083C30.9152 68.5775 31.2457 68.2467 31.5761 67.916C32.6777 66.8134 33.2284 65.4903 33.4487 63.9468C33.4487 63.3955 33.7792 62.8442 34.5503 63.0647C35.1011 63.2852 34.991 63.7262 34.991 64.2775C34.7706 66.2621 34.6605 68.2467 34.4402 70.2313C34.4402 70.5621 34.4402 70.8929 34.33 71.2236C34.2199 71.6646 33.9995 71.9954 33.4487 71.9954C33.0081 71.9954 32.7878 71.6646 32.6777 71.2236C32.5675 70.5621 32.4574 69.9005 32.3472 69.1288Z" fill="#EE0000"/>
<path d="M21.1113 60.0878C21.6621 58.6545 22.2129 57.1109 22.7637 55.4571C23.4246 56.3392 22.984 56.8905 22.8738 57.4417C22.7637 58.5443 22.8738 59.7571 23.8652 60.4186C24.5262 60.8596 24.5262 61.3007 24.0855 61.6314C22.7637 62.734 21.8824 64.1673 21.3316 65.7109C21.3316 65.8211 21.1113 65.8211 20.891 65.9314C20.4504 65.2698 20.7809 64.3878 20.5606 63.616C20.2301 62.6237 20.4504 61.4109 18.9082 61.3007C18.4676 61.3007 18.4676 60.7494 18.4676 60.1981C19.3489 60.1981 20.2301 60.1981 21.1113 60.0878C20.3403 61.1904 20.891 62.1827 21.4418 63.2852C22.1027 62.5135 22.7637 61.7417 23.3145 61.0801C22.7637 60.1981 22.2129 59.6468 21.1113 60.0878Z" fill="#EE0000"/>
<path d="M56.3612 73.4287C55.9205 73.3185 55.5901 73.539 55.2596 73.7595C55.1494 73.2082 55.5901 72.8775 55.7002 72.4364C55.8104 72.1057 56.0307 71.8852 55.5901 71.5544C55.7002 71.7749 55.8104 71.7749 55.9205 71.5544V71.3339C55.8104 71.3339 55.7002 71.4441 55.7002 71.5544C54.5987 71.5544 53.9377 73.098 52.5057 72.657C54.158 71.2236 55.8104 70.0108 57.0221 68.2467C57.2424 67.916 57.5729 67.6955 57.9033 67.916C58.2338 68.1365 58.2338 68.4673 58.2338 68.798C58.2338 69.5698 58.1236 70.3416 58.2338 71.0031C58.2338 71.8852 58.344 72.7672 59.1151 73.4288C59.4455 73.7595 59.776 74.3108 59.2252 74.6415C58.7846 74.9723 58.344 74.5313 58.0135 74.2005C57.4627 73.8698 57.3526 72.9877 56.3612 73.4287Z" fill="#EE0000"/>
<path d="M47.4385 62.6237C47.4385 62.4032 47.4385 62.0724 47.4385 61.8519C47.5487 61.1904 47.4385 60.9699 46.6674 61.1904C46.2268 61.3007 45.8963 60.9699 46.2268 60.5289C46.9979 59.5366 47.5487 58.3237 48.0995 57.1109C48.3198 56.5597 48.7604 56.2289 49.4213 56.4494C49.8619 56.6699 49.7518 57.111 49.7518 57.4417C49.862 59.6468 49.3112 61.6314 48.8705 63.7263C48.7604 64.1673 48.8706 65.0493 48.0995 64.8288C47.4385 64.7186 47.4385 64.057 47.4385 63.5058C47.4385 63.2853 47.4385 62.9545 47.4385 62.6237Z" fill="#EE0000"/>
<path d="M44.3542 132.526C44.7948 132.526 45.1253 132.415 45.3456 131.974C46.5573 132.085 47.6588 132.526 48.8706 132.636C51.9549 132.967 54.9291 132.305 57.9033 132.085C58.4541 132.085 59.4455 131.644 59.4455 132.305C59.5557 133.297 58.4541 132.856 57.9033 132.967C55.3698 133.518 52.8362 133.959 50.3026 133.849C48.3198 133.738 46.2269 133.738 44.3542 132.526Z" fill="#EE0000"/>
<path d="M27.3902 94.708C26.7293 94.1567 25.7379 94.5978 25.1871 93.826C25.6277 93.1645 26.509 93.2747 26.9496 92.6132C26.9496 92.0619 26.509 91.8414 26.1785 91.5106C25.6277 90.8491 25.2972 90.1876 25.7379 89.3055C26.0683 88.4235 26.8394 88.0927 27.7207 88.0927C28.1613 88.0927 28.4918 88.203 28.9324 88.203C28.8222 88.4235 28.7121 88.644 28.4918 88.9747C27.941 89.1952 26.9496 89.085 26.9496 89.967C26.9496 90.6286 27.7207 91.0696 28.2715 91.2901C28.8222 91.5106 29.0425 90.8491 29.2629 90.4081C29.373 90.1876 29.2629 89.7465 29.2629 89.4158C29.4832 89.526 29.9238 89.526 29.9238 89.6363C30.4746 90.9593 30.6949 90.0773 31.0254 89.526C31.6863 90.1875 31.5761 90.8491 31.0254 91.5106C30.6949 91.9516 30.2543 92.2824 29.9238 92.7234C28.1613 92.3927 28.1613 92.3927 28.1613 94.1567C27.941 94.267 27.6105 94.4875 27.3902 94.708Z" fill="#EE0000"/>
<path d="M91.1704 86.4389C91.611 86.4389 91.9414 86.5491 92.1618 86.9901C91.0602 88.9747 90.8399 91.1798 90.5094 93.3849C90.179 96.0311 89.8485 98.6772 89.1875 101.323H88.9673C88.6368 100.993 88.5266 100.552 88.5266 100C88.9672 96.3618 89.1876 92.6131 90.0688 88.9747C90.2891 88.0927 90.5094 87.1004 91.1704 86.4389Z" fill="#EE0000"/>
<path d="M71.783 99.449C72.3337 100.552 71.8931 101.434 71.783 102.205C71.6728 102.757 71.5627 103.198 72.2236 103.528C72.6642 103.749 72.8845 104.3 72.4439 104.521C71.2322 104.962 71.122 106.064 70.7916 107.167C70.0205 106.616 70.4611 105.954 70.4611 105.513C70.4611 104.741 70.1306 104.41 69.3595 104.521C69.0291 104.631 68.6986 104.741 68.3681 104.631C67.8174 104.3 66.9361 104.3 66.826 103.528C66.7158 102.646 67.597 102.757 68.1478 102.646C69.69 101.985 70.6814 100.882 71.783 99.449ZM70.2408 103.198C70.6814 103.198 70.6814 102.977 70.6814 102.646C70.6814 102.426 70.5712 102.426 70.4611 102.536C70.2408 102.757 70.1306 102.977 69.9103 103.087C70.0205 103.198 70.1306 103.198 70.2408 103.198Z" fill="#EE0000"/>
<path d="M68.9189 67.4749C69.9103 66.3724 70.9017 65.2698 71.3423 63.7263C71.4525 63.3955 71.783 62.9545 72.2236 63.175C72.554 63.2852 72.5541 63.7263 72.4439 64.057C72.0033 65.3801 72.3337 66.8134 71.5626 68.0262C70.9017 69.0185 72.2236 69.239 72.4439 70.0108C71.4525 70.7826 70.5713 70.6724 69.5798 70.4518C69.1392 70.3416 68.8087 70.1211 68.8087 69.68C68.8087 69.239 69.2494 69.239 69.5798 69.239C70.1306 69.1288 70.1306 68.6878 70.1306 68.2467C70.0205 67.4749 69.1392 68.2467 68.9189 67.4749Z" fill="#EE0000"/>
<path d="M34.2199 102.867C33.2285 102.426 32.3472 100.882 32.4574 99.89C32.5675 99.3388 32.898 99.2285 33.3386 99.3388C34.5503 99.6695 35.8722 99.6695 37.1941 99.7798C37.6347 99.7798 38.0753 100 38.1855 100.552C38.2956 101.103 38.2956 101.654 37.7449 101.985C36.8636 102.426 36.6433 103.308 35.8722 103.859L35.762 103.749C35.762 103.198 35.762 102.757 35.2113 102.426C35.2113 101.985 35.9824 101.654 35.5417 101.213C35.2113 100.772 34.6605 100.882 34.2199 100.993C33.6691 101.213 33.7792 101.764 33.8894 102.205C34.1097 102.426 33.9995 102.757 34.2199 102.867Z" fill="#EE0000"/>
<path d="M65.0635 120.177C62.8603 121.39 60.4369 122.162 58.0135 122.603C57.7932 122.603 57.4627 122.603 57.2424 122.603C56.9119 122.492 56.6916 122.272 56.5815 121.941C56.5815 121.5 56.8018 121.28 57.1322 121.169C57.3525 121.059 57.5729 121.059 57.683 121.059C59.4455 120.728 61.208 120.508 62.7502 119.515C62.9705 119.405 63.4111 119.405 63.7416 119.405C64.1822 119.515 64.733 119.626 65.0635 120.177Z" fill="#EE0000"/>
<path d="M84.1204 58.5443C84.561 60.4186 82.0274 60.7494 82.2477 62.6237C81.036 61.3006 81.036 59.3161 79.1634 58.5443C80.1548 58.1033 81.036 58.1033 81.5868 57.3315C82.1376 56.7802 82.6883 56.2289 83.5696 55.5674C83.6798 56.5597 83.7899 57.2212 83.7899 58.2135C82.5782 57.552 81.697 57.993 80.9259 58.9853C81.036 59.5366 81.4766 60.0878 81.9173 60.6391C82.9087 59.9776 83.4594 59.3161 84.1204 58.5443Z" fill="#EE0000"/>
<path d="M43.2527 60.9699C42.7019 60.9699 42.4816 61.3007 42.1511 61.5212C41.8206 61.7417 41.6003 61.5212 41.4902 61.4109C41.2698 61.1904 41.38 60.9699 41.6003 60.8596C42.812 59.8673 43.6932 58.7648 43.9136 57.111C43.9136 57.0007 44.2441 56.8905 44.3542 56.7802C44.6847 56.6699 44.905 56.8905 44.905 57.2212C45.1253 57.6622 45.0151 58.1032 45.0151 58.6545C44.905 59.9776 44.905 61.1904 44.6847 62.5135C44.5745 63.0647 44.4644 63.9468 43.6933 63.8365C43.0323 63.7263 43.0323 63.0648 43.2527 62.4032C43.2527 61.9622 43.2527 61.5212 43.2527 60.9699Z" fill="#EE0000"/>
<path d="M41.2698 48.8418C40.8292 49.7238 40.6089 50.8264 39.7276 51.7084C39.6175 51.4879 39.3972 51.2674 39.3972 51.0469C39.287 49.6136 38.7363 48.4008 37.1941 47.9598C36.9738 47.8495 36.6433 47.7392 36.7534 47.4085C36.7534 47.0777 37.0839 46.9675 37.3042 46.9675C38.6261 46.9675 39.287 46.1957 39.5073 45.0931C39.6175 44.5418 39.948 44.2111 40.4987 44.3213C41.0495 44.4316 41.1597 44.9828 41.0495 45.4239C40.2784 45.5341 39.948 45.9752 39.948 46.7469C39.948 47.2982 38.8464 47.4085 39.287 48.4008C39.8378 49.5033 40.4987 48.6213 41.0495 48.8418C41.2698 48.7315 41.2698 48.8418 41.2698 48.8418Z" fill="#EE0000"/>
<path d="M50.4128 84.785C50.8534 84.785 51.294 84.785 51.8448 84.785C52.3955 86.9901 52.9463 87.2107 55.0393 86.3286C55.4799 86.4389 55.9205 86.5491 56.1408 87.1004C54.9291 88.644 54.0479 88.8645 52.3955 88.3132C51.0737 87.8722 50.3026 86.5491 50.4128 84.785Z" fill="#EE0000"/>
<path d="M35.4316 104.521C34.4402 106.285 34.33 108.159 34.2199 110.034C33.4488 110.144 33.2285 109.592 33.1183 109.151C32.898 108.38 32.7878 107.608 32.898 106.726C32.898 106.505 33.0082 106.175 33.0082 105.954C33.0082 105.513 33.4488 104.19 33.7793 103.969C33.8894 103.859 33.9996 103.639 34.2199 103.528C34.4402 104.19 34.7707 104.521 35.4316 104.521Z" fill="#EE0000"/>
<path d="M93.8141 61.3007C94.3649 61.9622 95.1359 61.8519 95.7969 61.5212C96.1273 61.3007 96.568 61.0801 96.8984 61.5212C97.2289 61.9622 96.6781 62.293 96.3477 62.4032C95.0258 62.8443 95.1359 63.7263 95.2461 64.8288C96.0172 65.1596 97.0086 65.0494 97.6695 66.1519C96.0172 66.2622 94.475 65.3801 93.3735 66.9237C93.2633 66.8134 93.1531 66.7032 93.043 66.5929C94.6953 64.6083 94.8055 64.2776 93.5938 62.1827C93.4836 62.0725 93.4836 61.9622 93.3735 61.852C93.5938 61.6314 93.7039 61.4109 93.8141 61.3007Z" fill="#EE0000"/>
<path d="M58.4541 62.9545C58.6744 61.8519 59.2252 61.9622 59.9963 62.293C60.5471 62.6237 60.9877 62.9545 61.5385 63.0647C61.7588 63.175 61.8689 62.734 61.7588 62.5134H62.1994C61.6486 62.734 61.6486 63.0647 62.0892 63.3955C62.64 63.8365 63.301 64.1673 63.8517 64.6083C63.8517 65.1596 63.7416 65.4903 63.0807 65.4903C62.64 65.4903 62.3096 65.1596 61.9791 64.9391C60.9877 64.2775 59.9963 63.3955 58.6744 63.616C58.6744 63.616 58.5643 63.3955 58.4541 63.2852C58.4541 63.2852 58.4541 63.175 58.4541 62.9545Z" fill="#EE0000"/>
<path d="M55.2596 62.6237C55.1494 62.0724 55.2596 61.5212 55.4799 61.0801C55.7002 60.7494 55.7002 60.3084 55.2596 60.0879C55.2596 59.8673 55.2596 59.6468 55.2596 59.4263C55.5901 59.0955 55.8104 58.8751 56.1408 58.5443C56.5814 58.5443 57.0221 58.5443 57.4627 58.5443C57.4627 59.4263 57.2424 60.3084 56.9119 61.0801C56.6916 61.7417 56.4713 62.2929 56.5814 63.0647C56.0307 63.0647 55.7002 62.8442 55.2596 62.6237Z" fill="#EE0000"/>
<path d="M63.4111 58.1032C62.0892 56.7802 61.5385 57.0007 60.3268 59.2058C59.9963 57.6622 60.2166 57.0007 61.3182 56.5597C62.4197 56.0084 63.1908 56.3392 63.9619 57.552C63.7416 57.6622 63.5213 57.8827 63.4111 58.1032Z" fill="#EE0000"/>
<path d="M63.4111 58.1032C63.6314 57.8827 63.7416 57.6622 63.9619 57.552C63.9619 59.4263 64.2923 61.5212 62.1994 62.6237H61.7588C61.3182 62.5135 61.208 62.2929 61.5384 61.9622C62.4197 61.1904 62.9705 60.0878 63.4111 58.9853C63.5213 58.6545 63.4111 58.434 63.4111 58.1032Z" fill="#EE0000"/>
<path d="M65.0635 120.177C64.733 119.736 64.1822 119.626 63.7416 119.295C64.8431 118.633 65.7244 117.751 67.0462 117.641C67.0462 118.082 67.0462 118.523 67.0462 119.074C66.6056 119.626 65.8345 119.956 65.0635 120.177Z" fill="#EE0000"/>
<path d="M57.3526 58.5443C56.9119 58.5443 56.4713 58.5443 56.0307 58.5443C56.4713 57.6623 56.251 56.6699 56.8018 55.8981C57.0221 55.5674 57.2424 55.3469 57.5729 55.4571C57.7932 55.5674 58.0135 55.7879 58.0135 56.1187C58.1237 57.0007 57.7932 57.7725 57.3526 58.5443Z" fill="#EE0000"/>
<path d="M55.2596 62.6237C55.7002 62.8442 56.0307 63.0648 56.4713 62.9545C56.5815 62.9545 56.6916 62.9545 56.8018 63.0647C56.9119 63.2852 57.0221 63.2852 57.2424 63.0647C57.683 62.9545 58.1236 63.5058 58.4541 62.9545C58.4541 63.0647 58.4541 63.2853 58.4541 63.3955C57.2424 64.2776 55.1494 64.2775 54.0479 63.2853C53.7174 63.0647 53.8276 62.6237 54.2682 62.5135C54.5987 62.5135 54.9291 62.6237 55.2596 62.6237Z" fill="#EE0000"/>
<path d="M46.9979 111.136C47.2182 110.585 47.769 110.254 47.8792 109.703C49.0909 110.144 48.8706 111.467 49.3112 112.349C49.6417 112.9 48.8706 113.231 48.5401 113.672C48.0995 113.562 47.8792 113.231 47.6589 112.79C48.43 111.687 47.8792 111.357 46.9979 111.136Z" fill="#EE0000"/>
<path d="M40.0581 46.6367C39.948 45.8649 40.3886 45.4239 41.1597 45.3136C41.2698 45.7547 41.6003 46.0854 41.9308 46.4162C43.0323 47.4085 43.0323 47.4085 41.9308 48.4008C41.7105 48.6213 41.4901 48.7315 41.2698 48.8418C41.1597 48.7315 40.8292 48.7315 40.9394 48.4008C41.6003 47.4085 41.2698 46.8572 40.0581 46.6367Z" fill="#EE0000"/>
<path d="M99.2117 79.603C98.7711 79.3825 98.4406 79.162 98.2203 78.721C98.6609 77.9492 99.5422 77.7287 100.313 77.2877C100.534 77.1774 100.864 77.1774 100.974 77.3979C101.195 77.7287 101.084 78.0595 100.864 78.28C100.203 78.5005 99.8726 79.162 99.2117 79.603Z" fill="#EE0000"/>
<path d="M31.1355 89.4158C30.8051 89.9671 30.5847 90.8491 30.034 89.526C29.9238 89.4158 29.5933 89.3055 29.373 89.3055C29.1527 89.1953 28.8222 88.9748 28.6019 88.8645C28.7121 88.644 28.8222 88.4235 29.0425 88.0927C30.1441 87.7619 30.6949 88.4235 31.1355 89.4158Z" fill="#EE0000"/>
<path d="M28.4918 76.1852C28.4918 75.9646 28.4918 75.6339 28.4918 75.4134C29.5933 75.0826 30.034 75.9646 30.4746 76.6262C29.9238 76.8467 30.2543 77.839 29.4832 77.839C29.4832 77.0672 28.9324 76.6262 28.4918 76.1852Z" fill="#EE0000"/>
<path d="M57.683 135.833C57.5729 136.385 57.1322 136.495 56.6916 136.495C55.8104 136.495 54.9291 136.495 53.9377 136.495C54.4885 135.833 55.3698 136.385 55.7002 135.723C56.251 135.833 57.0221 135.833 57.683 135.833Z" fill="#EE0000"/>
<path d="M35.4316 104.521C34.7707 104.521 34.4402 104.19 34.2199 103.639C34.2199 103.418 34.5503 103.198 34.33 102.867C34.6605 103.087 34.8808 102.757 35.1011 102.646C35.1011 103.198 35.3214 103.639 35.9824 103.639L36.0925 103.749C35.7621 104.08 35.6519 104.3 35.4316 104.521Z" fill="#EE0000"/>
<path d="M63.8517 64.7186L63.9619 64.6083C63.9619 63.8366 64.2924 63.3955 65.1736 63.5058C65.2838 63.5058 65.3939 63.7263 65.3939 63.7263C65.2837 64.6083 64.6228 64.6083 63.9619 64.6083C63.8517 64.4981 63.8517 64.6083 63.8517 64.7186Z" fill="#EE0000"/>
<path d="M55.1495 59.4263C55.1495 59.6468 55.1495 59.8673 55.1495 60.0878C54.9291 60.1981 54.4885 60.1981 54.4885 59.9776C54.3784 59.5366 54.9291 59.5366 55.1495 59.4263Z" fill="#EE0000"/>
<path d="M60.7674 132.526C60.9877 132.636 61.0979 132.636 61.3182 132.746C61.0979 132.856 60.8775 132.746 60.7674 132.526Z" fill="#EE0000"/>
<path d="M57.2424 63.0647C57.1322 63.2852 57.0221 63.2852 56.8018 63.0647C57.0221 63.0647 57.1322 63.0647 57.2424 63.0647Z" fill="#EE0000"/>
<path d="M85.1118 112.9C85.0016 112.79 85.0016 112.569 84.8915 112.459C85.0016 112.459 85.1118 112.349 85.2219 112.349C85.4423 112.569 85.222 112.68 85.1118 112.9Z" fill="#EE0000"/>
<path d="M93.043 85.9979C93.3735 85.9979 93.5938 85.9979 93.9243 85.9979C93.4837 88.7542 92.9329 91.6209 92.3821 94.3773C92.0516 96.1414 91.1704 97.6849 91.3907 99.5592V99.449C90.6196 99.7798 90.95 100.882 90.179 101.103C90.0688 98.7875 90.9501 96.6926 91.2805 94.3773C91.611 91.7311 92.7126 89.3055 92.7126 86.6594C92.7126 86.6594 92.8227 86.3286 93.043 85.9979Z" fill="#EE0000"/>
<path d="M85.993 47.0777C85.5524 46.7469 85.3321 47.2982 85.1118 47.4085C82.1376 49.8341 78.3923 49.2828 75.7486 47.2982C73.4353 45.5341 71.122 43.77 68.4783 42.3367C64.9533 40.4624 61.3182 39.6906 57.3526 40.2419C54.4885 40.5726 51.5143 41.1239 48.6503 40.0214C48.6503 39.8008 48.6503 39.5803 48.6503 39.3598C52.0651 40.0213 55.3697 39.4701 58.7846 39.1393C61.8689 38.8086 64.8431 39.3598 67.597 40.6829C70.7915 42.3367 73.7658 44.3213 76.6298 46.5264C79.1634 48.511 82.2477 48.8418 84.8915 46.4162C85.3321 45.9752 85.7727 45.6444 86.2134 45.2034C86.2134 45.5341 86.3235 45.8649 86.3235 46.1957C86.1032 46.4162 85.5524 46.5264 85.993 47.0777Z" fill="#EE0000"/>
<path d="M45.6761 37.5958C45.3456 37.3753 45.1253 36.9342 45.0151 36.6034C44.5745 34.7291 43.5831 33.0753 42.7019 31.4215C41.4902 29.3266 40.8292 27.0112 40.6089 24.5856C40.3886 22.0497 40.9394 19.9549 42.7019 18.1908C42.9222 18.1908 43.2526 18.3011 43.4729 18.3011C41.4901 20.837 41.1597 23.5933 41.9308 26.5702C42.3714 28.3343 42.9222 29.9881 43.9136 31.642C45.0151 33.406 45.7862 35.3907 46.2268 37.4855C46.1167 37.4855 45.8964 37.5958 45.6761 37.5958Z" fill="#EE0000"/>
<path d="M84.7813 38.8086C84.7813 38.3675 84.7813 37.9265 84.7813 37.4855C85.5524 37.5958 85.8829 38.3675 86.5438 38.8086C87.4251 38.3675 86.9844 37.265 87.5352 36.7137C87.7555 36.7137 87.8657 36.7137 88.086 36.7137C88.3063 37.265 87.0946 38.147 88.5266 38.3675C88.1961 41.2342 85.6626 43.329 82.468 43.77L82.3579 43.6598C82.3579 43.2188 82.3579 42.7778 82.3579 42.3367C83.3493 41.8957 84.3407 41.6752 85.1118 40.9034C85.6626 40.3522 86.1032 39.9111 85.2219 39.3598C85.0016 39.2496 84.8915 39.0291 84.7813 38.8086Z" fill="#EE0000"/>
<path d="M72.4439 42.1162C72.9947 41.6752 72.7744 40.9034 72.8845 40.3521C74.2064 41.7855 75.9689 42.3367 77.7314 42.9983C77.7314 43.2188 77.7314 43.329 77.7314 43.5495C77.7314 43.7701 77.8415 44.1008 78.172 43.9906C78.5024 43.8803 78.3923 43.5495 78.2821 43.329C78.2821 43.2188 78.172 43.1085 78.172 42.9983C78.9431 42.6675 79.8243 42.6675 80.5954 42.9983C80.7056 44.1008 81.5868 43.77 82.2477 43.77L82.3579 43.8803C80.0446 44.8726 77.7314 44.8726 75.4181 43.9906C74.4267 43.5495 73.1048 43.2188 72.4439 42.1162Z" fill="#EE0000"/>
<path d="M66.0549 31.4215C66.8259 31.9727 67.5971 32.4137 68.5885 32.1932C68.9189 32.083 69.2494 32.3035 69.4697 32.524C68.1478 33.2958 67.7072 34.6189 67.1564 35.9419C67.0463 36.2727 66.9361 36.7137 66.826 37.1547C66.6056 37.5957 66.2752 37.706 65.8346 37.5958C65.3939 37.4855 65.2838 37.1547 65.2838 36.824C65.3939 36.2727 65.3939 35.6112 65.6142 35.0599C66.2752 33.8471 66.2752 32.6343 66.0549 31.4215Z" fill="#EE0000"/>
<path d="M88.4165 38.3675C86.9844 38.147 88.1961 37.265 87.9758 36.7137C87.9758 36.1624 87.9758 35.5009 87.9758 34.9496C87.9758 34.2881 88.1961 33.9573 88.8571 33.8471C89.4078 35.3906 89.1875 36.9342 88.4165 38.3675Z" fill="#EE0000"/>
<path d="M43.4729 18.3011C43.2526 18.3011 42.9222 18.1908 42.7019 18.1908C43.6933 16.537 45.2354 15.9857 46.9979 15.2139C46.1167 16.3165 45.3456 17.0883 44.1339 17.5293C43.6933 17.6395 43.9136 18.1908 43.4729 18.3011Z" fill="#EE0000"/>
<path d="M88.9672 33.8471C88.3063 33.9573 88.086 34.2881 88.086 34.9496C88.086 35.5009 88.086 36.1624 88.086 36.7137C87.8657 36.7137 87.7555 36.7137 87.5352 36.7137C87.6454 35.1701 87.2048 33.7368 87.2048 32.1932C87.8657 32.3035 88.086 31.642 88.4165 31.3112C88.7469 32.1932 89.0774 32.965 88.9672 33.8471Z" fill="#EE0000"/>
<path d="M45.6761 37.5958C45.8964 37.5958 46.1167 37.4855 46.337 37.4855C46.9979 38.147 47.6589 38.9188 48.6503 39.2496C48.6503 39.4701 48.6503 39.6906 48.6503 39.9111C47.1081 39.8008 46.1167 39.0291 45.6761 37.5958Z" fill="#EE0000"/>
<path d="M86.3235 45.2034C86.5438 45.2034 86.654 45.0931 86.5438 44.7624C86.4337 44.9829 86.3235 45.0931 86.3235 45.2034Z" fill="#EE0000"/>
<path d="M72.0033 16.6473C75.4181 17.5293 78.7228 18.8523 82.1376 19.5139C83.3493 19.7344 84.561 19.6241 85.7727 19.7344C86.2133 19.7344 86.654 19.7344 87.0946 19.9549C87.0946 20.2857 86.9844 20.6164 86.654 20.5062C84.8915 20.0652 83.129 20.8369 81.3665 20.1754C79.7142 19.6241 77.9517 19.2934 76.2993 18.7421C74.8673 18.3011 73.3251 18.0806 72.0033 17.0883C72.0033 17.0883 72.0033 16.8678 72.0033 16.6473Z" fill="#EE0000"/>
<path d="M67.4869 15.3242C65.3939 14.2216 63.1908 13.3396 61.208 12.1268C61.4283 12.1268 61.7588 12.0165 61.9791 12.0165C64.0721 12.678 66.0549 13.7806 67.9275 14.8832C67.8173 15.1037 67.7072 15.2139 67.4869 15.3242Z" fill="#EE0000"/>
<path d="M67.4869 15.3242C67.597 15.2139 67.8173 14.9934 67.9275 14.8832C69.2494 15.4344 70.5712 16.096 72.0033 16.6473C72.0033 16.8678 72.0033 17.0883 72.0033 17.1985C70.3509 17.0883 68.9189 16.3165 67.4869 15.3242Z" fill="#EE0000"/>
<path d="M61.9791 12.0165C61.7588 12.0165 61.4283 12.1268 61.208 12.1268C60.1064 11.9063 59.1151 11.2447 58.1237 10.6934C58.344 10.5832 58.4541 10.4729 58.6744 10.2524C59.776 10.914 60.9877 11.1345 61.9791 12.0165Z" fill="#EE0000"/>
<path d="M61.5385 15.5447C62.7502 15.4344 63.8517 15.5447 65.1736 16.537C63.7416 16.3165 62.64 16.2062 61.5385 15.9857C61.5385 15.8754 61.5385 15.7652 61.5385 15.5447Z" fill="#EE0000"/>
<path d="M58.6744 10.3627C58.4541 10.4729 58.344 10.5832 58.1237 10.8037C57.5729 10.9139 57.2424 10.6934 56.9119 10.3627V10.1422C57.4627 10.0319 58.1237 9.8114 58.6744 10.3627Z" fill="#EE0000"/>
<path d="M56.8018 10.1422V10.3627C56.4713 10.473 56.251 10.5832 55.9205 10.5832C55.8104 10.5832 55.4799 10.6935 55.4799 10.3627C55.3697 9.92168 55.7002 9.92169 55.9205 9.92169C56.251 9.92169 56.5815 9.81141 56.8018 10.1422Z" fill="#EE0000"/>
<path d="M32.4574 141.346C32.0168 141.677 31.5761 141.677 31.2457 141.236C31.1355 141.126 31.1355 140.795 31.3558 140.795C31.7964 140.574 32.2371 140.795 32.4574 141.346Z" fill="#EE0000"/>
<path d="M68.8087 4.51917C69.3595 3.96789 69.9103 3.41661 71.0119 3.41661C70.6814 4.40891 69.8001 4.4089 69.2494 4.96018C69.1392 4.73967 69.0291 4.62942 68.8087 4.51917Z" fill="#EE0000"/>
<path d="M72.8845 3.08583C72.2236 3.52685 71.783 3.63712 71.3423 3.41661C71.122 2.86533 71.5627 2.86533 71.783 2.86533C72.0033 2.97559 72.2236 2.97557 72.8845 3.08583Z" fill="#EE0000"/>
<path d="M81.697 12.3473C81.8071 11.9062 81.5868 11.355 82.0274 11.0242C82.1376 11.1345 82.2478 11.2447 82.3579 11.2447C82.3579 11.6857 82.3579 12.1268 82.1376 12.5678C82.0274 12.5678 81.9173 12.4575 81.697 12.3473Z" fill="#EE0000"/>
<path d="M82.1376 11.1345C82.2477 10.8037 82.3579 10.5832 82.468 10.1422C82.7985 10.5832 82.7985 11.0242 82.468 11.355C82.2477 11.2447 82.1376 11.1345 82.1376 11.1345Z" fill="#EE0000"/>
<path d="M68.0377 6.06273C67.9275 6.28324 67.7072 6.39348 67.597 6.28322C67.2665 6.06271 67.4869 5.84223 67.7072 5.62172C67.8173 5.84223 67.9275 5.95248 68.0377 6.06273Z" fill="#EE0000"/>
<path d="M68.4783 5.62172C68.4783 5.84223 68.258 5.95248 68.0377 6.06273C67.9275 5.95248 67.8173 5.84223 67.7072 5.62172C67.8173 5.51146 68.0376 5.29093 68.1478 5.18067C68.258 5.40118 68.3681 5.51146 68.4783 5.62172Z" fill="#EE0000"/>
<path d="M68.8087 5.18067C68.8087 5.40118 68.5884 5.51146 68.3681 5.62172C68.258 5.51146 68.1478 5.29093 68.0377 5.18067C68.1478 5.07041 68.258 4.96017 68.4783 4.84992C68.5884 4.96017 68.6986 5.07041 68.8087 5.18067Z" fill="#EE0000"/>
<path d="M68.4783 4.84992C68.5884 4.73966 68.6986 4.62942 68.8087 4.51917C68.9189 4.62942 69.1392 4.73966 69.2494 4.84992C69.1392 4.96017 68.9189 5.07042 68.8087 5.29093C68.6986 5.07042 68.5884 4.96017 68.4783 4.84992Z" fill="#EE0000"/>
<path d="M34.991 102.757C34.991 102.536 35.1011 102.426 35.3214 102.426C35.8722 102.646 35.8722 103.198 35.8722 103.749C35.2113 103.639 35.1011 103.308 34.991 102.757Z" fill="#EE0000"/>
<path d="M80.5954 42.888C81.036 42.447 81.697 42.447 82.2477 42.3367C82.2477 42.7778 82.2477 43.2188 82.2477 43.6598C81.5868 43.6598 80.8157 43.9906 80.5954 42.888Z" fill="#EE0000"/>
<path d="M77.7314 42.888C77.8415 42.888 78.0618 42.888 78.172 42.888C78.172 42.9983 78.2821 43.1085 78.2821 43.2188C78.3923 43.4393 78.5024 43.77 78.172 43.8803C77.8415 43.9906 77.7314 43.6598 77.7314 43.4393C77.7314 43.329 77.7314 43.1085 77.7314 42.888Z" fill="#EE0000"/>
</svg>
