<svg width="104" height="111" viewBox="0 0 104 111" fill="none" xmlns="http://www.w3.org/2000/svg">
<path d="M26.6426 20.1903C27.7426 18.5903 28.9426 17.2903 30.8426 16.6903C31.2426 16.5903 31.6426 16.2903 31.9426 16.0903C33.9426 14.6903 36.1426 14.2903 38.4426 14.5903C39.3426 14.6903 39.4426 14.4903 39.7426 13.5903C40.0426 12.5903 39.8426 11.3903 40.9426 10.6903C41.0426 10.6903 41.1426 10.4903 41.0426 10.3903C39.7426 8.59025 41.8426 7.29025 41.7426 5.69025C41.7426 5.09025 41.8426 4.59025 41.4426 4.19025C40.5426 3.49025 40.7426 2.49025 40.7426 1.59025C40.7426 0.990251 41.1426 0.690254 41.5426 0.390254C42.1426 -0.109746 44.5426 -0.109748 45.1426 0.290252C46.2426 1.09025 46.7426 3.09025 46.0426 4.19025C45.6426 4.89025 45.1426 5.39025 44.3426 5.39025C43.7426 5.39025 43.3426 5.49025 43.1426 6.29025C42.4426 8.79025 41.6426 11.2903 40.8426 13.7903C40.5426 14.6903 40.7426 15.0903 41.5426 15.2903C43.0426 15.6903 44.3426 16.4903 45.6426 17.3903C48.0426 19.2903 49.4426 21.8903 50.8426 24.4903C52.1426 26.6903 53.5426 28.8903 55.1426 30.8903C56.7426 32.7903 58.9426 33.3903 61.4426 33.0903C64.9426 32.6903 68.4426 32.1903 71.8426 31.4903C76.1426 30.6903 80.6426 30.1903 85.0426 30.9903C87.0426 31.3903 89.2426 31.6903 90.5426 33.5903C91.0426 34.2903 91.4426 34.9903 91.4426 35.7903C91.5426 38.4903 91.2426 41.0903 89.1426 43.0903C87.6426 44.5903 85.8426 45.7903 83.9426 46.7903C83.6426 46.9903 83.1426 46.8903 83.0426 47.4903C84.5426 48.2903 86.0426 49.4903 87.1426 50.7903C88.0426 51.8903 89.2426 51.3903 90.1426 51.4903C90.9426 51.5903 91.6426 51.4903 91.9426 52.2903C92.3426 53.2903 92.6426 54.4903 91.6426 55.3903C90.8426 56.1903 89.7426 56.4903 88.7426 56.0903C87.7426 55.6903 86.9426 54.3903 87.0426 53.2903C87.0426 52.8903 87.2426 52.4903 86.9426 52.2903C85.3426 51.0903 84.0426 49.4903 82.2426 48.4903C81.6426 48.0903 81.2426 48.2903 80.7426 48.5903C77.4426 51.1903 74.9426 54.2903 74.9426 58.7903C74.5426 58.9903 73.9426 58.2903 73.5426 58.8903C72.9426 57.8903 73.3426 56.8903 73.6426 55.8903C73.9426 55.0903 73.8426 54.6903 72.9426 54.2903C71.8426 53.8903 70.8426 53.1903 69.8426 52.6903C69.0426 52.2903 68.5426 51.6903 68.2426 50.9903C68.0426 50.3903 67.7426 49.6903 68.4426 49.0903C69.0426 48.5903 69.7426 48.4903 70.4426 48.8903C71.9426 49.7903 73.2426 50.7903 74.5426 51.9903C74.5426 52.0903 74.5426 52.1903 74.5426 52.2903C73.8426 52.9903 73.1426 52.1903 72.4426 52.2903C71.7426 51.1903 70.7426 50.4903 69.3426 49.9903C69.9426 51.6903 71.1426 52.0903 72.3426 52.4903C72.6426 53.0903 73.2426 52.9903 73.7426 53.2903C74.5426 53.6903 74.6426 53.0903 74.8426 52.5903C74.9426 52.3903 74.9426 52.1903 75.0426 51.9903C75.2426 51.8903 75.4426 51.6903 75.6426 51.5903C76.6426 51.0903 76.6426 51.0903 76.1426 49.6903C76.7426 50.0903 77.0426 49.6903 77.3426 49.2903C78.2426 48.4903 79.1426 47.5903 80.0426 46.6903C79.0426 45.3903 77.6426 44.3903 76.3426 42.8903C78.2426 43.1903 79.3426 44.3903 80.5426 45.2903C81.0426 45.6903 81.4426 45.9903 82.1426 45.5903C82.9426 45.1903 82.4426 44.5903 82.3426 44.1903C81.5426 40.3903 80.6426 36.5903 79.8426 32.7903C79.7426 32.0903 79.3426 31.8903 78.8426 31.9903C76.7426 32.1903 74.5426 32.0903 72.4426 32.6903C71.9426 32.7903 71.6426 33.0903 71.5426 33.6903C71.4426 34.8903 71.4426 36.0903 71.7426 37.2903C71.3426 37.2903 71.1426 37.2903 71.0426 36.9903C70.6426 36.0903 70.4426 35.1903 70.7426 34.2903C70.9426 33.7903 70.9426 33.2903 70.4426 32.9903C69.8426 32.6903 68.6426 33.4903 68.5426 34.1903C68.4426 35.4903 68.3426 36.6903 68.7426 37.9903C68.0426 37.9903 67.9426 37.4903 67.8426 37.0903C67.5426 36.1903 67.5426 35.2903 67.7426 34.3903C67.8426 34.0903 67.9426 33.5903 67.3426 33.5903C66.9426 33.4903 66.5426 33.5903 66.4426 34.0903C66.3426 34.3903 66.3426 34.6903 66.2426 34.9903C66.0426 36.3903 66.1426 37.7903 66.5426 39.1903C66.1426 39.0903 65.9426 38.7903 65.8426 38.4903C65.4426 37.2903 65.3426 36.0903 65.5426 34.8903C65.6426 34.1903 65.6426 33.6903 64.6426 33.8903C63.1426 34.0903 61.7426 34.4903 60.2426 34.3903C59.8426 34.3903 59.6426 34.5903 59.4426 34.9903C59.1426 35.6903 59.2426 36.4903 58.6426 37.3903C58.6426 36.5903 58.6426 36.0903 58.6426 35.4903C58.7426 34.1903 58.6426 34.0903 57.0426 34.3903C56.9426 34.3903 56.8426 34.3903 56.6426 34.3903C56.6426 33.9903 56.4426 33.7903 56.1426 33.5903C55.5426 33.2903 54.8426 33.1903 54.4426 32.5903C53.8426 31.8903 53.3426 32.3903 52.9426 32.8903C52.3426 33.5903 51.8426 34.4903 51.3426 35.2903C51.2426 34.0903 51.6426 33.0903 52.3426 32.3903C53.2426 31.5903 52.9426 30.8903 52.3426 30.1903C50.0426 27.3903 48.6426 24.1903 46.6426 21.1903C45.7426 19.7903 44.5426 18.4903 43.1426 17.7903C42.0426 17.1903 40.9426 15.6903 39.2426 16.7903C39.2426 16.7903 38.9426 16.6903 38.9426 16.5903C38.8426 15.4903 37.9426 15.8903 37.3426 15.7903C34.2426 15.2903 32.1426 17.1903 29.5426 18.4903C30.2426 19.0903 30.9426 18.9903 31.2426 19.5903C30.5426 19.9903 29.9426 19.3903 29.2426 19.2903C28.2426 19.0903 27.9426 19.4903 27.9426 20.6903C27.8426 21.1903 27.4426 20.0903 26.6426 20.1903ZM83.9426 44.8903C85.6426 44.1903 86.8426 43.0903 88.0426 41.9903C89.8426 40.3903 89.9426 38.1903 89.8426 36.0903C89.8426 34.8903 89.0426 33.9903 87.9426 33.4903C85.8426 32.5903 83.6426 32.1903 81.1426 32.5903C82.1426 36.7903 83.0426 40.7903 83.9426 44.8903ZM44.9426 2.79025C44.9426 2.09025 44.2426 1.39025 43.5426 1.39025C42.5426 1.39025 42.0426 1.79025 42.0426 2.59025C42.0426 3.19025 42.9426 4.09025 43.6426 4.09025C44.2426 4.19025 44.9426 3.49025 44.9426 2.79025ZM90.6426 54.3903C90.5426 54.2903 90.4426 54.1903 90.4426 54.1903C90.2426 54.1903 89.7426 54.0903 89.8426 54.3903C89.9426 54.6903 90.3426 54.5903 90.6426 54.3903Z" fill="#EE0000"/>
<path d="M17.0426 50.7903C18.4426 49.2903 19.8426 47.8903 21.2426 46.3903C21.8426 45.7903 22.0426 45.1903 21.2426 44.5903C18.7426 42.4903 16.9426 39.7903 14.5426 37.5903C13.5426 36.6903 12.4426 35.6903 11.7426 34.3903C11.2426 33.4903 10.5426 32.9903 9.44257 33.4903C8.14257 34.0903 7.14258 33.3903 6.54258 32.4903C5.84258 31.4903 4.84257 30.3903 5.94257 28.8903C6.44257 28.1903 6.54257 27.1903 7.64257 26.8903C9.44257 26.3903 11.5426 27.6903 11.8426 29.6903C11.9426 29.9903 11.9426 30.2903 11.9426 30.5903C11.5426 32.0903 12.4426 32.9903 13.3426 34.0903C15.5426 36.6903 17.7426 39.3903 20.0426 41.9903C20.8426 42.8903 21.8426 43.4903 22.4426 44.5903C24.6426 42.4903 24.7426 40.1903 23.8426 37.6903C22.9426 35.0903 22.7426 32.4903 23.0426 29.7903C23.3426 26.7903 24.2426 23.8903 25.9426 21.2903C26.6426 21.2903 27.3426 21.3903 28.0426 21.3903C27.5426 21.7903 26.8426 21.9903 27.0426 22.9903C28.2426 23.0903 29.6426 22.6903 30.9426 23.8903C29.4426 23.7903 28.2426 23.5903 27.0426 23.9903C26.4426 24.1903 25.9426 24.2903 25.8426 24.9903C25.5426 26.0903 25.1426 27.0903 24.8426 28.1903C24.2426 31.3903 24.5426 34.4903 25.4426 37.5903C26.0426 39.7903 25.9426 39.7903 28.3426 40.0903C28.4426 40.0903 28.4426 40.2903 28.6426 40.3903C28.0426 40.9903 27.3426 40.7903 26.6426 40.6903C26.4426 40.6903 26.0426 40.4903 26.0426 40.6903C25.9426 41.1903 25.7426 41.7903 25.8426 42.2903C25.9426 42.7903 26.4426 42.7903 26.8426 42.8903C27.6426 42.9903 28.5426 42.7903 29.4426 42.5903C28.3426 43.9903 27.4426 44.3903 26.0426 43.7903C25.0426 43.3903 24.7426 43.5903 24.3426 44.3903C24.1426 44.6903 23.9426 44.9903 23.7426 45.3903C24.6426 45.6903 25.0426 46.3903 25.4426 47.0903C26.2426 46.7903 26.3426 45.6903 27.4426 45.8903C26.3426 48.5903 25.1426 50.5903 24.3426 51.0903C24.0426 50.3903 24.5426 49.7903 24.7426 49.1903C25.1426 47.7903 25.2426 47.7903 24.0426 46.8903C23.7426 46.6903 23.4426 46.1903 22.9426 46.2903C21.5426 47.9903 20.0426 49.6903 18.3426 51.0903C17.7426 51.0903 17.2426 51.1903 17.0426 50.7903Z" fill="#EE0000"/>
<path d="M56.8426 101.29C55.8426 104.19 53.8426 106.19 51.4426 107.79C49.1426 109.29 46.8426 110.59 44.0426 110.89C41.7426 111.19 39.5426 110.79 37.2426 110.59C35.9426 110.49 34.7426 109.89 33.4426 109.69C31.1426 109.39 28.4426 105.79 28.5426 103.69C28.5426 103.29 28.5426 102.79 28.4426 102.39C28.3426 99.8902 29.4426 98.0902 31.6426 96.9902C34.0426 95.7902 36.3426 94.2903 38.5426 92.7903C39.0426 92.7903 39.5426 92.7903 40.1426 92.7903C40.0426 93.5903 38.9426 93.9903 39.1426 95.0903C41.4426 94.1903 42.6426 92.3902 44.0426 90.5902C43.5426 93.0902 41.5426 94.4902 39.8426 95.9902C39.9426 96.8902 40.7426 97.1902 41.0426 97.9902C39.8426 98.0902 39.3426 97.2903 38.6426 96.5903C38.1426 97.1903 37.4426 97.3903 36.9426 97.7903C37.0426 98.6903 38.0426 98.9903 38.4426 99.7903C37.2426 99.6903 37.1426 99.7903 36.5426 99.0903C35.9426 98.4903 35.6426 98.5902 35.0426 98.9902C33.9426 99.7902 33.0426 100.59 32.7426 101.99C32.6426 102.49 32.8426 103.09 32.4426 103.49C32.0426 103.29 31.8426 102.99 31.8426 102.59C31.7426 101.19 32.4426 100.19 33.2426 99.2903C33.5426 98.9903 33.7426 98.7902 33.4426 98.3902C33.1426 97.9902 32.7426 98.2902 32.4426 98.3902C31.6426 98.6902 31.1426 99.1902 30.6426 99.8902C29.3426 101.99 29.8426 104.09 30.9426 105.99C31.9426 107.79 33.7426 108.39 35.7426 108.49C35.8426 105.59 35.9426 105.29 37.4426 104.49C37.3426 105.49 36.6426 106.19 36.7426 107.19C36.9426 108.69 36.9426 108.79 38.4426 108.89C38.6426 108.19 38.2426 107.29 39.0426 106.69C39.5426 107.19 39.2426 107.79 39.3426 108.29C39.4426 109.09 39.9426 109.19 40.5426 109.19C41.2426 109.19 41.1426 108.69 41.1426 108.29C41.1426 107.09 41.6426 105.99 42.0426 104.89C42.1426 104.59 42.2426 104.19 42.8426 104.39C42.5426 105.49 42.1426 106.59 41.9426 107.79C41.7426 108.79 42.0426 109.09 42.9426 109.19C44.2426 109.29 44.7426 108.99 44.8426 108.19C45.0426 107.09 44.9426 105.79 45.8426 104.59C46.0426 105.99 45.4426 107.09 45.6426 108.29C45.5426 108.39 45.5426 108.59 45.6426 108.69C45.8426 108.79 45.9426 108.69 46.0426 108.59C49.1426 107.49 51.8426 105.89 53.7426 103.19C54.5426 102.19 55.1426 100.99 55.8426 99.9902C56.1426 100.49 56.4426 100.99 56.8426 101.29ZM38.2426 94.9902C37.4426 95.6902 36.2426 95.6903 36.5426 97.2903C37.1426 96.3903 38.4426 96.6902 38.2426 94.9902ZM35.4426 97.3902C35.3426 97.2902 35.2426 96.9902 35.1426 96.9902C34.6426 97.0902 34.1426 97.1903 34.1426 97.7903C34.1426 97.8903 34.3426 98.1902 34.4426 98.1902C34.9426 98.1902 35.3426 97.9902 35.4426 97.3902Z" fill="#EE0000"/>
<path d="M93.7426 70.1902C95.9426 70.2902 98.1426 70.4902 100.343 71.1902C102.943 71.9902 104.043 73.7902 103.943 76.4902C103.743 79.8902 102.043 82.2902 99.4426 84.1902C97.4426 85.6902 95.1426 86.4903 92.7426 86.8903C88.0426 87.6903 83.4426 86.8902 78.9426 85.5902C79.0426 84.9902 79.4426 84.4903 79.3426 83.7903C79.6426 82.4903 79.9426 81.1903 80.9426 80.2903C81.1426 80.0903 81.4426 79.8902 81.7426 79.9902C82.0426 80.1902 82.1426 80.4903 81.9426 80.7903C81.7426 81.2903 81.4426 81.6902 81.5426 82.1902C82.9426 82.5902 82.9426 82.5903 83.5426 81.2903C83.9426 80.3903 84.2426 79.4902 84.6426 78.5902C84.8426 78.1902 85.0426 77.6902 85.5426 77.9902C86.0426 78.2902 85.8426 78.6902 85.6426 79.0902C84.8426 80.7902 84.5426 82.5902 83.7426 84.1902C83.6426 84.3902 83.4426 84.5903 83.6426 84.8903C84.1426 85.5903 84.9426 85.1903 85.5426 85.3903C85.9426 85.4903 86.2426 85.2903 86.2426 84.7903C86.3426 83.7903 86.9426 82.9902 87.3426 82.0902C87.6426 81.3902 88.7426 80.8902 89.1426 81.0902C89.7426 81.5902 89.8426 82.1903 89.5426 82.8903C89.2426 83.6903 88.9426 84.5902 88.6426 85.5902C91.8426 85.6902 94.8426 84.9903 97.5426 83.3903C100.143 81.8903 102.043 79.7902 102.343 76.5902C102.643 73.8902 101.643 73.3902 99.9426 72.5902C99.4426 72.3902 98.8426 71.8902 98.4426 72.4902C98.1426 72.9902 98.4426 73.5903 98.9426 73.8903C99.5426 74.2903 99.7426 74.8902 100.043 75.5902C99.6426 75.3902 99.3426 75.0903 98.9426 74.8903C98.3426 74.3903 97.7426 74.1902 97.2426 74.9902C97.1426 75.1902 96.9426 75.3902 96.7426 75.4902C96.6426 75.5902 96.4426 75.4902 96.2426 75.4902C95.8426 74.8902 96.7426 74.4903 96.3426 73.8903C95.8426 73.4903 95.2426 73.8903 94.7426 73.7903C94.4426 73.4903 93.9426 73.2902 94.1426 72.6902C94.9426 72.6902 95.8426 72.6903 96.6426 72.7903C97.0426 72.7903 97.2426 72.6903 97.2426 72.2903C97.2426 71.9903 97.0426 71.6903 96.8426 71.7903C95.8426 71.9903 94.7426 71.0902 93.9426 72.1902C93.7426 72.3902 93.6426 72.3902 93.6426 71.4902C94.5426 71.2902 93.9426 70.7902 93.7426 70.1902ZM82.7426 83.4902C82.1426 83.1902 81.6426 83.3903 81.1426 83.2903C80.6426 83.2903 80.4426 83.7902 80.4426 84.1902C80.3426 84.6902 80.8426 84.6903 81.1426 84.7903C82.5426 85.2903 82.1426 83.9902 82.7426 83.4902Z" fill="#EE0000"/>
<path d="M17.0426 50.7903C17.3426 51.2903 17.7426 51.1903 18.2426 51.1903C18.0426 53.2903 18.8426 55.0903 19.6426 56.9903C17.9426 55.8903 17.6426 54.1903 17.3426 52.3903C16.6426 52.5903 16.2426 52.9903 16.3426 53.6903C16.4426 54.2903 16.5426 54.8903 16.6426 55.4903C16.8426 56.5903 17.6426 57.5903 17.9426 58.9903C16.1426 57.5903 16.2426 55.5903 15.4426 54.0903C14.6426 54.1903 14.2426 54.6903 13.8426 55.0903C12.6426 55.9903 12.5426 55.9903 13.0426 57.4903C14.1426 60.5903 15.2426 63.7903 16.5426 66.7903C17.2426 68.4903 18.0426 69.6903 20.1426 69.3903C20.1426 69.7903 20.1426 70.2902 20.1426 70.6902C16.2426 70.9902 12.3426 71.6903 8.34258 70.8903C6.34258 70.4903 4.34257 70.1903 2.94257 68.3903C2.84257 67.7903 3.34256 67.5903 3.64256 67.2903C4.24256 67.8903 4.94256 68.1902 5.64256 68.5902C8.04256 69.6902 10.5426 69.6903 13.0426 69.7903C14.1426 69.7903 15.1426 69.7902 16.3426 69.4902C14.1426 65.3902 12.8426 61.0903 11.4426 56.8903C10.9426 56.7903 10.6426 57.0903 10.2426 57.1903C8.64257 57.9903 8.54257 58.3903 9.24257 60.0903C9.44257 60.5903 9.94257 61.0903 9.94257 61.7903C9.04257 61.6903 8.94256 60.8903 8.64256 60.3903C8.24256 59.7903 8.24257 58.9903 7.74257 58.3903C6.94257 59.2903 6.94257 59.2903 7.24257 60.1903C7.64257 61.3903 8.14256 62.5902 8.64256 64.0902C6.74256 62.9902 6.74257 61.1903 6.04257 59.7903C5.44257 60.0903 4.94257 60.2903 4.44257 60.5903C3.94257 60.2903 3.44258 60.1903 2.84258 60.1903C4.84258 58.0903 7.44256 56.6903 10.1426 55.5903C12.5426 54.5903 14.4426 52.8903 16.5426 51.2903C16.6426 50.9903 16.8426 50.8903 17.0426 50.7903Z" fill="#EE0000"/>
<path d="M40.1426 92.8903C39.6426 92.8903 39.1426 92.8903 38.5426 92.8903C41.0426 90.1903 40.5426 86.9903 39.7426 83.8903C38.5426 79.6903 36.6426 75.7903 34.8426 71.7903C35.1426 71.1903 35.4426 71.2902 35.8426 71.6902C36.2426 71.9902 36.5426 72.3903 37.0426 72.3903C37.1426 73.2903 37.5426 73.9902 38.0426 74.6902C38.6426 74.0902 39.1426 73.6902 39.8426 73.4902C40.2426 73.3902 40.6426 73.4903 40.7426 73.8903C40.8426 74.1903 40.6426 74.4902 40.3426 74.5902C39.9426 74.6902 39.7426 74.8902 39.4426 75.1902C38.6426 76.0902 38.6426 76.3902 39.3426 77.5902C39.7426 77.6902 39.8426 77.2902 40.1426 77.1902C40.6426 76.9902 40.9426 76.0902 41.4426 76.6902C41.8426 77.1902 41.2426 77.6902 40.9426 78.0902L40.8426 78.1902C39.6426 78.7902 39.9426 79.6902 40.4426 80.5902C40.5426 80.6902 40.5426 80.8902 40.6426 81.0902C41.2426 80.7902 41.1426 79.8903 41.8426 79.7903C42.0426 79.9903 41.9426 80.2902 41.8426 80.4902C41.1426 81.5902 41.0426 82.6902 41.4426 83.9902C41.9426 85.3902 41.9426 86.9902 41.8426 88.4902C41.8426 90.0902 41.6426 91.7903 40.1426 92.8903Z" fill="#EE0000"/>
<path d="M73.5426 59.0903C73.9426 58.4903 74.4426 59.1903 74.9426 58.9903C75.4426 61.8903 76.4426 64.3903 78.7426 66.3903C80.0426 67.5903 81.6426 67.8903 83.2426 68.3903C86.2426 69.3903 89.4426 69.7902 92.6426 70.1902C92.4426 70.5902 92.2426 70.9902 92.2426 71.4902C91.5426 71.6902 90.8426 71.2903 90.0426 71.2903C89.8426 70.8903 89.5426 70.7903 89.2426 71.2903C87.5426 71.0903 87.5426 71.0903 87.2426 72.3903C86.9426 72.3903 86.7426 72.3903 86.4426 72.3903C86.5426 71.2903 85.9426 70.6902 84.9426 70.5902C83.9426 70.4902 83.0426 69.9903 82.1426 69.7903C76.4426 68.1903 73.7426 63.4903 73.5426 59.0903Z" fill="#EE0000"/>
<path d="M37.0426 72.3903C36.4426 72.3903 36.1426 71.9902 35.8426 71.6902C35.4426 71.3902 35.1426 71.2903 34.8426 71.7903C33.9426 71.6903 33.6426 70.7903 32.9426 70.3903C30.9426 69.1903 28.8426 69.0903 26.6426 69.1903C26.7426 68.7903 26.9426 68.2903 26.6426 67.8903C27.2426 67.6903 27.8426 67.5903 28.4426 67.3903C28.0426 66.5903 27.7426 65.8903 27.4426 65.1903C27.0426 64.2903 26.4426 63.3903 26.3426 62.2903C26.2426 60.8903 26.7426 59.7903 27.6426 59.4903C28.5426 59.2903 29.2426 59.9903 29.7426 61.5903C29.3426 61.5903 29.0426 61.5903 28.6426 61.5903C28.5426 61.2903 28.3426 60.9903 28.0426 60.9903C27.6426 60.9903 27.6426 61.3903 27.5426 61.5903C27.4426 61.9903 27.4426 62.2903 27.6426 62.6903C27.9426 63.5903 28.3426 64.4903 28.9426 65.2903C28.9426 65.4903 28.9426 65.6903 29.0426 65.8903C29.5426 67.9903 31.5426 67.9903 32.9426 68.6903C33.6426 68.2903 33.1426 67.4903 33.6426 67.1903C33.9426 67.3903 34.2426 67.4903 34.6426 67.6903C34.0426 69.4903 35.0426 70.3903 36.3426 71.1903C37.0426 70.5903 37.3426 69.9903 37.7426 69.3903C38.0426 69.0903 38.4426 68.6903 38.8426 68.9903C39.2426 69.2903 39.0426 69.6903 38.7426 70.0903C38.1426 70.7903 37.6426 71.5903 37.0426 72.3903Z" fill="#EE0000"/>
<path d="M79.2426 83.8903C79.3426 84.4903 78.9426 85.0902 78.8426 85.6902C76.9426 85.2902 75.1426 84.4902 73.2426 84.1902C70.9426 83.7902 68.7426 83.6902 66.5426 84.5902C66.4426 83.9902 66.8426 83.4903 66.9426 82.8903C67.9426 82.3903 69.5426 82.5902 69.1426 80.6902C68.6426 80.1902 67.9426 80.8902 67.4426 80.4902C69.7426 78.9902 73.6426 79.4903 75.1426 80.8903C74.6426 81.1903 74.2426 80.8903 73.7426 80.7903C73.0426 80.6903 72.3426 80.3903 71.5426 80.3903C71.0426 80.2903 70.3426 80.0902 70.3426 80.9902C70.3426 81.6902 70.2426 82.3903 71.2426 82.3903C72.5426 82.3903 73.7426 82.8902 75.0426 83.0902C76.5426 83.2902 77.7426 84.0903 79.2426 83.8903Z" fill="#EE0000"/>
<path d="M66.9426 82.8903C66.9426 83.4903 66.4426 83.9902 66.5426 84.5902C66.4426 84.6902 66.3426 84.6903 66.2426 84.6903C65.7426 84.4903 65.0426 83.9903 65.1426 85.1903C65.1426 85.2903 65.1426 85.2903 65.0426 85.3903C63.0426 86.1903 61.9426 87.9903 60.6426 89.5903C60.2426 89.4903 60.1426 88.7903 59.5426 88.7903C59.4426 88.1903 60.0426 87.8903 60.0426 87.1903C58.8426 86.6903 57.6426 86.2903 56.4426 85.7903C55.6426 85.4903 54.8426 85.0903 54.4426 84.2903C54.0426 83.3903 54.3426 82.7903 55.2426 82.6903C55.6426 82.6903 56.2426 82.5903 56.5426 82.7903C57.6426 83.5903 59.0426 84.0903 59.7426 85.3903C60.2426 86.2903 60.8426 86.2903 61.6426 85.6903C62.1426 85.2903 62.5426 84.8903 63.1426 84.6903C63.6426 84.5903 64.0426 84.3903 64.2426 83.8903C65.2426 83.5903 65.9426 82.9903 66.9426 82.8903Z" fill="#EE0000"/>
<path d="M59.6426 88.7903C60.2426 88.7903 60.2426 89.3902 60.7426 89.5902C60.0426 91.5902 59.8426 93.5903 59.2426 95.5903C58.7426 97.3903 58.3426 99.1903 57.3426 100.79C56.7426 100.49 57.0426 101.09 56.8426 101.29C56.5426 100.89 56.2426 100.49 56.0426 99.9902C57.1426 97.2902 57.8426 94.4902 58.3426 91.4902C57.3426 90.9902 56.2426 90.8903 55.2426 90.3903C54.7426 90.1903 54.3426 89.8903 54.2426 89.3903C54.2426 89.1903 54.2426 88.9903 54.3426 88.8903C54.4426 88.6903 54.6426 88.6903 54.8426 88.7903C55.3426 88.9903 55.8426 89.2902 56.3426 89.4902C58.3426 90.4902 58.4426 90.4903 59.6426 88.7903Z" fill="#EE0000"/>
<path d="M3.54257 67.2903C3.24257 67.5903 2.74257 67.8903 2.84257 68.3903C2.04257 68.0903 1.54257 67.4903 1.04257 66.8903C-0.557434 64.9903 -0.257434 63.3903 1.54257 61.1903C1.84257 60.7903 2.34256 60.4903 2.74256 60.0903C3.24256 60.0903 3.84257 60.1903 4.34257 60.4903C3.74257 61.0903 3.14256 61.4903 2.64256 62.1903C1.24256 64.0903 0.94257 65.1902 2.84257 66.4902C3.14257 66.6902 3.34257 66.9903 3.54257 67.2903Z" fill="#EE0000"/>
<path d="M20.0426 70.6902C20.0426 70.2902 20.0426 69.7903 20.0426 69.3903C21.8426 68.6903 23.8426 68.5902 25.6426 67.9902C25.6426 68.4902 25.6426 68.9902 24.9426 68.9902C24.4426 68.9902 24.1426 69.1902 24.1426 69.6902C22.7426 69.9902 21.4426 70.7902 20.0426 70.6902Z" fill="#EE0000"/>
<path d="M28.0426 21.3903C27.3426 21.3903 26.6426 21.2903 25.9426 21.2903C26.1426 20.8903 26.3426 20.4903 26.7426 20.1903C27.5426 20.0903 27.9426 21.0903 28.7426 20.8903C29.6426 20.8903 30.5426 20.7903 31.3426 21.5903C30.0426 21.9903 29.0426 21.4903 28.0426 21.3903Z" fill="#EE0000"/>
<path d="M24.0426 69.7903C24.0426 69.2903 24.4426 69.0902 24.8426 69.0902C25.5426 69.0902 25.5426 68.5902 25.5426 68.0902C25.9426 68.0902 26.2426 67.9902 26.6426 67.9902C26.9426 68.3902 26.8426 68.8903 26.6426 69.2903C25.8426 69.5903 25.0426 69.9903 24.0426 69.7903Z" fill="#EE0000"/>
<path d="M92.2426 71.5902C92.2426 71.0902 92.4426 70.6903 92.6426 70.2903C93.0426 70.2903 93.4426 70.0903 93.7426 70.2903C93.9426 70.7903 94.4426 71.2903 93.6426 71.7903C93.2426 71.6903 92.7426 71.5902 92.2426 71.5902Z" fill="#EE0000"/>
<path d="M66.2426 84.6903C65.7426 84.4903 65.0426 83.9903 65.1426 85.1903C65.5426 84.9903 66.0426 85.0903 66.2426 84.6903Z" fill="#EE0000"/>
<path d="M56.8426 101.29C57.0426 101.09 56.6426 100.49 57.3426 100.79C57.2426 101.09 57.0426 101.19 56.8426 101.29Z" fill="#EE0000"/>
<path d="M75.7426 51.8903C75.8426 51.1903 75.3426 50.7903 74.9426 50.2903C74.0426 49.2903 73.4426 48.1903 72.8426 47.0903C72.6426 46.6903 72.6426 46.2903 72.9426 46.0903C73.3426 45.7903 73.6426 46.1903 73.8426 46.4903C74.6426 47.6903 75.4426 48.8903 76.1426 49.9903C76.8426 51.3903 76.8426 51.4903 75.7426 51.8903Z" fill="#EE0000"/>
<path d="M57.5426 34.7903C57.2426 35.3903 57.0426 35.9903 56.7426 36.7903C56.4426 35.8903 56.7426 35.2903 57.2426 34.7903C57.2426 34.6903 57.4426 34.6903 57.5426 34.7903Z" fill="#EE0000"/>
<path d="M54.3426 34.3903C53.9426 33.5903 55.0426 33.4903 54.9426 32.8903C54.5426 33.3903 54.8426 34.0903 54.3426 34.3903Z" fill="#EE0000"/>
<path d="M87.7426 75.2903C88.3426 73.8903 88.3426 73.6902 86.9426 73.5902C85.4426 73.3902 84.1426 72.9902 82.9426 72.1902C84.1426 72.0902 85.2426 72.6903 86.4426 72.3903C86.7426 72.3903 86.9426 72.3903 87.2426 72.3903C88.7426 73.0903 88.7426 73.0903 89.2426 71.2903C89.5426 70.7903 89.7426 70.8903 90.0426 71.2903C90.1426 73.0903 90.2426 73.0902 91.8426 73.1902C92.3426 73.1902 92.8426 73.0902 93.3426 73.0902C93.6426 73.0902 93.9426 72.9902 94.2426 72.9902C94.0426 73.5902 94.4426 73.7902 94.8426 74.0902C94.3426 74.2902 93.7426 74.1903 93.4426 74.8903C93.0426 75.6903 92.2426 75.9902 91.2426 76.1902C91.2426 75.3902 92.2426 75.2902 92.2426 74.4902C91.4426 74.1902 90.6426 74.3903 89.8426 74.2903C89.4426 74.1903 89.1426 74.3903 89.0426 74.7903C88.7426 75.2903 88.4426 75.5903 87.7426 75.2903Z" fill="#EE0000"/>
<path d="M29.7426 61.5903C30.2426 62.6903 30.4426 63.8902 30.3426 65.0902C30.2426 66.0902 30.2426 66.0903 28.9426 65.8903C28.9426 65.6903 28.9426 65.4903 28.8426 65.2903C29.4426 63.9903 28.6426 62.7903 28.6426 61.5903C29.0426 61.5903 29.4426 61.5903 29.7426 61.5903Z" fill="#EE0000"/>
<path d="M33.6426 67.0902C33.9426 66.2902 34.0426 65.3903 34.8426 64.8903C35.0426 64.6903 35.2426 64.6903 35.5426 64.7903C35.7426 64.9903 35.8426 65.1903 35.7426 65.3903C35.4426 66.0903 35.0426 66.7902 34.6426 67.4902C34.2426 67.3902 33.9426 67.2902 33.6426 67.0902Z" fill="#EE0000"/>
<path d="M63.3426 84.6902C63.4426 83.9902 62.9426 83.5902 62.6426 83.0902C62.2426 82.2902 61.9426 81.5902 61.7426 80.6902C61.6426 80.3902 61.6426 80.0903 62.0426 79.8903C62.4426 79.6903 62.7426 79.9903 62.9426 80.2903C62.9426 80.2903 63.0426 80.3902 63.0426 80.4902C63.1426 81.7902 64.1426 82.5903 64.5426 83.7903C64.2426 84.3903 63.8426 84.6902 63.3426 84.6902Z" fill="#EE0000"/>
<path d="M49.4426 43.2903C50.3426 42.6903 51.1426 41.9902 52.2426 41.5902C53.9426 40.9902 56.0426 41.6902 57.0426 43.0902C58.4426 44.9902 58.3426 47.0903 57.9426 49.2903C57.4426 51.9903 56.2426 54.5902 55.1426 57.0902C53.9426 59.6902 51.3426 60.9903 48.4426 59.2903C48.4426 58.6903 48.7426 58.3902 49.2426 58.1902C49.6426 58.1902 49.9426 58.1903 50.3426 58.2903C51.9426 58.5903 52.8426 57.8902 53.5426 56.4902C54.7426 54.1902 55.7426 51.7903 56.3426 49.2903C56.7426 47.5903 57.0426 45.7902 56.0426 44.0902C55.4426 43.0902 54.3426 42.4902 53.3426 42.5902C52.1426 42.7902 50.9426 43.3903 50.0426 44.2903C49.7426 43.9903 49.5426 43.5903 49.4426 43.2903Z" fill="#EE0000"/>
<path d="M49.4426 43.2903C49.6426 43.6903 49.8426 43.9903 49.9426 44.3903C49.7426 44.7903 49.1426 44.8903 49.0426 45.2903C48.4426 46.6903 47.3426 46.5903 46.1426 46.6903C45.2426 46.7903 44.3426 46.6903 43.6426 46.3903C41.9426 45.6903 40.4426 46.0903 38.9426 47.0903C38.7426 46.7903 38.4426 46.7903 38.1426 46.9903C37.8426 47.2903 37.4426 47.4903 37.0426 47.4903C38.0426 45.0903 41.2426 43.9903 43.2426 44.7903C45.6426 45.6903 47.6426 45.0903 49.4426 43.2903Z" fill="#EE0000"/>
<path d="M49.1426 58.1903C48.6426 58.3903 48.3426 58.6903 48.3426 59.2903C46.0426 58.9903 44.1426 57.8903 42.1426 56.6903C41.1426 56.0903 40.1426 55.3903 39.3426 54.4903C39.8426 54.1903 40.4426 54.0903 41.1426 53.9903C42.0426 54.5903 43.0426 55.1903 43.9426 55.7903C45.5426 56.8903 47.3426 57.3903 49.1426 58.1903Z" fill="#EE0000"/>
<path d="M30.9426 28.2903C31.5426 28.4903 32.1426 28.5903 32.7426 28.6903C33.0426 28.7903 33.3426 28.7902 33.3426 29.1902C33.3426 29.6902 32.9426 29.7903 32.5426 29.7903C32.3426 29.7903 32.0426 29.7903 31.8426 29.7903C30.3426 29.5903 30.3426 29.5903 29.8426 30.9903C29.6426 31.4903 29.4426 31.8903 29.2426 32.3903C29.0426 32.7903 28.7426 32.9903 28.3426 32.7903C28.0426 32.6903 27.9426 32.3903 28.1426 31.9903C28.3426 31.5903 28.3426 31.0903 28.5426 30.7903C29.0426 29.9903 29.2426 29.2903 28.1426 28.7903C27.9426 28.6903 27.8426 28.3903 28.0426 28.0903C28.2426 27.7903 28.4426 27.5903 28.7426 27.7903C29.5426 28.2903 29.8426 27.6903 30.0426 27.0903C30.2426 26.6903 30.3426 26.2903 30.5426 25.8903C30.7426 25.3903 30.9426 24.6903 31.6426 24.9903C32.2426 25.2903 31.9426 25.7903 31.6426 26.2903C31.3426 26.9903 31.1426 27.5903 30.9426 28.2903Z" fill="#EE0000"/>
<path d="M43.4426 22.1903C43.3426 22.5903 43.1426 23.1903 42.9426 23.6903C42.7426 24.4903 42.5426 24.9903 43.4426 25.4903C44.0426 25.7903 43.7426 26.3903 43.2426 26.2903C42.2426 26.1903 41.9426 26.7903 41.7426 27.4903C41.6426 27.8903 41.3426 28.0903 40.9426 28.1903C40.6426 28.1903 40.4426 28.0903 40.3426 27.8903C40.2426 27.6903 40.2426 27.5903 40.3426 27.3903C40.8426 26.0903 40.8426 25.9903 39.6426 25.7903C39.1426 25.6903 38.3426 25.8903 38.4426 25.0903C38.5426 24.3903 39.3426 24.5903 39.8426 24.6903C40.0426 24.6903 40.3426 24.7903 40.5426 24.8903C41.1426 25.0903 41.4426 24.7903 41.5426 24.1903C41.6426 23.2903 41.8426 22.4903 42.3426 21.7903C42.5426 21.4903 42.7426 21.2903 43.1426 21.4903C43.3426 21.5903 43.4426 21.7903 43.4426 22.1903Z" fill="#EE0000"/>
<path d="M48.8426 32.8903C47.4426 34.3903 45.6426 35.2903 43.8426 35.7903C41.0426 36.4903 38.5426 38.0903 35.6426 38.3903C39.5426 35.2903 44.4426 34.5903 48.8426 32.8903Z" fill="#EE0000"/>
<path d="M41.1426 53.9903C40.5426 54.0903 39.9426 54.1903 39.3426 54.4903C36.5426 52.9903 35.5426 49.7903 37.0426 47.3903C37.5426 47.4903 37.8426 47.1903 38.1426 46.8903C38.4426 46.6903 38.6426 46.6903 38.9426 46.9903C37.3426 49.2903 37.4426 50.4903 39.2426 52.4903C39.7426 53.0903 40.4426 53.4903 41.1426 53.9903Z" fill="#EE0000"/>
<path d="M41.1426 19.4903C40.9426 19.4903 40.6426 19.4903 40.4426 19.4903C39.7426 19.4903 38.9426 19.3903 38.6426 18.7903C38.3426 17.9903 39.4426 17.8903 39.6426 17.1903C39.8426 18.1903 40.4426 18.7903 41.1426 19.4903Z" fill="#EE0000"/>
<path d="M78.6426 82.1902C77.6426 81.7902 76.7426 81.8902 75.9426 81.1902C77.4426 80.7902 77.6426 80.8902 78.6426 82.1902Z" fill="#EE0000"/>
<path d="M39.9426 104.89C40.3426 105.49 39.9426 105.89 39.5426 106.29C39.4426 106.29 39.1426 106.19 39.1426 106.09C39.0426 105.49 39.3426 105.09 39.9426 104.89Z" fill="#EE0000"/>
<path d="M36.5426 100.99C35.2426 101.39 34.9426 100.79 34.5426 100.09C35.4426 99.9903 35.6426 100.79 36.5426 100.99Z" fill="#EE0000"/>
<path d="M86.2426 74.0903C86.1426 74.3903 85.9426 74.5903 85.6426 74.6903C85.4426 74.6903 85.1426 74.6903 85.2426 74.3903C85.3426 74.0903 85.5426 73.8903 85.8426 73.8903C86.0426 73.7903 86.1426 73.8903 86.2426 74.0903Z" fill="#EE0000"/>
<path d="M42.6426 79.2903C42.4426 79.3903 42.3426 79.4902 42.1426 79.4902C42.1426 79.4902 42.0426 79.3903 41.9426 79.2903C42.0426 79.1903 42.2426 79.0902 42.3426 78.9902C42.4426 79.0902 42.5426 79.1903 42.6426 79.2903Z" fill="#EE0000"/>
<path d="M54.2426 34.3903C54.1426 34.4903 54.1426 34.5902 54.0426 34.6902C54.0426 34.5902 53.9426 34.4902 54.0426 34.4902C54.0426 34.2902 54.2426 34.2903 54.2426 34.3903Z" fill="#EE0000"/>
<path d="M31.9426 19.7903C32.0426 19.8903 32.0426 19.8903 32.1426 19.9903C32.0426 19.9903 32.0426 19.9903 31.9426 19.9903C31.9426 19.9903 31.9426 19.8903 31.9426 19.7903Z" fill="#EE0000"/>
<path d="M87.7426 75.2903C87.7426 75.3903 87.7426 75.4902 87.8426 75.5902C87.4426 75.4902 87.7426 75.3903 87.7426 75.2903Z" fill="#EE0000"/>
<path d="M93.3426 73.0902C93.4426 72.7902 93.3426 72.4903 93.7426 72.3903C94.1426 72.3903 94.1426 72.6902 94.2426 72.9902C93.9426 73.0902 93.6426 73.0902 93.3426 73.0902Z" fill="#EE0000"/>
</svg>
