<svg width="75" height="75" viewBox="0 0 75 75" fill="none" xmlns="http://www.w3.org/2000/svg">
<path fill-rule="evenodd" clip-rule="evenodd" d="M37.2167 18C26.0374 18 17 27.104 17 38.3669C17 47.37 22.7906 54.9909 30.8236 57.6881C31.828 57.8909 32.1958 57.2499 32.1958 56.7107C32.1958 56.2385 32.1627 54.6201 32.1627 52.9338C26.5389 54.1479 25.3678 50.5059 25.3678 50.5059C24.4641 48.1455 23.1249 47.5388 23.1249 47.5388C21.2843 46.2911 23.259 46.2911 23.259 46.2911C25.3008 46.4261 26.3722 48.3818 26.3722 48.3818C28.1793 51.4837 31.0914 50.6073 32.2629 50.0677C32.4301 48.7525 32.966 47.8421 33.535 47.3365C29.0496 46.8643 24.3304 45.1109 24.3304 37.2877C24.3304 35.0622 25.1332 33.2414 26.4053 31.8253C26.2046 31.3196 25.5015 29.2286 26.6064 26.4299C26.6064 26.4299 28.3134 25.8903 32.1623 28.5205C33.8102 28.0747 35.5096 27.8479 37.2167 27.846C38.9237 27.846 40.6638 28.0823 42.2707 28.5205C46.12 25.8903 47.827 26.4299 47.827 26.4299C48.9319 29.2286 48.2284 31.3196 48.0277 31.8253C49.3333 33.2414 50.103 35.0622 50.103 37.2877C50.103 45.1109 45.3838 46.8304 40.8649 47.3365C41.6015 47.977 42.2372 49.1908 42.2372 51.113C42.2372 53.8442 42.2041 56.0362 42.2041 56.7103C42.2041 57.2499 42.5724 57.8909 43.5763 57.6886C51.6093 54.9905 57.3999 47.37 57.3999 38.3669C57.433 27.104 48.3625 18 37.2167 18Z" fill="#727272"/>
</svg>
