<svg width="75" height="75" viewBox="0 0 75 75" fill="none" xmlns="http://www.w3.org/2000/svg">
<path d="M37.2 17C26.1 17 17 26 17 37.2C17 48.3 26 57.4 37.2 57.4C48.3 57.4 57.4 48.4 57.4 37.2C57.4 26 48.4 17 37.2 17ZM46.5 46.1C46.1 46.7 45.4 46.9 44.8 46.5C40.1 43.6 34.1 43 27 44.6C26.3 44.8 25.7 44.3 25.5 43.7C25.3 43 25.8 42.4 26.4 42.2C34.1 40.5 40.7 41.2 46 44.4C46.7 44.7 46.8 45.5 46.5 46.1ZM48.9 40.6C48.4 41.3 47.5 41.6 46.8 41.1C41.4 37.8 33.1 36.8 26.7 38.8C25.9 39 25 38.6 24.8 37.8C24.6 37 25 36.1 25.8 35.9C33.2 33.7 42.2 34.8 48.5 38.6C49.1 38.9 49.4 39.9 48.9 40.6ZM49.1 34.9C42.6 31.1 31.8 30.7 25.7 32.6C24.7 32.9 23.7 32.3 23.4 31.4C23.1 30.4 23.7 29.4 24.6 29.1C31.8 27 43.6 27.4 51 31.8C51.9 32.3 52.2 33.5 51.7 34.4C51.3 35.1 50.1 35.4 49.1 34.9Z" fill="#727272"/>
</svg>
