<svg width="33" height="32" viewBox="0 0 33 32" fill="none" xmlns="http://www.w3.org/2000/svg">
<path d="M16.1897 7.17749C11.423 7.17749 7.51514 11.0226 7.51514 15.8077C7.51514 20.55 11.38 24.4378 16.1897 24.4378C20.9564 24.4378 24.8642 20.5927 24.8642 15.8077C24.8642 11.0226 20.9993 7.17749 16.1897 7.17749ZM20.1834 19.6101C20.0116 19.8664 19.711 19.9519 19.4534 19.781C17.435 18.542 14.8584 18.2856 11.8095 18.9692C11.5089 19.0547 11.2512 18.841 11.1653 18.5847C11.0794 18.2856 11.2941 18.0293 11.5518 17.9438C14.8584 17.2175 17.6927 17.5166 19.9687 18.8838C20.2693 19.0119 20.3122 19.3537 20.1834 19.6101ZM21.2141 17.2603C20.9993 17.5593 20.6128 17.6875 20.3122 17.4739C17.9933 16.064 14.429 15.6368 11.6806 16.4912C11.3371 16.5767 10.9506 16.4058 10.8647 16.064C10.7788 15.7222 10.9506 15.3377 11.2941 15.2523C14.472 14.3123 18.3368 14.7823 21.0423 16.4058C21.2999 16.534 21.4288 16.9612 21.2141 17.2603ZM21.2999 14.825C18.5086 13.2015 13.8707 13.0306 11.2512 13.8424C10.8218 13.9705 10.3923 13.7142 10.2635 13.3297C10.1347 12.9025 10.3923 12.4752 10.7788 12.347C13.8707 11.4499 18.9381 11.6207 22.1159 13.5006C22.5023 13.7142 22.6312 14.2269 22.4165 14.6114C22.2447 14.9105 21.7294 15.0386 21.2999 14.825Z" fill="#727272"/>
</svg>
