<svg width="75" height="75" viewBox="0 0 75 75" fill="none" xmlns="http://www.w3.org/2000/svg">
<path d="M37.7 16.7998C26.6 16.7998 17.5 25.7998 17.5 36.9998C17.5 48.0998 26.5 57.1998 37.7 57.1998C48.8 57.1998 57.9 48.1998 57.9 36.9998C57.9 25.7998 48.9 16.7998 37.7 16.7998ZM47 45.8998C46.6 46.4998 45.9 46.6998 45.3 46.2998C40.6 43.3998 34.6 42.7998 27.5 44.3998C26.8 44.5998 26.2 44.0998 26 43.4998C25.8 42.7998 26.3 42.1998 26.9 41.9998C34.6 40.2998 41.2 40.9998 46.5 44.1998C47.2 44.4998 47.3 45.2998 47 45.8998ZM49.4 40.3998C48.9 41.0998 48 41.3998 47.3 40.8998C41.9 37.5998 33.6 36.5998 27.2 38.5998C26.4 38.7998 25.5 38.3998 25.3 37.5998C25.1 36.7998 25.5 35.8998 26.3 35.6998C33.7 33.4998 42.7 34.5998 49 38.3998C49.6 38.6998 49.9 39.6998 49.4 40.3998ZM49.6 34.6998C43.1 30.8998 32.3 30.4998 26.2 32.3998C25.2 32.6998 24.2 32.0998 23.9 31.1998C23.6 30.1998 24.2 29.1998 25.1 28.8998C32.3 26.7998 44.1 27.1998 51.5 31.5998C52.4 32.0998 52.7 33.2998 52.2 34.1998C51.8 34.8998 50.6 35.1998 49.6 34.6998Z" fill="#727272"/>
</svg>
